<svg xmlns="http://www.w3.org/2000/svg" xmlns:xlink="http://www.w3.org/1999/xlink" width="800" zoomAndPan="magnify" viewBox="0 0 600 135.000003" height="180" preserveAspectRatio="xMidYMid meet" version="1.0"><defs><filter x="0%" y="0%" width="100%" height="100%" id="717b71c0f8"><feColorMatrix values="0 0 0 0 1 0 0 0 0 1 0 0 0 0 1 0 0 0 1 0" color-interpolation-filters="sRGB"/></filter><g/><clipPath id="569be1e893"><path d="M 2.207031 0 L 597.792969 0 L 597.792969 134.007812 L 2.207031 134.007812 Z M 2.207031 0 " clip-rule="nonzero"/></clipPath><clipPath id="41975bd3bf"><path d="M 10.394531 0 L 589.605469 0 C 594.128906 0 597.792969 3.667969 597.792969 8.1875 L 597.792969 125.816406 C 597.792969 130.339844 594.128906 134.007812 589.605469 134.007812 L 10.394531 134.007812 C 5.871094 134.007812 2.207031 130.339844 2.207031 125.816406 L 2.207031 8.1875 C 2.207031 3.667969 5.871094 0 10.394531 0 Z M 10.394531 0 " clip-rule="nonzero"/></clipPath><mask id="d3f92ee90c"><g filter="url(#717b71c0f8)"><rect x="-60" width="720" fill="#000000" y="-13.5" height="162.000004" fill-opacity="0.65"/></g></mask><clipPath id="1e8516e12d"><path d="M 0.65625 0.597656 L 153.4375 0.597656 L 153.4375 59.410156 L 0.65625 59.410156 Z M 0.65625 0.597656 " clip-rule="nonzero"/></clipPath><clipPath id="bed3ceea89"><path d="M 9.589844 0.597656 L 144.34375 0.597656 C 146.710938 0.597656 148.984375 1.539062 150.660156 3.214844 C 152.335938 4.886719 153.277344 7.160156 153.277344 9.53125 L 153.277344 50.476562 C 153.277344 55.410156 149.277344 59.410156 144.34375 59.410156 L 9.589844 59.410156 C 4.65625 59.410156 0.65625 55.410156 0.65625 50.476562 L 0.65625 9.53125 C 0.65625 4.597656 4.65625 0.597656 9.589844 0.597656 Z M 9.589844 0.597656 " clip-rule="nonzero"/></clipPath><clipPath id="a98c232209"><rect x="0" width="154" y="0" height="60"/></clipPath><mask id="dc1cbd429d"><g filter="url(#717b71c0f8)"><rect x="-60" width="720" fill="#000000" y="-13.5" height="162.000004" fill-opacity="0.65"/></g></mask><clipPath id="6be86a181b"><path d="M 1.09375 0.597656 L 153.875 0.597656 L 153.875 59.410156 L 1.09375 59.410156 Z M 1.09375 0.597656 " clip-rule="nonzero"/></clipPath><clipPath id="0169aabc71"><path d="M 10.03125 0.597656 L 144.78125 0.597656 C 147.152344 0.597656 149.421875 1.539062 151.097656 3.214844 C 152.773438 4.886719 153.714844 7.160156 153.714844 9.53125 L 153.714844 50.476562 C 153.714844 55.410156 149.714844 59.410156 144.78125 59.410156 L 10.03125 59.410156 C 5.09375 59.410156 1.09375 55.410156 1.09375 50.476562 L 1.09375 9.53125 C 1.09375 4.597656 5.09375 0.597656 10.03125 0.597656 Z M 10.03125 0.597656 " clip-rule="nonzero"/></clipPath><clipPath id="078de04349"><rect x="0" width="154" y="0" height="60"/></clipPath><clipPath id="863aebdc05"><path d="M 171 66 L 221 66 L 221 116 L 171 116 Z M 171 66 " clip-rule="nonzero"/></clipPath><clipPath id="144d492e62"><path d="M 215.53125 117.210938 L 164.664062 74.746094 L 176.117188 61.03125 L 226.980469 103.492188 Z M 215.53125 117.210938 " clip-rule="nonzero"/></clipPath><clipPath id="77c8805025"><path d="M 215.53125 117.210938 L 164.664062 74.746094 L 176.117188 61.03125 L 226.980469 103.492188 Z M 215.53125 117.210938 " clip-rule="nonzero"/></clipPath><clipPath id="21772fab29"><path d="M 215.53125 117.210938 L 164.664062 74.746094 L 176.117188 61.03125 L 226.980469 103.492188 Z M 215.53125 117.210938 " clip-rule="nonzero"/></clipPath><clipPath id="8c90dced15"><path d="M 171 18 L 221 18 L 221 68 L 171 68 Z M 171 18 " clip-rule="nonzero"/></clipPath><clipPath id="eb283bb5d8"><path d="M 226.742188 30.148438 L 175.824219 72.550781 L 164.390625 58.820312 L 215.308594 16.417969 Z M 226.742188 30.148438 " clip-rule="nonzero"/></clipPath><clipPath id="31dd94cd98"><path d="M 215.546875 16.703125 L 164.628906 59.105469 L 176.0625 72.835938 L 226.980469 30.433594 Z M 215.546875 16.703125 " clip-rule="nonzero"/></clipPath><clipPath id="a6400070b1"><path d="M 215.546875 16.703125 L 164.628906 59.105469 L 176.0625 72.835938 L 226.980469 30.433594 Z M 215.546875 16.703125 " clip-rule="nonzero"/></clipPath><clipPath id="eaa67b64e0"><path d="M 17.09375 37.550781 L 169.714844 37.550781 L 169.714844 96.367188 L 17.09375 96.367188 Z M 17.09375 37.550781 " clip-rule="nonzero"/></clipPath><clipPath id="e044815f5c"><path d="M 26.03125 37.550781 L 160.78125 37.550781 C 163.152344 37.550781 165.421875 38.492188 167.097656 40.167969 C 168.773438 41.84375 169.714844 44.117188 169.714844 46.484375 L 169.714844 87.429688 C 169.714844 92.367188 165.714844 96.367188 160.78125 96.367188 L 26.03125 96.367188 C 21.09375 96.367188 17.09375 92.367188 17.09375 87.429688 L 17.09375 46.484375 C 17.09375 41.550781 21.09375 37.550781 26.03125 37.550781 Z M 26.03125 37.550781 " clip-rule="nonzero"/></clipPath><mask id="f97361731b"><g filter="url(#717b71c0f8)"><rect x="-60" width="720" fill="#000000" y="-13.5" height="162.000004" fill-opacity="0.5"/></g></mask><clipPath id="a67418dedd"><path d="M 0.691406 0.816406 L 153.46875 0.816406 L 153.46875 59.628906 L 0.691406 59.628906 Z M 0.691406 0.816406 " clip-rule="nonzero"/></clipPath><clipPath id="1815213f4f"><path d="M 9.625 0.816406 L 144.375 0.816406 C 146.746094 0.816406 149.019531 1.757812 150.691406 3.433594 C 152.367188 5.109375 153.308594 7.378906 153.308594 9.75 L 153.308594 50.695312 C 153.308594 55.628906 149.308594 59.628906 144.375 59.628906 L 9.625 59.628906 C 4.691406 59.628906 0.691406 55.628906 0.691406 50.695312 L 0.691406 9.75 C 0.691406 4.816406 4.691406 0.816406 9.625 0.816406 Z M 9.625 0.816406 " clip-rule="nonzero"/></clipPath><clipPath id="52f862fb77"><rect x="0" width="154" y="0" height="60"/></clipPath><mask id="f33609f8f5"><g filter="url(#717b71c0f8)"><rect x="-60" width="720" fill="#000000" y="-13.5" height="162.000004" fill-opacity="0.65"/></g></mask><clipPath id="040b8bb6ee"><path d="M 0.691406 0.285156 L 153.46875 0.285156 L 153.46875 59.101562 L 0.691406 59.101562 Z M 0.691406 0.285156 " clip-rule="nonzero"/></clipPath><clipPath id="f21a7e12ad"><path d="M 9.625 0.285156 L 144.375 0.285156 C 146.746094 0.285156 149.019531 1.226562 150.691406 2.902344 C 152.367188 4.578125 153.308594 6.851562 153.308594 9.21875 L 153.308594 50.167969 C 153.308594 55.101562 149.308594 59.101562 144.375 59.101562 L 9.625 59.101562 C 4.691406 59.101562 0.691406 55.101562 0.691406 50.167969 L 0.691406 9.21875 C 0.691406 4.285156 4.691406 0.285156 9.625 0.285156 Z M 9.625 0.285156 " clip-rule="nonzero"/></clipPath><clipPath id="bcbfe31c08"><rect x="0" width="154" y="0" height="60"/></clipPath><clipPath id="8d78d79c65"><path d="M 223.691406 14.285156 L 376.308594 14.285156 L 376.308594 73.101562 L 223.691406 73.101562 Z M 223.691406 14.285156 " clip-rule="nonzero"/></clipPath><clipPath id="86c88a0fc0"><path d="M 232.625 14.285156 L 367.375 14.285156 C 369.746094 14.285156 372.019531 15.226562 373.691406 16.902344 C 375.367188 18.578125 376.308594 20.851562 376.308594 23.21875 L 376.308594 64.167969 C 376.308594 69.101562 372.308594 73.101562 367.375 73.101562 L 232.625 73.101562 C 227.691406 73.101562 223.691406 69.101562 223.691406 64.167969 L 223.691406 23.21875 C 223.691406 18.285156 227.691406 14.285156 232.625 14.285156 Z M 232.625 14.285156 " clip-rule="nonzero"/></clipPath><clipPath id="2016ecfd23"><path d="M 223.691406 60.816406 L 376.308594 60.816406 L 376.308594 119.628906 L 223.691406 119.628906 Z M 223.691406 60.816406 " clip-rule="nonzero"/></clipPath><clipPath id="6c2b1db70c"><path d="M 232.625 60.816406 L 367.375 60.816406 C 369.746094 60.816406 372.019531 61.757812 373.691406 63.433594 C 375.367188 65.109375 376.308594 67.378906 376.308594 69.75 L 376.308594 110.695312 C 376.308594 115.628906 372.308594 119.628906 367.375 119.628906 L 232.625 119.628906 C 227.691406 119.628906 223.691406 115.628906 223.691406 110.695312 L 223.691406 69.75 C 223.691406 64.816406 227.691406 60.816406 232.625 60.816406 Z M 232.625 60.816406 " clip-rule="nonzero"/></clipPath><clipPath id="ba2dabc046"><path d="M 430.65625 37.597656 L 583.277344 37.597656 L 583.277344 96.410156 L 430.65625 96.410156 Z M 430.65625 37.597656 " clip-rule="nonzero"/></clipPath><clipPath id="b5c44bf53e"><path d="M 439.589844 37.597656 L 574.34375 37.597656 C 576.710938 37.597656 578.984375 38.539062 580.660156 40.214844 C 582.335938 41.886719 583.277344 44.160156 583.277344 46.53125 L 583.277344 87.476562 C 583.277344 92.410156 579.277344 96.410156 574.34375 96.410156 L 439.589844 96.410156 C 434.65625 96.410156 430.65625 92.410156 430.65625 87.476562 L 430.65625 46.53125 C 430.65625 41.597656 434.65625 37.597656 439.589844 37.597656 Z M 439.589844 37.597656 " clip-rule="nonzero"/></clipPath><clipPath id="d665620a91"><path d="M 378 23 L 429 23 L 429 72 L 378 72 Z M 378 23 " clip-rule="nonzero"/></clipPath><clipPath id="c9640e86cc"><path d="M 423.050781 73.886719 L 372.144531 31.476562 L 383.582031 17.75 L 434.488281 60.160156 Z M 423.050781 73.886719 " clip-rule="nonzero"/></clipPath><clipPath id="5a16af2a8f"><path d="M 423.050781 73.886719 L 372.144531 31.476562 L 383.582031 17.75 L 434.488281 60.160156 Z M 423.050781 73.886719 " clip-rule="nonzero"/></clipPath><clipPath id="4e9286a8f9"><path d="M 423.050781 73.886719 L 372.144531 31.476562 L 383.582031 17.75 L 434.488281 60.160156 Z M 423.050781 73.886719 " clip-rule="nonzero"/></clipPath><clipPath id="a388331c69"><path d="M 378 62 L 429 62 L 429 111 L 378 111 Z M 378 62 " clip-rule="nonzero"/></clipPath><clipPath id="8e0eac078f"><path d="M 434.25 73.667969 L 383.175781 115.878906 L 371.792969 102.105469 L 422.867188 59.894531 Z M 434.25 73.667969 " clip-rule="nonzero"/></clipPath><clipPath id="315f76d257"><path d="M 423.105469 60.183594 L 372.03125 102.390625 L 383.410156 116.164062 L 434.488281 73.957031 Z M 423.105469 60.183594 " clip-rule="nonzero"/></clipPath><clipPath id="55ac227de5"><path d="M 423.105469 60.183594 L 372.03125 102.390625 L 383.410156 116.164062 L 434.488281 73.957031 Z M 423.105469 60.183594 " clip-rule="nonzero"/></clipPath></defs><g clip-path="url(#569be1e893)"><g clip-path="url(#41975bd3bf)"><path fill="#dddddd" d="M 2.207031 0 L 597.910156 0 L 597.910156 134.007812 L 2.207031 134.007812 Z M 2.207031 0 " fill-opacity="1" fill-rule="nonzero"/></g></g><g mask="url(#d3f92ee90c)"><g transform="matrix(1, 0, 0, 1, 430, 37)"><g clip-path="url(#a98c232209)"><g clip-path="url(#1e8516e12d)"><g clip-path="url(#bed3ceea89)"><path fill="#ffffff" d="M 0.65625 0.597656 L 153.207031 0.597656 L 153.207031 59.410156 L 0.65625 59.410156 Z M 0.65625 0.597656 " fill-opacity="1" fill-rule="nonzero"/></g></g></g></g></g><g mask="url(#dc1cbd429d)"><g transform="matrix(1, 0, 0, 1, 16, 37)"><g clip-path="url(#078de04349)"><g clip-path="url(#6be86a181b)"><g clip-path="url(#0169aabc71)"><path fill="#ffffff" d="M 1.09375 0.597656 L 153.644531 0.597656 L 153.644531 59.410156 L 1.09375 59.410156 Z M 1.09375 0.597656 " fill-opacity="1" fill-rule="nonzero"/></g></g></g></g></g><g clip-path="url(#863aebdc05)"><g clip-path="url(#144d492e62)"><g clip-path="url(#77c8805025)"><g clip-path="url(#21772fab29)"><path fill="#000000" d="M 217.050781 111.015625 C 215.808594 111.796875 214.59375 112.65625 213.355469 113.441406 C 212.949219 113.699219 212.832031 114.230469 213.082031 114.632812 C 213.332031 115.035156 213.863281 115.140625 214.265625 114.886719 C 215.640625 114.003906 216.988281 113.046875 218.375 112.191406 C 219.132812 111.71875 220.152344 111.363281 220.8125 110.777344 C 221.171875 110.449219 220.789062 109.445312 220.789062 109.445312 C 220.789062 109.445312 220.851562 109.515625 220.882812 109.539062 C 220.605469 109.1875 220.226562 108.921875 219.792969 108.738281 C 219.324219 108.519531 218.792969 108.390625 218.363281 108.226562 C 216.953125 107.644531 215.785156 106.753906 214.558594 105.871094 C 214.183594 105.59375 213.644531 105.6875 213.375 106.074219 C 213.09375 106.449219 213.175781 106.992188 213.554688 107.257812 C 214.589844 108 215.597656 108.75 216.722656 109.34375 C 212.453125 109.628906 208.851562 108.683594 206.023438 106.621094 C 202.804688 104.265625 200.585938 100.488281 199.449219 95.535156 C 198.597656 91.8125 198.460938 87.972656 197.179688 84.328125 C 195.527344 79.644531 192.355469 75.664062 188.8125 72.269531 C 184.125 67.761719 178.601562 65.914062 172.140625 66.347656 C 171.671875 66.375 171.308594 66.789062 171.335938 67.25 C 171.355469 67.722656 171.761719 68.082031 172.234375 68.054688 C 178.203125 67.648438 183.308594 69.355469 187.628906 73.503906 C 190.976562 76.71875 194.007812 80.472656 195.570312 84.914062 C 196.828125 88.480469 196.941406 92.265625 197.792969 95.933594 C 199.019531 101.332031 201.472656 105.429688 204.992188 108 C 208.171875 110.304688 212.210938 111.382812 217.050781 111.015625 Z M 217.050781 111.015625 " fill-opacity="1" fill-rule="evenodd"/></g></g></g></g><g clip-path="url(#8c90dced15)"><g clip-path="url(#eb283bb5d8)"><g clip-path="url(#31dd94cd98)"><g clip-path="url(#a6400070b1)"><path fill="#000000" d="M 217.058594 22.902344 C 215.820312 22.117188 214.605469 21.257812 213.367188 20.472656 C 212.960938 20.214844 212.84375 19.679688 213.097656 19.28125 C 213.347656 18.878906 213.875 18.769531 214.28125 19.027344 C 215.652344 19.910156 217 20.871094 218.386719 21.726562 C 219.140625 22.199219 220.160156 22.554688 220.820312 23.140625 C 221.179688 23.472656 220.796875 24.476562 220.796875 24.476562 C 220.796875 24.476562 220.859375 24.40625 220.886719 24.378906 C 220.613281 24.730469 220.230469 24.996094 219.800781 25.179688 C 219.328125 25.398438 218.796875 25.527344 218.367188 25.691406 C 216.957031 26.273438 215.785156 27.160156 214.558594 28.042969 C 214.1875 28.316406 213.644531 28.226562 213.375 27.839844 C 213.09375 27.460938 213.179688 26.921875 213.558594 26.65625 C 214.59375 25.914062 215.601562 25.164062 216.730469 24.574219 C 212.460938 24.28125 208.855469 25.222656 206.027344 27.28125 C 202.804688 29.632812 200.582031 33.40625 199.441406 38.359375 C 198.582031 42.082031 198.441406 45.921875 197.15625 49.5625 C 195.496094 54.246094 192.320312 58.222656 188.777344 61.609375 C 184.078125 66.117188 178.554688 67.953125 172.09375 67.511719 C 171.625 67.484375 171.261719 67.070312 171.292969 66.609375 C 171.3125 66.136719 171.71875 65.78125 172.191406 65.808594 C 178.160156 66.21875 183.265625 64.519531 187.59375 60.375 C 190.941406 57.167969 193.980469 53.414062 195.550781 48.976562 C 196.8125 45.410156 196.925781 41.625 197.78125 37.957031 C 199.015625 32.558594 201.476562 28.46875 205 25.898438 C 208.179688 23.601562 212.21875 22.527344 217.058594 22.902344 Z M 217.058594 22.902344 " fill-opacity="1" fill-rule="evenodd"/></g></g></g></g><g clip-path="url(#eaa67b64e0)"><g clip-path="url(#e044815f5c)"><path stroke-linecap="butt" transform="matrix(0.744485, 0, 0, 0.744485, 17.095581, 37.551038)" fill="none" stroke-linejoin="miter" d="M 12.002479 -0.000344266 L 193.000013 -0.000344266 C 196.18489 -0.000344266 199.233346 1.264162 201.484272 3.515088 C 203.735198 5.766014 204.999705 8.819718 204.999705 11.999347 L 204.999705 66.997497 C 204.999705 73.629595 199.626865 79.002435 193.000013 79.002435 L 12.002479 79.002435 C 5.37038 79.002435 -0.00245986 73.629595 -0.00245986 66.997497 L -0.00245986 11.999347 C -0.00245986 5.372495 5.37038 -0.000344266 12.002479 -0.000344266 Z M 12.002479 -0.000344266 " stroke="#545454" stroke-width="4" stroke-opacity="1" stroke-miterlimit="4"/></g></g><g fill="#000000" fill-opacity="1"><g transform="translate(36.510362, 71.79736)"><g><path d="M 4.171875 0 L 3 0 L 3 -8.1875 L 0.125 -8.1875 L 0.125 -9.21875 L 7.03125 -9.21875 L 7.03125 -8.1875 L 4.171875 -8.1875 Z M 4.171875 0 "/></g></g></g><g fill="#000000" fill-opacity="1"><g transform="translate(43.685029, 71.79736)"><g><path d="M 5.8125 0 L 5.8125 -4.421875 C 5.8125 -4.984375 5.6875 -5.398438 5.4375 -5.671875 C 5.1875 -5.953125 4.796875 -6.09375 4.265625 -6.09375 C 3.554688 -6.09375 3.039062 -5.894531 2.71875 -5.5 C 2.394531 -5.113281 2.234375 -4.472656 2.234375 -3.578125 L 2.234375 0 L 1.09375 0 L 1.09375 -9.8125 L 2.234375 -9.8125 L 2.234375 -6.9375 C 2.234375 -6.550781 2.210938 -6.226562 2.171875 -5.96875 L 2.25 -5.96875 C 2.445312 -6.300781 2.734375 -6.5625 3.109375 -6.75 C 3.492188 -6.9375 3.925781 -7.03125 4.40625 -7.03125 C 5.238281 -7.03125 5.867188 -6.828125 6.296875 -6.421875 C 6.722656 -6.023438 6.9375 -5.382812 6.9375 -4.5 L 6.9375 0 Z M 5.8125 0 "/></g></g></g><g fill="#000000" fill-opacity="1"><g transform="translate(51.659676, 71.79736)"><g><path d="M 4.328125 -7.046875 C 4.628906 -7.046875 4.898438 -7.019531 5.140625 -6.96875 L 5 -5.921875 C 4.738281 -5.984375 4.488281 -6.015625 4.25 -6.015625 C 3.882812 -6.015625 3.546875 -5.910156 3.234375 -5.703125 C 2.921875 -5.503906 2.675781 -5.226562 2.5 -4.875 C 2.320312 -4.519531 2.234375 -4.125 2.234375 -3.6875 L 2.234375 0 L 1.09375 0 L 1.09375 -6.921875 L 2.03125 -6.921875 L 2.15625 -5.65625 L 2.203125 -5.65625 C 2.472656 -6.113281 2.785156 -6.457031 3.140625 -6.6875 C 3.503906 -6.925781 3.898438 -7.046875 4.328125 -7.046875 Z M 4.328125 -7.046875 "/></g></g></g><g fill="#000000" fill-opacity="1"><g transform="translate(56.862712, 71.79736)"><g><path d="M 4.046875 0.125 C 3.003906 0.125 2.1875 -0.1875 1.59375 -0.8125 C 1.007812 -1.445312 0.71875 -2.3125 0.71875 -3.40625 C 0.71875 -4.519531 0.988281 -5.40625 1.53125 -6.0625 C 2.082031 -6.71875 2.828125 -7.046875 3.765625 -7.046875 C 4.640625 -7.046875 5.332031 -6.765625 5.84375 -6.203125 C 6.363281 -5.640625 6.625 -4.878906 6.625 -3.921875 L 6.625 -3.234375 L 1.890625 -3.234375 C 1.910156 -2.453125 2.109375 -1.859375 2.484375 -1.453125 C 2.859375 -1.046875 3.394531 -0.84375 4.09375 -0.84375 C 4.457031 -0.84375 4.804688 -0.875 5.140625 -0.9375 C 5.472656 -1 5.863281 -1.125 6.3125 -1.3125 L 6.3125 -0.328125 C 5.925781 -0.160156 5.5625 -0.046875 5.21875 0.015625 C 4.882812 0.0859375 4.492188 0.125 4.046875 0.125 Z M 3.75 -6.125 C 3.207031 -6.125 2.78125 -5.945312 2.46875 -5.59375 C 2.15625 -5.25 1.96875 -4.765625 1.90625 -4.140625 L 5.4375 -4.140625 C 5.425781 -4.785156 5.273438 -5.273438 4.984375 -5.609375 C 4.691406 -5.953125 4.28125 -6.125 3.75 -6.125 Z M 3.75 -6.125 "/></g></g></g><g fill="#000000" fill-opacity="1"><g transform="translate(64.138165, 71.79736)"><g><path d="M 5.375 0 L 5.15625 -0.984375 L 5.09375 -0.984375 C 4.75 -0.546875 4.40625 -0.25 4.0625 -0.09375 C 3.71875 0.0507812 3.285156 0.125 2.765625 0.125 C 2.085938 0.125 1.554688 -0.0507812 1.171875 -0.40625 C 0.785156 -0.757812 0.59375 -1.265625 0.59375 -1.921875 C 0.59375 -3.328125 1.695312 -4.0625 3.90625 -4.125 L 5.078125 -4.171875 L 5.078125 -4.578125 C 5.078125 -5.109375 4.960938 -5.5 4.734375 -5.75 C 4.515625 -6 4.15625 -6.125 3.65625 -6.125 C 3.289062 -6.125 2.941406 -6.066406 2.609375 -5.953125 C 2.285156 -5.847656 1.984375 -5.726562 1.703125 -5.59375 L 1.359375 -6.4375 C 1.703125 -6.625 2.078125 -6.769531 2.484375 -6.875 C 2.898438 -6.976562 3.3125 -7.03125 3.71875 -7.03125 C 4.550781 -7.03125 5.171875 -6.84375 5.578125 -6.46875 C 5.984375 -6.101562 6.1875 -5.519531 6.1875 -4.71875 L 6.1875 0 Z M 3.03125 -0.78125 C 3.664062 -0.78125 4.164062 -0.953125 4.53125 -1.296875 C 4.894531 -1.640625 5.078125 -2.128906 5.078125 -2.765625 L 5.078125 -3.390625 L 4.046875 -3.34375 C 3.253906 -3.3125 2.675781 -3.179688 2.3125 -2.953125 C 1.945312 -2.734375 1.765625 -2.382812 1.765625 -1.90625 C 1.765625 -1.550781 1.875 -1.273438 2.09375 -1.078125 C 2.320312 -0.878906 2.632812 -0.78125 3.03125 -0.78125 Z M 3.03125 -0.78125 "/></g></g></g><g fill="#000000" fill-opacity="1"><g transform="translate(71.375824, 71.79736)"><g><path d="M 3.40625 -0.796875 C 3.550781 -0.796875 3.722656 -0.8125 3.921875 -0.84375 C 4.117188 -0.875 4.269531 -0.90625 4.375 -0.9375 L 4.375 -0.078125 C 4.269531 -0.0234375 4.101562 0.0195312 3.875 0.0625 C 3.65625 0.101562 3.4375 0.125 3.21875 0.125 C 1.863281 0.125 1.1875 -0.585938 1.1875 -2.015625 L 1.1875 -6.03125 L 0.203125 -6.03125 L 0.203125 -6.578125 L 1.203125 -7.03125 L 1.65625 -8.5 L 2.328125 -8.5 L 2.328125 -6.921875 L 4.328125 -6.921875 L 4.328125 -6.03125 L 2.328125 -6.03125 L 2.328125 -2.046875 C 2.328125 -1.640625 2.421875 -1.328125 2.609375 -1.109375 C 2.804688 -0.898438 3.070312 -0.796875 3.40625 -0.796875 Z M 3.40625 -0.796875 "/></g></g></g><g fill="#000000" fill-opacity="1"><g transform="translate(76.030856, 71.79736)"><g/></g></g><g fill="#000000" fill-opacity="1"><g transform="translate(79.381972, 71.79736)"><g><path d="M 3.84375 0 L 0.515625 0 L 0.515625 -0.671875 L 1.59375 -0.90625 L 1.59375 -8.28125 L 0.515625 -8.546875 L 0.515625 -9.21875 L 3.84375 -9.21875 L 3.84375 -8.546875 L 2.765625 -8.28125 L 2.765625 -0.90625 L 3.84375 -0.671875 Z M 3.84375 0 "/></g></g></g><g fill="#000000" fill-opacity="1"><g transform="translate(83.753539, 71.79736)"><g><path d="M 5.8125 0 L 5.8125 -4.421875 C 5.8125 -4.984375 5.6875 -5.398438 5.4375 -5.671875 C 5.1875 -5.953125 4.796875 -6.09375 4.265625 -6.09375 C 3.546875 -6.09375 3.023438 -5.894531 2.703125 -5.5 C 2.390625 -5.113281 2.234375 -4.472656 2.234375 -3.578125 L 2.234375 0 L 1.09375 0 L 1.09375 -6.921875 L 2.015625 -6.921875 L 2.1875 -5.96875 L 2.25 -5.96875 C 2.457031 -6.3125 2.753906 -6.578125 3.140625 -6.765625 C 3.523438 -6.953125 3.953125 -7.046875 4.421875 -7.046875 C 5.273438 -7.046875 5.90625 -6.835938 6.3125 -6.421875 C 6.726562 -6.015625 6.9375 -5.375 6.9375 -4.5 L 6.9375 0 Z M 5.8125 0 "/></g></g></g><g fill="#000000" fill-opacity="1"><g transform="translate(91.728186, 71.79736)"><g><path d="M 3.40625 -0.796875 C 3.550781 -0.796875 3.722656 -0.8125 3.921875 -0.84375 C 4.117188 -0.875 4.269531 -0.90625 4.375 -0.9375 L 4.375 -0.078125 C 4.269531 -0.0234375 4.101562 0.0195312 3.875 0.0625 C 3.65625 0.101562 3.4375 0.125 3.21875 0.125 C 1.863281 0.125 1.1875 -0.585938 1.1875 -2.015625 L 1.1875 -6.03125 L 0.203125 -6.03125 L 0.203125 -6.578125 L 1.203125 -7.03125 L 1.65625 -8.5 L 2.328125 -8.5 L 2.328125 -6.921875 L 4.328125 -6.921875 L 4.328125 -6.03125 L 2.328125 -6.03125 L 2.328125 -2.046875 C 2.328125 -1.640625 2.421875 -1.328125 2.609375 -1.109375 C 2.804688 -0.898438 3.070312 -0.796875 3.40625 -0.796875 Z M 3.40625 -0.796875 "/></g></g></g><g fill="#000000" fill-opacity="1"><g transform="translate(96.383218, 71.79736)"><g><path d="M 4.046875 0.125 C 3.003906 0.125 2.1875 -0.1875 1.59375 -0.8125 C 1.007812 -1.445312 0.71875 -2.3125 0.71875 -3.40625 C 0.71875 -4.519531 0.988281 -5.40625 1.53125 -6.0625 C 2.082031 -6.71875 2.828125 -7.046875 3.765625 -7.046875 C 4.640625 -7.046875 5.332031 -6.765625 5.84375 -6.203125 C 6.363281 -5.640625 6.625 -4.878906 6.625 -3.921875 L 6.625 -3.234375 L 1.890625 -3.234375 C 1.910156 -2.453125 2.109375 -1.859375 2.484375 -1.453125 C 2.859375 -1.046875 3.394531 -0.84375 4.09375 -0.84375 C 4.457031 -0.84375 4.804688 -0.875 5.140625 -0.9375 C 5.472656 -1 5.863281 -1.125 6.3125 -1.3125 L 6.3125 -0.328125 C 5.925781 -0.160156 5.5625 -0.046875 5.21875 0.015625 C 4.882812 0.0859375 4.492188 0.125 4.046875 0.125 Z M 3.75 -6.125 C 3.207031 -6.125 2.78125 -5.945312 2.46875 -5.59375 C 2.15625 -5.25 1.96875 -4.765625 1.90625 -4.140625 L 5.4375 -4.140625 C 5.425781 -4.785156 5.273438 -5.273438 4.984375 -5.609375 C 4.691406 -5.953125 4.28125 -6.125 3.75 -6.125 Z M 3.75 -6.125 "/></g></g></g><g fill="#000000" fill-opacity="1"><g transform="translate(103.658671, 71.79736)"><g><path d="M 2.234375 0 L 1.09375 0 L 1.09375 -9.8125 L 2.234375 -9.8125 Z M 2.234375 0 "/></g></g></g><g fill="#000000" fill-opacity="1"><g transform="translate(106.98459, 71.79736)"><g><path d="M 2.234375 0 L 1.09375 0 L 1.09375 -9.8125 L 2.234375 -9.8125 Z M 2.234375 0 "/></g></g></g><g fill="#000000" fill-opacity="1"><g transform="translate(110.310509, 71.79736)"><g><path d="M 2.234375 0 L 1.09375 0 L 1.09375 -6.921875 L 2.234375 -6.921875 Z M 1.015625 -8.796875 C 1.015625 -9.046875 1.078125 -9.226562 1.203125 -9.34375 C 1.328125 -9.457031 1.484375 -9.515625 1.671875 -9.515625 C 1.847656 -9.515625 2.003906 -9.457031 2.140625 -9.34375 C 2.273438 -9.226562 2.34375 -9.046875 2.34375 -8.796875 C 2.34375 -8.546875 2.273438 -8.359375 2.140625 -8.234375 C 2.003906 -8.117188 1.847656 -8.0625 1.671875 -8.0625 C 1.484375 -8.0625 1.328125 -8.117188 1.203125 -8.234375 C 1.078125 -8.359375 1.015625 -8.546875 1.015625 -8.796875 Z M 1.015625 -8.796875 "/></g></g></g><g fill="#000000" fill-opacity="1"><g transform="translate(113.636428, 71.79736)"><g><path d="M 3.734375 -0.796875 C 4.429688 -0.796875 4.9375 -0.984375 5.25 -1.359375 C 5.570312 -1.734375 5.734375 -2.335938 5.734375 -3.171875 L 5.734375 -3.453125 C 5.734375 -4.367188 5.570312 -5.035156 5.25 -5.453125 C 4.925781 -5.878906 4.410156 -6.09375 3.703125 -6.09375 C 3.117188 -6.09375 2.671875 -5.863281 2.359375 -5.40625 C 2.046875 -4.945312 1.890625 -4.289062 1.890625 -3.4375 C 1.890625 -2.582031 2.039062 -1.925781 2.34375 -1.46875 C 2.65625 -1.019531 3.117188 -0.796875 3.734375 -0.796875 Z M 5.71875 -0.0625 L 5.75 -0.90625 L 5.703125 -0.90625 C 5.234375 -0.21875 4.519531 0.125 3.5625 0.125 C 2.664062 0.125 1.96875 -0.1875 1.46875 -0.8125 C 0.96875 -1.4375 0.71875 -2.316406 0.71875 -3.453125 C 0.71875 -4.554688 0.96875 -5.429688 1.46875 -6.078125 C 1.976562 -6.722656 2.671875 -7.046875 3.546875 -7.046875 C 4.484375 -7.046875 5.207031 -6.695312 5.71875 -6 L 5.78125 -6 L 5.9375 -6.921875 L 6.84375 -6.921875 L 6.84375 0.109375 C 6.84375 1.097656 6.585938 1.84375 6.078125 2.34375 C 5.578125 2.84375 4.800781 3.09375 3.75 3.09375 C 2.738281 3.09375 1.90625 2.945312 1.25 2.65625 L 1.25 1.609375 C 1.925781 1.972656 2.78125 2.15625 3.8125 2.15625 C 4.394531 2.15625 4.859375 1.984375 5.203125 1.640625 C 5.546875 1.296875 5.71875 0.816406 5.71875 0.203125 Z M 5.71875 -0.0625 "/></g></g></g><g fill="#000000" fill-opacity="1"><g transform="translate(121.57328, 71.79736)"><g><path d="M 4.046875 0.125 C 3.003906 0.125 2.1875 -0.1875 1.59375 -0.8125 C 1.007812 -1.445312 0.71875 -2.3125 0.71875 -3.40625 C 0.71875 -4.519531 0.988281 -5.40625 1.53125 -6.0625 C 2.082031 -6.71875 2.828125 -7.046875 3.765625 -7.046875 C 4.640625 -7.046875 5.332031 -6.765625 5.84375 -6.203125 C 6.363281 -5.640625 6.625 -4.878906 6.625 -3.921875 L 6.625 -3.234375 L 1.890625 -3.234375 C 1.910156 -2.453125 2.109375 -1.859375 2.484375 -1.453125 C 2.859375 -1.046875 3.394531 -0.84375 4.09375 -0.84375 C 4.457031 -0.84375 4.804688 -0.875 5.140625 -0.9375 C 5.472656 -1 5.863281 -1.125 6.3125 -1.3125 L 6.3125 -0.328125 C 5.925781 -0.160156 5.5625 -0.046875 5.21875 0.015625 C 4.882812 0.0859375 4.492188 0.125 4.046875 0.125 Z M 3.75 -6.125 C 3.207031 -6.125 2.78125 -5.945312 2.46875 -5.59375 C 2.15625 -5.25 1.96875 -4.765625 1.90625 -4.140625 L 5.4375 -4.140625 C 5.425781 -4.785156 5.273438 -5.273438 4.984375 -5.609375 C 4.691406 -5.953125 4.28125 -6.125 3.75 -6.125 Z M 3.75 -6.125 "/></g></g></g><g fill="#000000" fill-opacity="1"><g transform="translate(128.848733, 71.79736)"><g><path d="M 5.8125 0 L 5.8125 -4.421875 C 5.8125 -4.984375 5.6875 -5.398438 5.4375 -5.671875 C 5.1875 -5.953125 4.796875 -6.09375 4.265625 -6.09375 C 3.546875 -6.09375 3.023438 -5.894531 2.703125 -5.5 C 2.390625 -5.113281 2.234375 -4.472656 2.234375 -3.578125 L 2.234375 0 L 1.09375 0 L 1.09375 -6.921875 L 2.015625 -6.921875 L 2.1875 -5.96875 L 2.25 -5.96875 C 2.457031 -6.3125 2.753906 -6.578125 3.140625 -6.765625 C 3.523438 -6.953125 3.953125 -7.046875 4.421875 -7.046875 C 5.273438 -7.046875 5.90625 -6.835938 6.3125 -6.421875 C 6.726562 -6.015625 6.9375 -5.375 6.9375 -4.5 L 6.9375 0 Z M 5.8125 0 "/></g></g></g><g fill="#000000" fill-opacity="1"><g transform="translate(136.82338, 71.79736)"><g><path d="M 3.875 0.125 C 2.875 0.125 2.097656 -0.175781 1.546875 -0.78125 C 0.992188 -1.394531 0.71875 -2.273438 0.71875 -3.421875 C 0.71875 -4.578125 0.992188 -5.46875 1.546875 -6.09375 C 2.109375 -6.726562 2.910156 -7.046875 3.953125 -7.046875 C 4.285156 -7.046875 4.613281 -7.007812 4.9375 -6.9375 C 5.269531 -6.875 5.546875 -6.785156 5.765625 -6.671875 L 5.421875 -5.734375 C 4.835938 -5.953125 4.335938 -6.0625 3.921875 -6.0625 C 3.222656 -6.0625 2.707031 -5.835938 2.375 -5.390625 C 2.050781 -4.953125 1.890625 -4.300781 1.890625 -3.4375 C 1.890625 -2.601562 2.050781 -1.960938 2.375 -1.515625 C 2.707031 -1.066406 3.203125 -0.84375 3.859375 -0.84375 C 4.460938 -0.84375 5.0625 -0.976562 5.65625 -1.25 L 5.65625 -0.25 C 5.175781 0 4.582031 0.125 3.875 0.125 Z M 3.875 0.125 "/></g></g></g><g fill="#000000" fill-opacity="1"><g transform="translate(143.01539, 71.79736)"><g><path d="M 4.046875 0.125 C 3.003906 0.125 2.1875 -0.1875 1.59375 -0.8125 C 1.007812 -1.445312 0.71875 -2.3125 0.71875 -3.40625 C 0.71875 -4.519531 0.988281 -5.40625 1.53125 -6.0625 C 2.082031 -6.71875 2.828125 -7.046875 3.765625 -7.046875 C 4.640625 -7.046875 5.332031 -6.765625 5.84375 -6.203125 C 6.363281 -5.640625 6.625 -4.878906 6.625 -3.921875 L 6.625 -3.234375 L 1.890625 -3.234375 C 1.910156 -2.453125 2.109375 -1.859375 2.484375 -1.453125 C 2.859375 -1.046875 3.394531 -0.84375 4.09375 -0.84375 C 4.457031 -0.84375 4.804688 -0.875 5.140625 -0.9375 C 5.472656 -1 5.863281 -1.125 6.3125 -1.3125 L 6.3125 -0.328125 C 5.925781 -0.160156 5.5625 -0.046875 5.21875 0.015625 C 4.882812 0.0859375 4.492188 0.125 4.046875 0.125 Z M 3.75 -6.125 C 3.207031 -6.125 2.78125 -5.945312 2.46875 -5.59375 C 2.15625 -5.25 1.96875 -4.765625 1.90625 -4.140625 L 5.4375 -4.140625 C 5.425781 -4.785156 5.273438 -5.273438 4.984375 -5.609375 C 4.691406 -5.953125 4.28125 -6.125 3.75 -6.125 Z M 3.75 -6.125 "/></g></g></g><g mask="url(#f97361731b)"><g transform="matrix(1, 0, 0, 1, 223, 60)"><g clip-path="url(#52f862fb77)"><g clip-path="url(#a67418dedd)"><g clip-path="url(#1815213f4f)"><path fill="#6aab4e" d="M 0.691406 0.816406 L 153.238281 0.816406 L 153.238281 59.628906 L 0.691406 59.628906 Z M 0.691406 0.816406 " fill-opacity="1" fill-rule="nonzero"/></g></g></g></g></g><g mask="url(#f33609f8f5)"><g transform="matrix(1, 0, 0, 1, 223, 14)"><g clip-path="url(#bcbfe31c08)"><g clip-path="url(#040b8bb6ee)"><g clip-path="url(#f21a7e12ad)"><path fill="#ffffff" d="M 0.691406 0.285156 L 153.238281 0.285156 L 153.238281 59.101562 L 0.691406 59.101562 Z M 0.691406 0.285156 " fill-opacity="1" fill-rule="nonzero"/></g></g></g></g></g><g clip-path="url(#8d78d79c65)"><g clip-path="url(#86c88a0fc0)"><path stroke-linecap="butt" transform="matrix(0.744485, 0, 0, 0.744485, 223.690246, 14.285873)" fill="none" stroke-linejoin="miter" d="M 12.001249 -0.000963117 L 192.998784 -0.000963117 C 196.18366 -0.000963117 199.237364 1.263543 201.483043 3.514469 C 203.733969 5.765395 204.998475 8.819099 204.998475 11.998728 L 204.998475 67.002125 C 204.998475 73.628977 199.625636 79.001816 192.998784 79.001816 L 12.001249 79.001816 C 5.374397 79.001816 0.00155788 73.628977 0.00155788 67.002125 L 0.00155788 11.998728 C 0.00155788 5.371876 5.374397 -0.000963117 12.001249 -0.000963117 Z M 12.001249 -0.000963117 " stroke="#545454" stroke-width="4" stroke-opacity="1" stroke-miterlimit="4"/></g></g><g clip-path="url(#2016ecfd23)"><g clip-path="url(#6c2b1db70c)"><path stroke-linecap="butt" transform="matrix(0.744485, 0, 0, 0.744485, 223.690246, 60.816207)" fill="none" stroke-linejoin="miter" d="M 12.001249 0.000268186 L 192.998784 0.000268186 C 196.18366 0.000268186 199.237364 1.264774 201.483043 3.5157 C 203.733969 5.766626 204.998475 8.815083 204.998475 11.99996 L 204.998475 66.998109 C 204.998475 73.624961 199.625636 78.997801 192.998784 78.997801 L 12.001249 78.997801 C 5.374397 78.997801 0.00155788 73.624961 0.00155788 66.998109 L 0.00155788 11.99996 C 0.00155788 5.373108 5.374397 0.000268186 12.001249 0.000268186 Z M 12.001249 0.000268186 " stroke="#545454" stroke-width="4" stroke-opacity="1" stroke-miterlimit="4"/></g></g><g clip-path="url(#ba2dabc046)"><g clip-path="url(#b5c44bf53e)"><path stroke-linecap="butt" transform="matrix(0.744485, 0, 0, 0.744485, 430.657154, 37.596514)" fill="none" stroke-linejoin="miter" d="M 11.998477 0.00153486 L 193.001258 0.00153486 C 196.180888 0.00153486 199.234592 1.266041 201.485518 3.516967 C 203.736444 5.762646 205.00095 8.81635 205.00095 12.001226 L 205.00095 66.999376 C 205.00095 73.626228 199.62811 78.999067 193.001258 78.999067 L 11.998477 78.999067 C 5.371625 78.999067 -0.00121449 73.626228 -0.00121449 66.999376 L -0.00121449 12.001226 C -0.00121449 5.374374 5.371625 0.00153486 11.998477 0.00153486 Z M 11.998477 0.00153486 " stroke="#545454" stroke-width="4" stroke-opacity="1" stroke-miterlimit="4"/></g></g><g fill="#000000" fill-opacity="1"><g transform="translate(451.107234, 71.842836)"><g><path d="M 3.84375 0 L 0.515625 0 L 0.515625 -0.671875 L 1.59375 -0.90625 L 1.59375 -8.28125 L 0.515625 -8.546875 L 0.515625 -9.21875 L 3.84375 -9.21875 L 3.84375 -8.546875 L 2.765625 -8.28125 L 2.765625 -0.90625 L 3.84375 -0.671875 Z M 3.84375 0 "/></g></g></g><g fill="#000000" fill-opacity="1"><g transform="translate(455.478802, 71.842836)"><g><path d="M 5.8125 0 L 5.8125 -4.421875 C 5.8125 -4.984375 5.6875 -5.398438 5.4375 -5.671875 C 5.1875 -5.953125 4.796875 -6.09375 4.265625 -6.09375 C 3.546875 -6.09375 3.023438 -5.894531 2.703125 -5.5 C 2.390625 -5.113281 2.234375 -4.472656 2.234375 -3.578125 L 2.234375 0 L 1.09375 0 L 1.09375 -6.921875 L 2.015625 -6.921875 L 2.1875 -5.96875 L 2.25 -5.96875 C 2.457031 -6.3125 2.753906 -6.578125 3.140625 -6.765625 C 3.523438 -6.953125 3.953125 -7.046875 4.421875 -7.046875 C 5.273438 -7.046875 5.90625 -6.835938 6.3125 -6.421875 C 6.726562 -6.015625 6.9375 -5.375 6.9375 -4.5 L 6.9375 0 Z M 5.8125 0 "/></g></g></g><g fill="#000000" fill-opacity="1"><g transform="translate(463.453448, 71.842836)"><g><path d="M 3.875 0.125 C 2.875 0.125 2.097656 -0.175781 1.546875 -0.78125 C 0.992188 -1.394531 0.71875 -2.273438 0.71875 -3.421875 C 0.71875 -4.578125 0.992188 -5.46875 1.546875 -6.09375 C 2.109375 -6.726562 2.910156 -7.046875 3.953125 -7.046875 C 4.285156 -7.046875 4.613281 -7.007812 4.9375 -6.9375 C 5.269531 -6.875 5.546875 -6.785156 5.765625 -6.671875 L 5.421875 -5.734375 C 4.835938 -5.953125 4.335938 -6.0625 3.921875 -6.0625 C 3.222656 -6.0625 2.707031 -5.835938 2.375 -5.390625 C 2.050781 -4.953125 1.890625 -4.300781 1.890625 -3.4375 C 1.890625 -2.601562 2.050781 -1.960938 2.375 -1.515625 C 2.707031 -1.066406 3.203125 -0.84375 3.859375 -0.84375 C 4.460938 -0.84375 5.0625 -0.976562 5.65625 -1.25 L 5.65625 -0.25 C 5.175781 0 4.582031 0.125 3.875 0.125 Z M 3.875 0.125 "/></g></g></g><g fill="#000000" fill-opacity="1"><g transform="translate(469.645458, 71.842836)"><g><path d="M 2.234375 0 L 1.09375 0 L 1.09375 -6.921875 L 2.234375 -6.921875 Z M 1.015625 -8.796875 C 1.015625 -9.046875 1.078125 -9.226562 1.203125 -9.34375 C 1.328125 -9.457031 1.484375 -9.515625 1.671875 -9.515625 C 1.847656 -9.515625 2.003906 -9.457031 2.140625 -9.34375 C 2.273438 -9.226562 2.34375 -9.046875 2.34375 -8.796875 C 2.34375 -8.546875 2.273438 -8.359375 2.140625 -8.234375 C 2.003906 -8.117188 1.847656 -8.0625 1.671875 -8.0625 C 1.484375 -8.0625 1.328125 -8.117188 1.203125 -8.234375 C 1.078125 -8.359375 1.015625 -8.546875 1.015625 -8.796875 Z M 1.015625 -8.796875 "/></g></g></g><g fill="#000000" fill-opacity="1"><g transform="translate(472.971377, 71.842836)"><g><path d="M 3.546875 0.125 C 2.648438 0.125 1.953125 -0.179688 1.453125 -0.796875 C 0.960938 -1.421875 0.71875 -2.304688 0.71875 -3.453125 C 0.71875 -4.578125 0.960938 -5.457031 1.453125 -6.09375 C 1.953125 -6.726562 2.65625 -7.046875 3.5625 -7.046875 C 4.488281 -7.046875 5.203125 -6.707031 5.703125 -6.03125 L 5.78125 -6.03125 C 5.769531 -6.113281 5.753906 -6.28125 5.734375 -6.53125 C 5.710938 -6.78125 5.703125 -6.953125 5.703125 -7.046875 L 5.703125 -9.8125 L 6.84375 -9.8125 L 6.84375 0 L 5.921875 0 L 5.75 -0.921875 L 5.703125 -0.921875 C 5.222656 -0.222656 4.503906 0.125 3.546875 0.125 Z M 3.734375 -0.8125 C 4.421875 -0.8125 4.921875 -1 5.234375 -1.375 C 5.554688 -1.75 5.71875 -2.367188 5.71875 -3.234375 L 5.71875 -3.4375 C 5.71875 -4.394531 5.554688 -5.078125 5.234375 -5.484375 C 4.910156 -5.898438 4.40625 -6.109375 3.71875 -6.109375 C 3.132812 -6.109375 2.679688 -5.875 2.359375 -5.40625 C 2.046875 -4.945312 1.890625 -4.285156 1.890625 -3.421875 C 1.890625 -2.566406 2.046875 -1.914062 2.359375 -1.46875 C 2.671875 -1.03125 3.128906 -0.8125 3.734375 -0.8125 Z M 3.734375 -0.8125 "/></g></g></g><g fill="#000000" fill-opacity="1"><g transform="translate(480.908229, 71.842836)"><g><path d="M 4.046875 0.125 C 3.003906 0.125 2.1875 -0.1875 1.59375 -0.8125 C 1.007812 -1.445312 0.71875 -2.3125 0.71875 -3.40625 C 0.71875 -4.519531 0.988281 -5.40625 1.53125 -6.0625 C 2.082031 -6.71875 2.828125 -7.046875 3.765625 -7.046875 C 4.640625 -7.046875 5.332031 -6.765625 5.84375 -6.203125 C 6.363281 -5.640625 6.625 -4.878906 6.625 -3.921875 L 6.625 -3.234375 L 1.890625 -3.234375 C 1.910156 -2.453125 2.109375 -1.859375 2.484375 -1.453125 C 2.859375 -1.046875 3.394531 -0.84375 4.09375 -0.84375 C 4.457031 -0.84375 4.804688 -0.875 5.140625 -0.9375 C 5.472656 -1 5.863281 -1.125 6.3125 -1.3125 L 6.3125 -0.328125 C 5.925781 -0.160156 5.5625 -0.046875 5.21875 0.015625 C 4.882812 0.0859375 4.492188 0.125 4.046875 0.125 Z M 3.75 -6.125 C 3.207031 -6.125 2.78125 -5.945312 2.46875 -5.59375 C 2.15625 -5.25 1.96875 -4.765625 1.90625 -4.140625 L 5.4375 -4.140625 C 5.425781 -4.785156 5.273438 -5.273438 4.984375 -5.609375 C 4.691406 -5.953125 4.28125 -6.125 3.75 -6.125 Z M 3.75 -6.125 "/></g></g></g><g fill="#000000" fill-opacity="1"><g transform="translate(488.183683, 71.842836)"><g><path d="M 5.8125 0 L 5.8125 -4.421875 C 5.8125 -4.984375 5.6875 -5.398438 5.4375 -5.671875 C 5.1875 -5.953125 4.796875 -6.09375 4.265625 -6.09375 C 3.546875 -6.09375 3.023438 -5.894531 2.703125 -5.5 C 2.390625 -5.113281 2.234375 -4.472656 2.234375 -3.578125 L 2.234375 0 L 1.09375 0 L 1.09375 -6.921875 L 2.015625 -6.921875 L 2.1875 -5.96875 L 2.25 -5.96875 C 2.457031 -6.3125 2.753906 -6.578125 3.140625 -6.765625 C 3.523438 -6.953125 3.953125 -7.046875 4.421875 -7.046875 C 5.273438 -7.046875 5.90625 -6.835938 6.3125 -6.421875 C 6.726562 -6.015625 6.9375 -5.375 6.9375 -4.5 L 6.9375 0 Z M 5.8125 0 "/></g></g></g><g fill="#000000" fill-opacity="1"><g transform="translate(496.158329, 71.842836)"><g><path d="M 3.40625 -0.796875 C 3.550781 -0.796875 3.722656 -0.8125 3.921875 -0.84375 C 4.117188 -0.875 4.269531 -0.90625 4.375 -0.9375 L 4.375 -0.078125 C 4.269531 -0.0234375 4.101562 0.0195312 3.875 0.0625 C 3.65625 0.101562 3.4375 0.125 3.21875 0.125 C 1.863281 0.125 1.1875 -0.585938 1.1875 -2.015625 L 1.1875 -6.03125 L 0.203125 -6.03125 L 0.203125 -6.578125 L 1.203125 -7.03125 L 1.65625 -8.5 L 2.328125 -8.5 L 2.328125 -6.921875 L 4.328125 -6.921875 L 4.328125 -6.03125 L 2.328125 -6.03125 L 2.328125 -2.046875 C 2.328125 -1.640625 2.421875 -1.328125 2.609375 -1.109375 C 2.804688 -0.898438 3.070312 -0.796875 3.40625 -0.796875 Z M 3.40625 -0.796875 "/></g></g></g><g fill="#000000" fill-opacity="1"><g transform="translate(500.813361, 71.842836)"><g/></g></g><g fill="#000000" fill-opacity="1"><g transform="translate(504.164477, 71.842836)"><g><path d="M 2.40625 -4.796875 L 3.796875 -4.796875 C 4.546875 -4.796875 5.09375 -4.941406 5.4375 -5.234375 C 5.78125 -5.523438 5.953125 -5.960938 5.953125 -6.546875 C 5.953125 -7.117188 5.773438 -7.539062 5.421875 -7.8125 C 5.078125 -8.082031 4.515625 -8.21875 3.734375 -8.21875 L 2.40625 -8.21875 Z M 2.40625 -3.8125 L 2.40625 0 L 1.25 0 L 1.25 -9.21875 L 3.796875 -9.21875 C 4.941406 -9.21875 5.785156 -9 6.328125 -8.5625 C 6.878906 -8.125 7.15625 -7.46875 7.15625 -6.59375 C 7.15625 -5.375 6.539062 -4.550781 5.3125 -4.125 L 7.828125 0 L 6.484375 0 L 4.25 -3.8125 Z M 2.40625 -3.8125 "/></g></g></g><g fill="#000000" fill-opacity="1"><g transform="translate(512.189516, 71.842836)"><g><path d="M 4.046875 0.125 C 3.003906 0.125 2.1875 -0.1875 1.59375 -0.8125 C 1.007812 -1.445312 0.71875 -2.3125 0.71875 -3.40625 C 0.71875 -4.519531 0.988281 -5.40625 1.53125 -6.0625 C 2.082031 -6.71875 2.828125 -7.046875 3.765625 -7.046875 C 4.640625 -7.046875 5.332031 -6.765625 5.84375 -6.203125 C 6.363281 -5.640625 6.625 -4.878906 6.625 -3.921875 L 6.625 -3.234375 L 1.890625 -3.234375 C 1.910156 -2.453125 2.109375 -1.859375 2.484375 -1.453125 C 2.859375 -1.046875 3.394531 -0.84375 4.09375 -0.84375 C 4.457031 -0.84375 4.804688 -0.875 5.140625 -0.9375 C 5.472656 -1 5.863281 -1.125 6.3125 -1.3125 L 6.3125 -0.328125 C 5.925781 -0.160156 5.5625 -0.046875 5.21875 0.015625 C 4.882812 0.0859375 4.492188 0.125 4.046875 0.125 Z M 3.75 -6.125 C 3.207031 -6.125 2.78125 -5.945312 2.46875 -5.59375 C 2.15625 -5.25 1.96875 -4.765625 1.90625 -4.140625 L 5.4375 -4.140625 C 5.425781 -4.785156 5.273438 -5.273438 4.984375 -5.609375 C 4.691406 -5.953125 4.28125 -6.125 3.75 -6.125 Z M 3.75 -6.125 "/></g></g></g><g fill="#000000" fill-opacity="1"><g transform="translate(519.464969, 71.842836)"><g><path d="M 5.609375 -1.90625 C 5.609375 -1.257812 5.363281 -0.757812 4.875 -0.40625 C 4.394531 -0.0507812 3.71875 0.125 2.84375 0.125 C 1.925781 0.125 1.203125 -0.0195312 0.671875 -0.3125 L 0.671875 -1.34375 C 1.429688 -0.96875 2.164062 -0.78125 2.875 -0.78125 C 3.4375 -0.78125 3.847656 -0.875 4.109375 -1.0625 C 4.367188 -1.25 4.5 -1.5 4.5 -1.8125 C 4.5 -2.082031 4.375 -2.3125 4.125 -2.5 C 3.875 -2.6875 3.429688 -2.90625 2.796875 -3.15625 C 2.148438 -3.40625 1.691406 -3.617188 1.421875 -3.796875 C 1.160156 -3.972656 0.96875 -4.171875 0.84375 -4.390625 C 0.71875 -4.617188 0.65625 -4.894531 0.65625 -5.21875 C 0.65625 -5.78125 0.882812 -6.222656 1.34375 -6.546875 C 1.8125 -6.878906 2.445312 -7.046875 3.25 -7.046875 C 4.039062 -7.046875 4.773438 -6.890625 5.453125 -6.578125 L 5.078125 -5.671875 C 4.367188 -5.972656 3.734375 -6.125 3.171875 -6.125 C 2.703125 -6.125 2.34375 -6.046875 2.09375 -5.890625 C 1.851562 -5.742188 1.734375 -5.539062 1.734375 -5.28125 C 1.734375 -5.03125 1.835938 -4.820312 2.046875 -4.65625 C 2.265625 -4.488281 2.753906 -4.257812 3.515625 -3.96875 C 4.097656 -3.75 4.523438 -3.546875 4.796875 -3.359375 C 5.078125 -3.179688 5.28125 -2.972656 5.40625 -2.734375 C 5.539062 -2.503906 5.609375 -2.226562 5.609375 -1.90625 Z M 5.609375 -1.90625 "/></g></g></g><g fill="#000000" fill-opacity="1"><g transform="translate(525.644381, 71.842836)"><g><path d="M 4.375 0.125 C 3.445312 0.125 2.734375 -0.207031 2.234375 -0.875 L 2.15625 -0.875 L 2.1875 -0.625 C 2.21875 -0.289062 2.234375 0.00390625 2.234375 0.265625 L 2.234375 3.09375 L 1.09375 3.09375 L 1.09375 -6.921875 L 2.03125 -6.921875 L 2.1875 -5.96875 L 2.234375 -5.96875 C 2.503906 -6.351562 2.8125 -6.628906 3.15625 -6.796875 C 3.507812 -6.960938 3.921875 -7.046875 4.390625 -7.046875 C 5.285156 -7.046875 5.984375 -6.734375 6.484375 -6.109375 C 6.984375 -5.484375 7.234375 -4.601562 7.234375 -3.46875 C 7.234375 -2.34375 6.984375 -1.460938 6.484375 -0.828125 C 5.984375 -0.191406 5.28125 0.125 4.375 0.125 Z M 4.1875 -6.09375 C 3.5 -6.09375 3.003906 -5.898438 2.703125 -5.515625 C 2.398438 -5.128906 2.242188 -4.519531 2.234375 -3.6875 L 2.234375 -3.46875 C 2.234375 -2.53125 2.382812 -1.851562 2.6875 -1.4375 C 3 -1.019531 3.503906 -0.8125 4.203125 -0.8125 C 4.785156 -0.8125 5.238281 -1.046875 5.5625 -1.515625 C 5.894531 -1.984375 6.0625 -2.640625 6.0625 -3.484375 C 6.0625 -4.328125 5.894531 -4.972656 5.5625 -5.421875 C 5.238281 -5.867188 4.78125 -6.09375 4.1875 -6.09375 Z M 4.1875 -6.09375 "/></g></g></g><g fill="#000000" fill-opacity="1"><g transform="translate(533.581233, 71.842836)"><g><path d="M 7.109375 -3.46875 C 7.109375 -2.34375 6.820312 -1.460938 6.25 -0.828125 C 5.675781 -0.191406 4.882812 0.125 3.875 0.125 C 3.25 0.125 2.695312 -0.0195312 2.21875 -0.3125 C 1.738281 -0.601562 1.367188 -1.019531 1.109375 -1.5625 C 0.847656 -2.113281 0.71875 -2.75 0.71875 -3.46875 C 0.71875 -4.59375 1 -5.46875 1.5625 -6.09375 C 2.125 -6.726562 2.910156 -7.046875 3.921875 -7.046875 C 4.898438 -7.046875 5.675781 -6.722656 6.25 -6.078125 C 6.820312 -5.441406 7.109375 -4.570312 7.109375 -3.46875 Z M 1.890625 -3.46875 C 1.890625 -2.601562 2.054688 -1.941406 2.390625 -1.484375 C 2.734375 -1.035156 3.238281 -0.8125 3.90625 -0.8125 C 4.570312 -0.8125 5.078125 -1.035156 5.421875 -1.484375 C 5.765625 -1.941406 5.9375 -2.601562 5.9375 -3.46875 C 5.9375 -4.34375 5.757812 -5 5.40625 -5.4375 C 5.0625 -5.875 4.554688 -6.09375 3.890625 -6.09375 C 2.554688 -6.09375 1.890625 -5.21875 1.890625 -3.46875 Z M 1.890625 -3.46875 "/></g></g></g><g fill="#000000" fill-opacity="1"><g transform="translate(541.38581, 71.842836)"><g><path d="M 5.8125 0 L 5.8125 -4.421875 C 5.8125 -4.984375 5.6875 -5.398438 5.4375 -5.671875 C 5.1875 -5.953125 4.796875 -6.09375 4.265625 -6.09375 C 3.546875 -6.09375 3.023438 -5.894531 2.703125 -5.5 C 2.390625 -5.113281 2.234375 -4.472656 2.234375 -3.578125 L 2.234375 0 L 1.09375 0 L 1.09375 -6.921875 L 2.015625 -6.921875 L 2.1875 -5.96875 L 2.25 -5.96875 C 2.457031 -6.3125 2.753906 -6.578125 3.140625 -6.765625 C 3.523438 -6.953125 3.953125 -7.046875 4.421875 -7.046875 C 5.273438 -7.046875 5.90625 -6.835938 6.3125 -6.421875 C 6.726562 -6.015625 6.9375 -5.375 6.9375 -4.5 L 6.9375 0 Z M 5.8125 0 "/></g></g></g><g fill="#000000" fill-opacity="1"><g transform="translate(549.360456, 71.842836)"><g><path d="M 5.609375 -1.90625 C 5.609375 -1.257812 5.363281 -0.757812 4.875 -0.40625 C 4.394531 -0.0507812 3.71875 0.125 2.84375 0.125 C 1.925781 0.125 1.203125 -0.0195312 0.671875 -0.3125 L 0.671875 -1.34375 C 1.429688 -0.96875 2.164062 -0.78125 2.875 -0.78125 C 3.4375 -0.78125 3.847656 -0.875 4.109375 -1.0625 C 4.367188 -1.25 4.5 -1.5 4.5 -1.8125 C 4.5 -2.082031 4.375 -2.3125 4.125 -2.5 C 3.875 -2.6875 3.429688 -2.90625 2.796875 -3.15625 C 2.148438 -3.40625 1.691406 -3.617188 1.421875 -3.796875 C 1.160156 -3.972656 0.96875 -4.171875 0.84375 -4.390625 C 0.71875 -4.617188 0.65625 -4.894531 0.65625 -5.21875 C 0.65625 -5.78125 0.882812 -6.222656 1.34375 -6.546875 C 1.8125 -6.878906 2.445312 -7.046875 3.25 -7.046875 C 4.039062 -7.046875 4.773438 -6.890625 5.453125 -6.578125 L 5.078125 -5.671875 C 4.367188 -5.972656 3.734375 -6.125 3.171875 -6.125 C 2.703125 -6.125 2.34375 -6.046875 2.09375 -5.890625 C 1.851562 -5.742188 1.734375 -5.539062 1.734375 -5.28125 C 1.734375 -5.03125 1.835938 -4.820312 2.046875 -4.65625 C 2.265625 -4.488281 2.753906 -4.257812 3.515625 -3.96875 C 4.097656 -3.75 4.523438 -3.546875 4.796875 -3.359375 C 5.078125 -3.179688 5.28125 -2.972656 5.40625 -2.734375 C 5.539062 -2.503906 5.609375 -2.226562 5.609375 -1.90625 Z M 5.609375 -1.90625 "/></g></g></g><g fill="#000000" fill-opacity="1"><g transform="translate(555.539868, 71.842836)"><g><path d="M 4.046875 0.125 C 3.003906 0.125 2.1875 -0.1875 1.59375 -0.8125 C 1.007812 -1.445312 0.71875 -2.3125 0.71875 -3.40625 C 0.71875 -4.519531 0.988281 -5.40625 1.53125 -6.0625 C 2.082031 -6.71875 2.828125 -7.046875 3.765625 -7.046875 C 4.640625 -7.046875 5.332031 -6.765625 5.84375 -6.203125 C 6.363281 -5.640625 6.625 -4.878906 6.625 -3.921875 L 6.625 -3.234375 L 1.890625 -3.234375 C 1.910156 -2.453125 2.109375 -1.859375 2.484375 -1.453125 C 2.859375 -1.046875 3.394531 -0.84375 4.09375 -0.84375 C 4.457031 -0.84375 4.804688 -0.875 5.140625 -0.9375 C 5.472656 -1 5.863281 -1.125 6.3125 -1.3125 L 6.3125 -0.328125 C 5.925781 -0.160156 5.5625 -0.046875 5.21875 0.015625 C 4.882812 0.0859375 4.492188 0.125 4.046875 0.125 Z M 3.75 -6.125 C 3.207031 -6.125 2.78125 -5.945312 2.46875 -5.59375 C 2.15625 -5.25 1.96875 -4.765625 1.90625 -4.140625 L 5.4375 -4.140625 C 5.425781 -4.785156 5.273438 -5.273438 4.984375 -5.609375 C 4.691406 -5.953125 4.28125 -6.125 3.75 -6.125 Z M 3.75 -6.125 "/></g></g></g><g clip-path="url(#d665620a91)"><g clip-path="url(#c9640e86cc)"><g clip-path="url(#5a16af2a8f)"><g clip-path="url(#4e9286a8f9)"><path fill="#000000" d="M 424.566406 67.691406 C 423.328125 68.476562 422.113281 69.335938 420.871094 70.121094 C 420.46875 70.378906 420.351562 70.910156 420.601562 71.3125 C 420.855469 71.714844 421.382812 71.824219 421.785156 71.566406 C 423.160156 70.679688 424.507812 69.722656 425.894531 68.867188 C 426.648438 68.394531 427.667969 68.039062 428.328125 67.453125 C 428.6875 67.121094 428.304688 66.121094 428.304688 66.121094 C 428.304688 66.121094 428.367188 66.1875 428.394531 66.214844 C 428.121094 65.863281 427.738281 65.597656 427.308594 65.414062 C 426.835938 65.195312 426.304688 65.066406 425.875 64.902344 C 424.464844 64.320312 423.296875 63.433594 422.070312 62.550781 C 421.695312 62.277344 421.15625 62.367188 420.882812 62.753906 C 420.605469 63.132812 420.6875 63.671875 421.066406 63.9375 C 422.101562 64.679688 423.113281 65.429688 424.238281 66.019531 C 419.96875 66.308594 416.363281 65.371094 413.535156 63.3125 C 410.316406 60.960938 408.089844 57.183594 406.953125 52.230469 C 406.09375 48.507812 405.953125 44.667969 404.667969 41.027344 C 403.011719 36.34375 399.835938 32.367188 396.292969 28.976562 C 391.59375 24.472656 386.070312 22.632812 379.613281 23.070312 C 379.140625 23.101562 378.777344 23.515625 378.808594 23.976562 C 378.828125 24.445312 379.234375 24.804688 379.707031 24.777344 C 385.675781 24.367188 390.78125 26.066406 395.109375 30.210938 C 398.457031 33.421875 401.492188 37.175781 403.0625 41.613281 C 404.324219 45.179688 404.4375 48.964844 405.292969 52.632812 C 406.527344 58.03125 408.984375 62.125 412.507812 64.691406 C 415.6875 66.988281 419.726562 68.066406 424.566406 67.691406 Z M 424.566406 67.691406 " fill-opacity="1" fill-rule="evenodd"/></g></g></g></g><g clip-path="url(#a388331c69)"><g clip-path="url(#8e0eac078f)"><g clip-path="url(#315f76d257)"><g clip-path="url(#55ac227de5)"><path fill="#000000" d="M 424.59375 66.386719 C 423.359375 65.59375 422.148438 64.730469 420.910156 63.941406 C 420.507812 63.683594 420.394531 63.148438 420.644531 62.75 C 420.898438 62.347656 421.429688 62.242188 421.832031 62.5 C 423.199219 63.390625 424.546875 64.355469 425.925781 65.214844 C 426.679688 65.691406 427.699219 66.050781 428.355469 66.640625 C 428.714844 66.972656 428.324219 67.972656 428.324219 67.972656 C 428.324219 67.972656 428.390625 67.902344 428.417969 67.878906 C 428.144531 68.230469 427.761719 68.492188 427.328125 68.675781 C 426.855469 68.890625 426.324219 69.019531 425.894531 69.183594 C 424.480469 69.757812 423.308594 70.640625 422.078125 71.515625 C 421.703125 71.789062 421.164062 71.699219 420.894531 71.308594 C 420.613281 70.929688 420.699219 70.390625 421.082031 70.125 C 422.121094 69.390625 423.132812 68.640625 424.261719 68.058594 C 419.992188 67.75 416.382812 68.675781 413.546875 70.722656 C 410.316406 73.0625 408.078125 76.828125 406.917969 81.777344 C 406.046875 85.496094 405.890625 89.335938 404.589844 92.972656 C 402.914062 97.648438 399.722656 101.613281 396.167969 104.988281 C 391.453125 109.476562 385.921875 111.292969 379.464844 110.824219 C 378.992188 110.796875 378.632812 110.378906 378.664062 109.917969 C 378.683594 109.449219 379.09375 109.09375 379.566406 109.121094 C 385.535156 109.558594 390.644531 107.875 394.988281 103.75 C 398.351562 100.550781 401.398438 96.8125 402.988281 92.378906 C 404.261719 88.816406 404.394531 85.03125 405.261719 81.371094 C 406.515625 75.976562 408.992188 71.894531 412.523438 69.339844 C 415.710938 67.054688 419.757812 65.992188 424.59375 66.386719 Z M 424.59375 66.386719 " fill-opacity="1" fill-rule="evenodd"/></g></g></g></g><g fill="#000000" fill-opacity="1"><g transform="translate(253.85897, 42.017951)"><g><path d="M 4.171875 0 L 3 0 L 3 -8.1875 L 0.125 -8.1875 L 0.125 -9.21875 L 7.03125 -9.21875 L 7.03125 -8.1875 L 4.171875 -8.1875 Z M 4.171875 0 "/></g></g></g><g fill="#000000" fill-opacity="1"><g transform="translate(261.033638, 42.017951)"><g><path d="M 5.8125 0 L 5.8125 -4.421875 C 5.8125 -4.984375 5.6875 -5.398438 5.4375 -5.671875 C 5.1875 -5.953125 4.796875 -6.09375 4.265625 -6.09375 C 3.554688 -6.09375 3.039062 -5.894531 2.71875 -5.5 C 2.394531 -5.113281 2.234375 -4.472656 2.234375 -3.578125 L 2.234375 0 L 1.09375 0 L 1.09375 -9.8125 L 2.234375 -9.8125 L 2.234375 -6.9375 C 2.234375 -6.550781 2.210938 -6.226562 2.171875 -5.96875 L 2.25 -5.96875 C 2.445312 -6.300781 2.734375 -6.5625 3.109375 -6.75 C 3.492188 -6.9375 3.925781 -7.03125 4.40625 -7.03125 C 5.238281 -7.03125 5.867188 -6.828125 6.296875 -6.421875 C 6.722656 -6.023438 6.9375 -5.382812 6.9375 -4.5 L 6.9375 0 Z M 5.8125 0 "/></g></g></g><g fill="#000000" fill-opacity="1"><g transform="translate(269.008285, 42.017951)"><g><path d="M 4.328125 -7.046875 C 4.628906 -7.046875 4.898438 -7.019531 5.140625 -6.96875 L 5 -5.921875 C 4.738281 -5.984375 4.488281 -6.015625 4.25 -6.015625 C 3.882812 -6.015625 3.546875 -5.910156 3.234375 -5.703125 C 2.921875 -5.503906 2.675781 -5.226562 2.5 -4.875 C 2.320312 -4.519531 2.234375 -4.125 2.234375 -3.6875 L 2.234375 0 L 1.09375 0 L 1.09375 -6.921875 L 2.03125 -6.921875 L 2.15625 -5.65625 L 2.203125 -5.65625 C 2.472656 -6.113281 2.785156 -6.457031 3.140625 -6.6875 C 3.503906 -6.925781 3.898438 -7.046875 4.328125 -7.046875 Z M 4.328125 -7.046875 "/></g></g></g><g fill="#000000" fill-opacity="1"><g transform="translate(274.211321, 42.017951)"><g><path d="M 4.046875 0.125 C 3.003906 0.125 2.1875 -0.1875 1.59375 -0.8125 C 1.007812 -1.445312 0.71875 -2.3125 0.71875 -3.40625 C 0.71875 -4.519531 0.988281 -5.40625 1.53125 -6.0625 C 2.082031 -6.71875 2.828125 -7.046875 3.765625 -7.046875 C 4.640625 -7.046875 5.332031 -6.765625 5.84375 -6.203125 C 6.363281 -5.640625 6.625 -4.878906 6.625 -3.921875 L 6.625 -3.234375 L 1.890625 -3.234375 C 1.910156 -2.453125 2.109375 -1.859375 2.484375 -1.453125 C 2.859375 -1.046875 3.394531 -0.84375 4.09375 -0.84375 C 4.457031 -0.84375 4.804688 -0.875 5.140625 -0.9375 C 5.472656 -1 5.863281 -1.125 6.3125 -1.3125 L 6.3125 -0.328125 C 5.925781 -0.160156 5.5625 -0.046875 5.21875 0.015625 C 4.882812 0.0859375 4.492188 0.125 4.046875 0.125 Z M 3.75 -6.125 C 3.207031 -6.125 2.78125 -5.945312 2.46875 -5.59375 C 2.15625 -5.25 1.96875 -4.765625 1.90625 -4.140625 L 5.4375 -4.140625 C 5.425781 -4.785156 5.273438 -5.273438 4.984375 -5.609375 C 4.691406 -5.953125 4.28125 -6.125 3.75 -6.125 Z M 3.75 -6.125 "/></g></g></g><g fill="#000000" fill-opacity="1"><g transform="translate(281.486774, 42.017951)"><g><path d="M 5.375 0 L 5.15625 -0.984375 L 5.09375 -0.984375 C 4.75 -0.546875 4.40625 -0.25 4.0625 -0.09375 C 3.71875 0.0507812 3.285156 0.125 2.765625 0.125 C 2.085938 0.125 1.554688 -0.0507812 1.171875 -0.40625 C 0.785156 -0.757812 0.59375 -1.265625 0.59375 -1.921875 C 0.59375 -3.328125 1.695312 -4.0625 3.90625 -4.125 L 5.078125 -4.171875 L 5.078125 -4.578125 C 5.078125 -5.109375 4.960938 -5.5 4.734375 -5.75 C 4.515625 -6 4.15625 -6.125 3.65625 -6.125 C 3.289062 -6.125 2.941406 -6.066406 2.609375 -5.953125 C 2.285156 -5.847656 1.984375 -5.726562 1.703125 -5.59375 L 1.359375 -6.4375 C 1.703125 -6.625 2.078125 -6.769531 2.484375 -6.875 C 2.898438 -6.976562 3.3125 -7.03125 3.71875 -7.03125 C 4.550781 -7.03125 5.171875 -6.84375 5.578125 -6.46875 C 5.984375 -6.101562 6.1875 -5.519531 6.1875 -4.71875 L 6.1875 0 Z M 3.03125 -0.78125 C 3.664062 -0.78125 4.164062 -0.953125 4.53125 -1.296875 C 4.894531 -1.640625 5.078125 -2.128906 5.078125 -2.765625 L 5.078125 -3.390625 L 4.046875 -3.34375 C 3.253906 -3.3125 2.675781 -3.179688 2.3125 -2.953125 C 1.945312 -2.734375 1.765625 -2.382812 1.765625 -1.90625 C 1.765625 -1.550781 1.875 -1.273438 2.09375 -1.078125 C 2.320312 -0.878906 2.632812 -0.78125 3.03125 -0.78125 Z M 3.03125 -0.78125 "/></g></g></g><g fill="#000000" fill-opacity="1"><g transform="translate(288.724433, 42.017951)"><g><path d="M 3.40625 -0.796875 C 3.550781 -0.796875 3.722656 -0.8125 3.921875 -0.84375 C 4.117188 -0.875 4.269531 -0.90625 4.375 -0.9375 L 4.375 -0.078125 C 4.269531 -0.0234375 4.101562 0.0195312 3.875 0.0625 C 3.65625 0.101562 3.4375 0.125 3.21875 0.125 C 1.863281 0.125 1.1875 -0.585938 1.1875 -2.015625 L 1.1875 -6.03125 L 0.203125 -6.03125 L 0.203125 -6.578125 L 1.203125 -7.03125 L 1.65625 -8.5 L 2.328125 -8.5 L 2.328125 -6.921875 L 4.328125 -6.921875 L 4.328125 -6.03125 L 2.328125 -6.03125 L 2.328125 -2.046875 C 2.328125 -1.640625 2.421875 -1.328125 2.609375 -1.109375 C 2.804688 -0.898438 3.070312 -0.796875 3.40625 -0.796875 Z M 3.40625 -0.796875 "/></g></g></g><g fill="#000000" fill-opacity="1"><g transform="translate(293.379465, 42.017951)"><g/></g></g><g fill="#000000" fill-opacity="1"><g transform="translate(296.73058, 42.017951)"><g><path d="M 8.296875 0 L 7.140625 0 L 7.140625 -4.296875 L 2.40625 -4.296875 L 2.40625 0 L 1.25 0 L 1.25 -9.21875 L 2.40625 -9.21875 L 2.40625 -5.3125 L 7.140625 -5.3125 L 7.140625 -9.21875 L 8.296875 -9.21875 Z M 8.296875 0 "/></g></g></g><g fill="#000000" fill-opacity="1"><g transform="translate(306.292597, 42.017951)"><g><path d="M 2.171875 -6.921875 L 2.171875 -2.46875 C 2.171875 -1.90625 2.296875 -1.488281 2.546875 -1.21875 C 2.796875 -0.945312 3.179688 -0.8125 3.703125 -0.8125 C 4.410156 -0.8125 4.925781 -1.007812 5.25 -1.40625 C 5.570312 -1.800781 5.734375 -2.4375 5.734375 -3.3125 L 5.734375 -6.921875 L 6.875 -6.921875 L 6.875 0 L 5.953125 0 L 5.78125 -0.90625 L 5.734375 -0.90625 C 5.523438 -0.582031 5.226562 -0.328125 4.84375 -0.140625 C 4.46875 0.0351562 4.03125 0.125 3.53125 0.125 C 2.695312 0.125 2.066406 -0.0703125 1.640625 -0.46875 C 1.222656 -0.875 1.015625 -1.515625 1.015625 -2.390625 L 1.015625 -6.921875 Z M 2.171875 -6.921875 "/></g></g></g><g fill="#000000" fill-opacity="1"><g transform="translate(314.267244, 42.017951)"><g><path d="M 5.8125 0 L 5.8125 -4.421875 C 5.8125 -4.984375 5.6875 -5.398438 5.4375 -5.671875 C 5.1875 -5.953125 4.796875 -6.09375 4.265625 -6.09375 C 3.546875 -6.09375 3.023438 -5.894531 2.703125 -5.5 C 2.390625 -5.113281 2.234375 -4.472656 2.234375 -3.578125 L 2.234375 0 L 1.09375 0 L 1.09375 -6.921875 L 2.015625 -6.921875 L 2.1875 -5.96875 L 2.25 -5.96875 C 2.457031 -6.3125 2.753906 -6.578125 3.140625 -6.765625 C 3.523438 -6.953125 3.953125 -7.046875 4.421875 -7.046875 C 5.273438 -7.046875 5.90625 -6.835938 6.3125 -6.421875 C 6.726562 -6.015625 6.9375 -5.375 6.9375 -4.5 L 6.9375 0 Z M 5.8125 0 "/></g></g></g><g fill="#000000" fill-opacity="1"><g transform="translate(322.24189, 42.017951)"><g><path d="M 3.40625 -0.796875 C 3.550781 -0.796875 3.722656 -0.8125 3.921875 -0.84375 C 4.117188 -0.875 4.269531 -0.90625 4.375 -0.9375 L 4.375 -0.078125 C 4.269531 -0.0234375 4.101562 0.0195312 3.875 0.0625 C 3.65625 0.101562 3.4375 0.125 3.21875 0.125 C 1.863281 0.125 1.1875 -0.585938 1.1875 -2.015625 L 1.1875 -6.03125 L 0.203125 -6.03125 L 0.203125 -6.578125 L 1.203125 -7.03125 L 1.65625 -8.5 L 2.328125 -8.5 L 2.328125 -6.921875 L 4.328125 -6.921875 L 4.328125 -6.03125 L 2.328125 -6.03125 L 2.328125 -2.046875 C 2.328125 -1.640625 2.421875 -1.328125 2.609375 -1.109375 C 2.804688 -0.898438 3.070312 -0.796875 3.40625 -0.796875 Z M 3.40625 -0.796875 "/></g></g></g><g fill="#000000" fill-opacity="1"><g transform="translate(326.896922, 42.017951)"><g><path d="M 2.234375 0 L 1.09375 0 L 1.09375 -6.921875 L 2.234375 -6.921875 Z M 1.015625 -8.796875 C 1.015625 -9.046875 1.078125 -9.226562 1.203125 -9.34375 C 1.328125 -9.457031 1.484375 -9.515625 1.671875 -9.515625 C 1.847656 -9.515625 2.003906 -9.457031 2.140625 -9.34375 C 2.273438 -9.226562 2.34375 -9.046875 2.34375 -8.796875 C 2.34375 -8.546875 2.273438 -8.359375 2.140625 -8.234375 C 2.003906 -8.117188 1.847656 -8.0625 1.671875 -8.0625 C 1.484375 -8.0625 1.328125 -8.117188 1.203125 -8.234375 C 1.078125 -8.359375 1.015625 -8.546875 1.015625 -8.796875 Z M 1.015625 -8.796875 "/></g></g></g><g fill="#000000" fill-opacity="1"><g transform="translate(330.222841, 42.017951)"><g><path d="M 5.8125 0 L 5.8125 -4.421875 C 5.8125 -4.984375 5.6875 -5.398438 5.4375 -5.671875 C 5.1875 -5.953125 4.796875 -6.09375 4.265625 -6.09375 C 3.546875 -6.09375 3.023438 -5.894531 2.703125 -5.5 C 2.390625 -5.113281 2.234375 -4.472656 2.234375 -3.578125 L 2.234375 0 L 1.09375 0 L 1.09375 -6.921875 L 2.015625 -6.921875 L 2.1875 -5.96875 L 2.25 -5.96875 C 2.457031 -6.3125 2.753906 -6.578125 3.140625 -6.765625 C 3.523438 -6.953125 3.953125 -7.046875 4.421875 -7.046875 C 5.273438 -7.046875 5.90625 -6.835938 6.3125 -6.421875 C 6.726562 -6.015625 6.9375 -5.375 6.9375 -4.5 L 6.9375 0 Z M 5.8125 0 "/></g></g></g><g fill="#000000" fill-opacity="1"><g transform="translate(338.197488, 42.017951)"><g><path d="M 3.734375 -0.796875 C 4.429688 -0.796875 4.9375 -0.984375 5.25 -1.359375 C 5.570312 -1.734375 5.734375 -2.335938 5.734375 -3.171875 L 5.734375 -3.453125 C 5.734375 -4.367188 5.570312 -5.035156 5.25 -5.453125 C 4.925781 -5.878906 4.410156 -6.09375 3.703125 -6.09375 C 3.117188 -6.09375 2.671875 -5.863281 2.359375 -5.40625 C 2.046875 -4.945312 1.890625 -4.289062 1.890625 -3.4375 C 1.890625 -2.582031 2.039062 -1.925781 2.34375 -1.46875 C 2.65625 -1.019531 3.117188 -0.796875 3.734375 -0.796875 Z M 5.71875 -0.0625 L 5.75 -0.90625 L 5.703125 -0.90625 C 5.234375 -0.21875 4.519531 0.125 3.5625 0.125 C 2.664062 0.125 1.96875 -0.1875 1.46875 -0.8125 C 0.96875 -1.4375 0.71875 -2.316406 0.71875 -3.453125 C 0.71875 -4.554688 0.96875 -5.429688 1.46875 -6.078125 C 1.976562 -6.722656 2.671875 -7.046875 3.546875 -7.046875 C 4.484375 -7.046875 5.207031 -6.695312 5.71875 -6 L 5.78125 -6 L 5.9375 -6.921875 L 6.84375 -6.921875 L 6.84375 0.109375 C 6.84375 1.097656 6.585938 1.84375 6.078125 2.34375 C 5.578125 2.84375 4.800781 3.09375 3.75 3.09375 C 2.738281 3.09375 1.90625 2.945312 1.25 2.65625 L 1.25 1.609375 C 1.925781 1.972656 2.78125 2.15625 3.8125 2.15625 C 4.394531 2.15625 4.859375 1.984375 5.203125 1.640625 C 5.546875 1.296875 5.71875 0.816406 5.71875 0.203125 Z M 5.71875 -0.0625 "/></g></g></g><g fill="#000000" fill-opacity="1"><g transform="translate(232.277827, 100.832286)"><g><path d="M 8.640625 -4.6875 C 8.640625 -3.164062 8.222656 -2.003906 7.390625 -1.203125 C 6.554688 -0.398438 5.363281 0 3.8125 0 L 1.25 0 L 1.25 -9.21875 L 4.09375 -9.21875 C 5.519531 -9.21875 6.632812 -8.820312 7.4375 -8.03125 C 8.238281 -7.238281 8.640625 -6.125 8.640625 -4.6875 Z M 7.40625 -4.65625 C 7.40625 -5.832031 7.113281 -6.71875 6.53125 -7.3125 C 5.957031 -7.914062 5.085938 -8.21875 3.921875 -8.21875 L 2.40625 -8.21875 L 2.40625 -1 L 3.671875 -1 C 6.160156 -1 7.40625 -2.21875 7.40625 -4.65625 Z M 7.40625 -4.65625 "/></g></g></g><g fill="#000000" fill-opacity="1"><g transform="translate(241.69497, 100.832286)"><g><path d="M 4.046875 0.125 C 3.003906 0.125 2.1875 -0.1875 1.59375 -0.8125 C 1.007812 -1.445312 0.71875 -2.3125 0.71875 -3.40625 C 0.71875 -4.519531 0.988281 -5.40625 1.53125 -6.0625 C 2.082031 -6.71875 2.828125 -7.046875 3.765625 -7.046875 C 4.640625 -7.046875 5.332031 -6.765625 5.84375 -6.203125 C 6.363281 -5.640625 6.625 -4.878906 6.625 -3.921875 L 6.625 -3.234375 L 1.890625 -3.234375 C 1.910156 -2.453125 2.109375 -1.859375 2.484375 -1.453125 C 2.859375 -1.046875 3.394531 -0.84375 4.09375 -0.84375 C 4.457031 -0.84375 4.804688 -0.875 5.140625 -0.9375 C 5.472656 -1 5.863281 -1.125 6.3125 -1.3125 L 6.3125 -0.328125 C 5.925781 -0.160156 5.5625 -0.046875 5.21875 0.015625 C 4.882812 0.0859375 4.492188 0.125 4.046875 0.125 Z M 3.75 -6.125 C 3.207031 -6.125 2.78125 -5.945312 2.46875 -5.59375 C 2.15625 -5.25 1.96875 -4.765625 1.90625 -4.140625 L 5.4375 -4.140625 C 5.425781 -4.785156 5.273438 -5.273438 4.984375 -5.609375 C 4.691406 -5.953125 4.28125 -6.125 3.75 -6.125 Z M 3.75 -6.125 "/></g></g></g><g fill="#000000" fill-opacity="1"><g transform="translate(248.970423, 100.832286)"><g><path d="M 3.40625 -0.796875 C 3.550781 -0.796875 3.722656 -0.8125 3.921875 -0.84375 C 4.117188 -0.875 4.269531 -0.90625 4.375 -0.9375 L 4.375 -0.078125 C 4.269531 -0.0234375 4.101562 0.0195312 3.875 0.0625 C 3.65625 0.101562 3.4375 0.125 3.21875 0.125 C 1.863281 0.125 1.1875 -0.585938 1.1875 -2.015625 L 1.1875 -6.03125 L 0.203125 -6.03125 L 0.203125 -6.578125 L 1.203125 -7.03125 L 1.65625 -8.5 L 2.328125 -8.5 L 2.328125 -6.921875 L 4.328125 -6.921875 L 4.328125 -6.03125 L 2.328125 -6.03125 L 2.328125 -2.046875 C 2.328125 -1.640625 2.421875 -1.328125 2.609375 -1.109375 C 2.804688 -0.898438 3.070312 -0.796875 3.40625 -0.796875 Z M 3.40625 -0.796875 "/></g></g></g><g fill="#000000" fill-opacity="1"><g transform="translate(253.625456, 100.832286)"><g><path d="M 4.046875 0.125 C 3.003906 0.125 2.1875 -0.1875 1.59375 -0.8125 C 1.007812 -1.445312 0.71875 -2.3125 0.71875 -3.40625 C 0.71875 -4.519531 0.988281 -5.40625 1.53125 -6.0625 C 2.082031 -6.71875 2.828125 -7.046875 3.765625 -7.046875 C 4.640625 -7.046875 5.332031 -6.765625 5.84375 -6.203125 C 6.363281 -5.640625 6.625 -4.878906 6.625 -3.921875 L 6.625 -3.234375 L 1.890625 -3.234375 C 1.910156 -2.453125 2.109375 -1.859375 2.484375 -1.453125 C 2.859375 -1.046875 3.394531 -0.84375 4.09375 -0.84375 C 4.457031 -0.84375 4.804688 -0.875 5.140625 -0.9375 C 5.472656 -1 5.863281 -1.125 6.3125 -1.3125 L 6.3125 -0.328125 C 5.925781 -0.160156 5.5625 -0.046875 5.21875 0.015625 C 4.882812 0.0859375 4.492188 0.125 4.046875 0.125 Z M 3.75 -6.125 C 3.207031 -6.125 2.78125 -5.945312 2.46875 -5.59375 C 2.15625 -5.25 1.96875 -4.765625 1.90625 -4.140625 L 5.4375 -4.140625 C 5.425781 -4.785156 5.273438 -5.273438 4.984375 -5.609375 C 4.691406 -5.953125 4.28125 -6.125 3.75 -6.125 Z M 3.75 -6.125 "/></g></g></g><g fill="#000000" fill-opacity="1"><g transform="translate(260.900909, 100.832286)"><g><path d="M 3.875 0.125 C 2.875 0.125 2.097656 -0.175781 1.546875 -0.78125 C 0.992188 -1.394531 0.71875 -2.273438 0.71875 -3.421875 C 0.71875 -4.578125 0.992188 -5.46875 1.546875 -6.09375 C 2.109375 -6.726562 2.910156 -7.046875 3.953125 -7.046875 C 4.285156 -7.046875 4.613281 -7.007812 4.9375 -6.9375 C 5.269531 -6.875 5.546875 -6.785156 5.765625 -6.671875 L 5.421875 -5.734375 C 4.835938 -5.953125 4.335938 -6.0625 3.921875 -6.0625 C 3.222656 -6.0625 2.707031 -5.835938 2.375 -5.390625 C 2.050781 -4.953125 1.890625 -4.300781 1.890625 -3.4375 C 1.890625 -2.601562 2.050781 -1.960938 2.375 -1.515625 C 2.707031 -1.066406 3.203125 -0.84375 3.859375 -0.84375 C 4.460938 -0.84375 5.0625 -0.976562 5.65625 -1.25 L 5.65625 -0.25 C 5.175781 0 4.582031 0.125 3.875 0.125 Z M 3.875 0.125 "/></g></g></g><g fill="#000000" fill-opacity="1"><g transform="translate(267.092919, 100.832286)"><g><path d="M 3.40625 -0.796875 C 3.550781 -0.796875 3.722656 -0.8125 3.921875 -0.84375 C 4.117188 -0.875 4.269531 -0.90625 4.375 -0.9375 L 4.375 -0.078125 C 4.269531 -0.0234375 4.101562 0.0195312 3.875 0.0625 C 3.65625 0.101562 3.4375 0.125 3.21875 0.125 C 1.863281 0.125 1.1875 -0.585938 1.1875 -2.015625 L 1.1875 -6.03125 L 0.203125 -6.03125 L 0.203125 -6.578125 L 1.203125 -7.03125 L 1.65625 -8.5 L 2.328125 -8.5 L 2.328125 -6.921875 L 4.328125 -6.921875 L 4.328125 -6.03125 L 2.328125 -6.03125 L 2.328125 -2.046875 C 2.328125 -1.640625 2.421875 -1.328125 2.609375 -1.109375 C 2.804688 -0.898438 3.070312 -0.796875 3.40625 -0.796875 Z M 3.40625 -0.796875 "/></g></g></g><g fill="#000000" fill-opacity="1"><g transform="translate(271.747951, 100.832286)"><g><path d="M 2.234375 0 L 1.09375 0 L 1.09375 -6.921875 L 2.234375 -6.921875 Z M 1.015625 -8.796875 C 1.015625 -9.046875 1.078125 -9.226562 1.203125 -9.34375 C 1.328125 -9.457031 1.484375 -9.515625 1.671875 -9.515625 C 1.847656 -9.515625 2.003906 -9.457031 2.140625 -9.34375 C 2.273438 -9.226562 2.34375 -9.046875 2.34375 -8.796875 C 2.34375 -8.546875 2.273438 -8.359375 2.140625 -8.234375 C 2.003906 -8.117188 1.847656 -8.0625 1.671875 -8.0625 C 1.484375 -8.0625 1.328125 -8.117188 1.203125 -8.234375 C 1.078125 -8.359375 1.015625 -8.546875 1.015625 -8.796875 Z M 1.015625 -8.796875 "/></g></g></g><g fill="#000000" fill-opacity="1"><g transform="translate(275.07387, 100.832286)"><g><path d="M 7.109375 -3.46875 C 7.109375 -2.34375 6.820312 -1.460938 6.25 -0.828125 C 5.675781 -0.191406 4.882812 0.125 3.875 0.125 C 3.25 0.125 2.695312 -0.0195312 2.21875 -0.3125 C 1.738281 -0.601562 1.367188 -1.019531 1.109375 -1.5625 C 0.847656 -2.113281 0.71875 -2.75 0.71875 -3.46875 C 0.71875 -4.59375 1 -5.46875 1.5625 -6.09375 C 2.125 -6.726562 2.910156 -7.046875 3.921875 -7.046875 C 4.898438 -7.046875 5.675781 -6.722656 6.25 -6.078125 C 6.820312 -5.441406 7.109375 -4.570312 7.109375 -3.46875 Z M 1.890625 -3.46875 C 1.890625 -2.601562 2.054688 -1.941406 2.390625 -1.484375 C 2.734375 -1.035156 3.238281 -0.8125 3.90625 -0.8125 C 4.570312 -0.8125 5.078125 -1.035156 5.421875 -1.484375 C 5.765625 -1.941406 5.9375 -2.601562 5.9375 -3.46875 C 5.9375 -4.34375 5.757812 -5 5.40625 -5.4375 C 5.0625 -5.875 4.554688 -6.09375 3.890625 -6.09375 C 2.554688 -6.09375 1.890625 -5.21875 1.890625 -3.46875 Z M 1.890625 -3.46875 "/></g></g></g><g fill="#000000" fill-opacity="1"><g transform="translate(282.878447, 100.832286)"><g><path d="M 5.8125 0 L 5.8125 -4.421875 C 5.8125 -4.984375 5.6875 -5.398438 5.4375 -5.671875 C 5.1875 -5.953125 4.796875 -6.09375 4.265625 -6.09375 C 3.546875 -6.09375 3.023438 -5.894531 2.703125 -5.5 C 2.390625 -5.113281 2.234375 -4.472656 2.234375 -3.578125 L 2.234375 0 L 1.09375 0 L 1.09375 -6.921875 L 2.015625 -6.921875 L 2.1875 -5.96875 L 2.25 -5.96875 C 2.457031 -6.3125 2.753906 -6.578125 3.140625 -6.765625 C 3.523438 -6.953125 3.953125 -7.046875 4.421875 -7.046875 C 5.273438 -7.046875 5.90625 -6.835938 6.3125 -6.421875 C 6.726562 -6.015625 6.9375 -5.375 6.9375 -4.5 L 6.9375 0 Z M 5.8125 0 "/></g></g></g><g fill="#000000" fill-opacity="1"><g transform="translate(290.853093, 100.832286)"><g/></g></g><g fill="#000000" fill-opacity="1"><g transform="translate(294.204209, 100.832286)"><g><path d="M 6.40625 0 L 1.25 0 L 1.25 -9.21875 L 6.40625 -9.21875 L 6.40625 -8.1875 L 2.40625 -8.1875 L 2.40625 -5.3125 L 6.171875 -5.3125 L 6.171875 -4.3125 L 2.40625 -4.3125 L 2.40625 -1.015625 L 6.40625 -1.015625 Z M 6.40625 0 "/></g></g></g><g fill="#000000" fill-opacity="1"><g transform="translate(301.378877, 100.832286)"><g><path d="M 5.8125 0 L 5.8125 -4.421875 C 5.8125 -4.984375 5.6875 -5.398438 5.4375 -5.671875 C 5.1875 -5.953125 4.796875 -6.09375 4.265625 -6.09375 C 3.546875 -6.09375 3.023438 -5.894531 2.703125 -5.5 C 2.390625 -5.113281 2.234375 -4.472656 2.234375 -3.578125 L 2.234375 0 L 1.09375 0 L 1.09375 -6.921875 L 2.015625 -6.921875 L 2.1875 -5.96875 L 2.25 -5.96875 C 2.457031 -6.3125 2.753906 -6.578125 3.140625 -6.765625 C 3.523438 -6.953125 3.953125 -7.046875 4.421875 -7.046875 C 5.273438 -7.046875 5.90625 -6.835938 6.3125 -6.421875 C 6.726562 -6.015625 6.9375 -5.375 6.9375 -4.5 L 6.9375 0 Z M 5.8125 0 "/></g></g></g><g fill="#000000" fill-opacity="1"><g transform="translate(309.353523, 100.832286)"><g><path d="M 3.734375 -0.796875 C 4.429688 -0.796875 4.9375 -0.984375 5.25 -1.359375 C 5.570312 -1.734375 5.734375 -2.335938 5.734375 -3.171875 L 5.734375 -3.453125 C 5.734375 -4.367188 5.570312 -5.035156 5.25 -5.453125 C 4.925781 -5.878906 4.410156 -6.09375 3.703125 -6.09375 C 3.117188 -6.09375 2.671875 -5.863281 2.359375 -5.40625 C 2.046875 -4.945312 1.890625 -4.289062 1.890625 -3.4375 C 1.890625 -2.582031 2.039062 -1.925781 2.34375 -1.46875 C 2.65625 -1.019531 3.117188 -0.796875 3.734375 -0.796875 Z M 5.71875 -0.0625 L 5.75 -0.90625 L 5.703125 -0.90625 C 5.234375 -0.21875 4.519531 0.125 3.5625 0.125 C 2.664062 0.125 1.96875 -0.1875 1.46875 -0.8125 C 0.96875 -1.4375 0.71875 -2.316406 0.71875 -3.453125 C 0.71875 -4.554688 0.96875 -5.429688 1.46875 -6.078125 C 1.976562 -6.722656 2.671875 -7.046875 3.546875 -7.046875 C 4.484375 -7.046875 5.207031 -6.695312 5.71875 -6 L 5.78125 -6 L 5.9375 -6.921875 L 6.84375 -6.921875 L 6.84375 0.109375 C 6.84375 1.097656 6.585938 1.84375 6.078125 2.34375 C 5.578125 2.84375 4.800781 3.09375 3.75 3.09375 C 2.738281 3.09375 1.90625 2.945312 1.25 2.65625 L 1.25 1.609375 C 1.925781 1.972656 2.78125 2.15625 3.8125 2.15625 C 4.394531 2.15625 4.859375 1.984375 5.203125 1.640625 C 5.546875 1.296875 5.71875 0.816406 5.71875 0.203125 Z M 5.71875 -0.0625 "/></g></g></g><g fill="#000000" fill-opacity="1"><g transform="translate(317.290375, 100.832286)"><g><path d="M 2.234375 0 L 1.09375 0 L 1.09375 -6.921875 L 2.234375 -6.921875 Z M 1.015625 -8.796875 C 1.015625 -9.046875 1.078125 -9.226562 1.203125 -9.34375 C 1.328125 -9.457031 1.484375 -9.515625 1.671875 -9.515625 C 1.847656 -9.515625 2.003906 -9.457031 2.140625 -9.34375 C 2.273438 -9.226562 2.34375 -9.046875 2.34375 -8.796875 C 2.34375 -8.546875 2.273438 -8.359375 2.140625 -8.234375 C 2.003906 -8.117188 1.847656 -8.0625 1.671875 -8.0625 C 1.484375 -8.0625 1.328125 -8.117188 1.203125 -8.234375 C 1.078125 -8.359375 1.015625 -8.546875 1.015625 -8.796875 Z M 1.015625 -8.796875 "/></g></g></g><g fill="#000000" fill-opacity="1"><g transform="translate(320.616294, 100.832286)"><g><path d="M 5.8125 0 L 5.8125 -4.421875 C 5.8125 -4.984375 5.6875 -5.398438 5.4375 -5.671875 C 5.1875 -5.953125 4.796875 -6.09375 4.265625 -6.09375 C 3.546875 -6.09375 3.023438 -5.894531 2.703125 -5.5 C 2.390625 -5.113281 2.234375 -4.472656 2.234375 -3.578125 L 2.234375 0 L 1.09375 0 L 1.09375 -6.921875 L 2.015625 -6.921875 L 2.1875 -5.96875 L 2.25 -5.96875 C 2.457031 -6.3125 2.753906 -6.578125 3.140625 -6.765625 C 3.523438 -6.953125 3.953125 -7.046875 4.421875 -7.046875 C 5.273438 -7.046875 5.90625 -6.835938 6.3125 -6.421875 C 6.726562 -6.015625 6.9375 -5.375 6.9375 -4.5 L 6.9375 0 Z M 5.8125 0 "/></g></g></g><g fill="#000000" fill-opacity="1"><g transform="translate(328.59094, 100.832286)"><g><path d="M 4.046875 0.125 C 3.003906 0.125 2.1875 -0.1875 1.59375 -0.8125 C 1.007812 -1.445312 0.71875 -2.3125 0.71875 -3.40625 C 0.71875 -4.519531 0.988281 -5.40625 1.53125 -6.0625 C 2.082031 -6.71875 2.828125 -7.046875 3.765625 -7.046875 C 4.640625 -7.046875 5.332031 -6.765625 5.84375 -6.203125 C 6.363281 -5.640625 6.625 -4.878906 6.625 -3.921875 L 6.625 -3.234375 L 1.890625 -3.234375 C 1.910156 -2.453125 2.109375 -1.859375 2.484375 -1.453125 C 2.859375 -1.046875 3.394531 -0.84375 4.09375 -0.84375 C 4.457031 -0.84375 4.804688 -0.875 5.140625 -0.9375 C 5.472656 -1 5.863281 -1.125 6.3125 -1.3125 L 6.3125 -0.328125 C 5.925781 -0.160156 5.5625 -0.046875 5.21875 0.015625 C 4.882812 0.0859375 4.492188 0.125 4.046875 0.125 Z M 3.75 -6.125 C 3.207031 -6.125 2.78125 -5.945312 2.46875 -5.59375 C 2.15625 -5.25 1.96875 -4.765625 1.90625 -4.140625 L 5.4375 -4.140625 C 5.425781 -4.785156 5.273438 -5.273438 4.984375 -5.609375 C 4.691406 -5.953125 4.28125 -6.125 3.75 -6.125 Z M 3.75 -6.125 "/></g></g></g><g fill="#000000" fill-opacity="1"><g transform="translate(335.866394, 100.832286)"><g><path d="M 4.046875 0.125 C 3.003906 0.125 2.1875 -0.1875 1.59375 -0.8125 C 1.007812 -1.445312 0.71875 -2.3125 0.71875 -3.40625 C 0.71875 -4.519531 0.988281 -5.40625 1.53125 -6.0625 C 2.082031 -6.71875 2.828125 -7.046875 3.765625 -7.046875 C 4.640625 -7.046875 5.332031 -6.765625 5.84375 -6.203125 C 6.363281 -5.640625 6.625 -4.878906 6.625 -3.921875 L 6.625 -3.234375 L 1.890625 -3.234375 C 1.910156 -2.453125 2.109375 -1.859375 2.484375 -1.453125 C 2.859375 -1.046875 3.394531 -0.84375 4.09375 -0.84375 C 4.457031 -0.84375 4.804688 -0.875 5.140625 -0.9375 C 5.472656 -1 5.863281 -1.125 6.3125 -1.3125 L 6.3125 -0.328125 C 5.925781 -0.160156 5.5625 -0.046875 5.21875 0.015625 C 4.882812 0.0859375 4.492188 0.125 4.046875 0.125 Z M 3.75 -6.125 C 3.207031 -6.125 2.78125 -5.945312 2.46875 -5.59375 C 2.15625 -5.25 1.96875 -4.765625 1.90625 -4.140625 L 5.4375 -4.140625 C 5.425781 -4.785156 5.273438 -5.273438 4.984375 -5.609375 C 4.691406 -5.953125 4.28125 -6.125 3.75 -6.125 Z M 3.75 -6.125 "/></g></g></g><g fill="#000000" fill-opacity="1"><g transform="translate(343.141847, 100.832286)"><g><path d="M 4.328125 -7.046875 C 4.628906 -7.046875 4.898438 -7.019531 5.140625 -6.96875 L 5 -5.921875 C 4.738281 -5.984375 4.488281 -6.015625 4.25 -6.015625 C 3.882812 -6.015625 3.546875 -5.910156 3.234375 -5.703125 C 2.921875 -5.503906 2.675781 -5.226562 2.5 -4.875 C 2.320312 -4.519531 2.234375 -4.125 2.234375 -3.6875 L 2.234375 0 L 1.09375 0 L 1.09375 -6.921875 L 2.03125 -6.921875 L 2.15625 -5.65625 L 2.203125 -5.65625 C 2.472656 -6.113281 2.785156 -6.457031 3.140625 -6.6875 C 3.503906 -6.925781 3.898438 -7.046875 4.328125 -7.046875 Z M 4.328125 -7.046875 "/></g></g></g><g fill="#000000" fill-opacity="1"><g transform="translate(348.470876, 100.832286)"><g><path d="M 2.234375 0 L 1.09375 0 L 1.09375 -6.921875 L 2.234375 -6.921875 Z M 1.015625 -8.796875 C 1.015625 -9.046875 1.078125 -9.226562 1.203125 -9.34375 C 1.328125 -9.457031 1.484375 -9.515625 1.671875 -9.515625 C 1.847656 -9.515625 2.003906 -9.457031 2.140625 -9.34375 C 2.273438 -9.226562 2.34375 -9.046875 2.34375 -8.796875 C 2.34375 -8.546875 2.273438 -8.359375 2.140625 -8.234375 C 2.003906 -8.117188 1.847656 -8.0625 1.671875 -8.0625 C 1.484375 -8.0625 1.328125 -8.117188 1.203125 -8.234375 C 1.078125 -8.359375 1.015625 -8.546875 1.015625 -8.796875 Z M 1.015625 -8.796875 "/></g></g></g><g fill="#000000" fill-opacity="1"><g transform="translate(351.796795, 100.832286)"><g><path d="M 5.8125 0 L 5.8125 -4.421875 C 5.8125 -4.984375 5.6875 -5.398438 5.4375 -5.671875 C 5.1875 -5.953125 4.796875 -6.09375 4.265625 -6.09375 C 3.546875 -6.09375 3.023438 -5.894531 2.703125 -5.5 C 2.390625 -5.113281 2.234375 -4.472656 2.234375 -3.578125 L 2.234375 0 L 1.09375 0 L 1.09375 -6.921875 L 2.015625 -6.921875 L 2.1875 -5.96875 L 2.25 -5.96875 C 2.457031 -6.3125 2.753906 -6.578125 3.140625 -6.765625 C 3.523438 -6.953125 3.953125 -7.046875 4.421875 -7.046875 C 5.273438 -7.046875 5.90625 -6.835938 6.3125 -6.421875 C 6.726562 -6.015625 6.9375 -5.375 6.9375 -4.5 L 6.9375 0 Z M 5.8125 0 "/></g></g></g><g fill="#000000" fill-opacity="1"><g transform="translate(359.771442, 100.832286)"><g><path d="M 3.734375 -0.796875 C 4.429688 -0.796875 4.9375 -0.984375 5.25 -1.359375 C 5.570312 -1.734375 5.734375 -2.335938 5.734375 -3.171875 L 5.734375 -3.453125 C 5.734375 -4.367188 5.570312 -5.035156 5.25 -5.453125 C 4.925781 -5.878906 4.410156 -6.09375 3.703125 -6.09375 C 3.117188 -6.09375 2.671875 -5.863281 2.359375 -5.40625 C 2.046875 -4.945312 1.890625 -4.289062 1.890625 -3.4375 C 1.890625 -2.582031 2.039062 -1.925781 2.34375 -1.46875 C 2.65625 -1.019531 3.117188 -0.796875 3.734375 -0.796875 Z M 5.71875 -0.0625 L 5.75 -0.90625 L 5.703125 -0.90625 C 5.234375 -0.21875 4.519531 0.125 3.5625 0.125 C 2.664062 0.125 1.96875 -0.1875 1.46875 -0.8125 C 0.96875 -1.4375 0.71875 -2.316406 0.71875 -3.453125 C 0.71875 -4.554688 0.96875 -5.429688 1.46875 -6.078125 C 1.976562 -6.722656 2.671875 -7.046875 3.546875 -7.046875 C 4.484375 -7.046875 5.207031 -6.695312 5.71875 -6 L 5.78125 -6 L 5.9375 -6.921875 L 6.84375 -6.921875 L 6.84375 0.109375 C 6.84375 1.097656 6.585938 1.84375 6.078125 2.34375 C 5.578125 2.84375 4.800781 3.09375 3.75 3.09375 C 2.738281 3.09375 1.90625 2.945312 1.25 2.65625 L 1.25 1.609375 C 1.925781 1.972656 2.78125 2.15625 3.8125 2.15625 C 4.394531 2.15625 4.859375 1.984375 5.203125 1.640625 C 5.546875 1.296875 5.71875 0.816406 5.71875 0.203125 Z M 5.71875 -0.0625 "/></g></g></g></svg>