<svg xmlns="http://www.w3.org/2000/svg" xmlns:xlink="http://www.w3.org/1999/xlink" width="458" zoomAndPan="magnify" viewBox="0 0 343.5 153.750002" height="205" preserveAspectRatio="xMidYMid meet" version="1.0"><defs><filter x="0%" y="0%" width="100%" height="100%" id="a7061bf28d"><feColorMatrix values="0 0 0 0 1 0 0 0 0 1 0 0 0 0 1 0 0 0 1 0" color-interpolation-filters="sRGB"/></filter><g/><clipPath id="426c56c880"><path d="M 0.0273438 0 L 342.972656 0 L 342.972656 153.125 L 0.0273438 153.125 Z M 0.0273438 0 " clip-rule="nonzero"/></clipPath><clipPath id="4d4f0bcd4e"><path d="M 8.265625 0 L 334.734375 0 C 339.285156 0 342.972656 3.6875 342.972656 8.238281 L 342.972656 144.890625 C 342.972656 149.4375 339.285156 153.125 334.734375 153.125 L 8.265625 153.125 C 3.71875 153.125 0.0273438 149.4375 0.0273438 144.890625 L 0.0273438 8.238281 C 0.0273438 3.6875 3.71875 0 8.265625 0 Z M 8.265625 0 " clip-rule="nonzero"/></clipPath><mask id="e83754161c"><g filter="url(#a7061bf28d)"><rect x="-34.35" width="412.2" fill="#000000" y="-15.375" height="184.500002" fill-opacity="0.5"/></g></mask><clipPath id="b99645a8a5"><path d="M 1.027344 0.804688 L 188.535156 0.804688 L 188.535156 95.296875 L 1.027344 95.296875 Z M 1.027344 0.804688 " clip-rule="nonzero"/></clipPath><clipPath id="b78ec069d8"><path d="M 94.625 0.804688 C 42.933594 0.804688 1.027344 21.957031 1.027344 48.050781 C 1.027344 74.144531 42.933594 95.296875 94.625 95.296875 C 146.316406 95.296875 188.222656 74.144531 188.222656 48.050781 C 188.222656 21.957031 146.316406 0.804688 94.625 0.804688 Z M 94.625 0.804688 " clip-rule="nonzero"/></clipPath><clipPath id="dcd2316387"><rect x="0" width="189" y="0" height="96"/></clipPath><mask id="f7fa5c0f81"><g filter="url(#a7061bf28d)"><rect x="-34.35" width="412.2" fill="#000000" y="-15.375" height="184.500002" fill-opacity="0.65"/></g></mask><clipPath id="f8e72c501f"><path d="M 0.207031 0.804688 L 187.71875 0.804688 L 187.71875 95.296875 L 0.207031 95.296875 Z M 0.207031 0.804688 " clip-rule="nonzero"/></clipPath><clipPath id="8b57eb63b4"><path d="M 93.804688 0.804688 C 42.113281 0.804688 0.207031 21.957031 0.207031 48.050781 C 0.207031 74.144531 42.113281 95.296875 93.804688 95.296875 C 145.5 95.296875 187.402344 74.144531 187.402344 48.050781 C 187.402344 21.957031 145.5 0.804688 93.804688 0.804688 Z M 93.804688 0.804688 " clip-rule="nonzero"/></clipPath><clipPath id="eee70a2b03"><rect x="0" width="188" y="0" height="96"/></clipPath><clipPath id="6ad810b187"><path d="M 14.214844 43.804688 L 201.402344 43.804688 L 201.402344 138.148438 L 14.214844 138.148438 Z M 14.214844 43.804688 " clip-rule="nonzero"/></clipPath><clipPath id="5f82246be6"><path d="M 107.804688 43.804688 C 56.117188 43.804688 14.214844 64.957031 14.214844 91.046875 C 14.214844 117.140625 56.117188 138.289062 107.804688 138.289062 C 159.496094 138.289062 201.398438 117.140625 201.398438 91.046875 C 201.398438 64.957031 159.496094 43.804688 107.804688 43.804688 Z M 107.804688 43.804688 " clip-rule="nonzero"/></clipPath><clipPath id="37d672ae54"><path d="M 140.03125 43.804688 L 327.222656 43.804688 L 327.222656 138.148438 L 140.03125 138.148438 Z M 140.03125 43.804688 " clip-rule="nonzero"/></clipPath><clipPath id="fdd5acd25e"><path d="M 233.625 43.804688 C 181.933594 43.804688 140.03125 64.957031 140.03125 91.046875 C 140.03125 117.140625 181.933594 138.289062 233.625 138.289062 C 285.316406 138.289062 327.21875 117.140625 327.21875 91.046875 C 327.21875 64.957031 285.316406 43.804688 233.625 43.804688 Z M 233.625 43.804688 " clip-rule="nonzero"/></clipPath><clipPath id="a901b22b02"><path d="M 140 30 L 183 30 L 183 90 L 140 90 Z M 140 30 " clip-rule="nonzero"/></clipPath><clipPath id="8e851609ce"><path d="M 142.863281 27.519531 L 194.578125 61.992188 L 175.46875 90.652344 L 123.757812 56.179688 Z M 142.863281 27.519531 " clip-rule="nonzero"/></clipPath><clipPath id="dc46938112"><path d="M 142.863281 27.519531 L 194.578125 61.992188 L 175.46875 90.652344 L 123.757812 56.179688 Z M 142.863281 27.519531 " clip-rule="nonzero"/></clipPath><clipPath id="5b4747c67f"><path d="M 142.863281 27.519531 L 194.578125 61.992188 L 175.46875 90.652344 L 123.757812 56.179688 Z M 142.863281 27.519531 " clip-rule="nonzero"/></clipPath></defs><g clip-path="url(#426c56c880)"><g clip-path="url(#4d4f0bcd4e)"><path fill="#dddddd" d="M 0.0273438 0 L 342.769531 0 L 342.769531 153.125 L 0.0273438 153.125 Z M 0.0273438 0 " fill-opacity="1" fill-rule="nonzero"/></g></g><g mask="url(#e83754161c)"><g transform="matrix(1, 0, 0, 1, 139, 43)"><g clip-path="url(#dcd2316387)"><g clip-path="url(#b99645a8a5)"><g clip-path="url(#b78ec069d8)"><path fill="#6aab4e" d="M 1.027344 0.804688 L 188.167969 0.804688 L 188.167969 95.296875 L 1.027344 95.296875 Z M 1.027344 0.804688 " fill-opacity="1" fill-rule="nonzero"/></g></g></g></g></g><g mask="url(#f7fa5c0f81)"><g transform="matrix(1, 0, 0, 1, 14, 43)"><g clip-path="url(#eee70a2b03)"><g clip-path="url(#f8e72c501f)"><g clip-path="url(#8b57eb63b4)"><path fill="#ffffff" d="M 0.207031 0.804688 L 187.347656 0.804688 L 187.347656 95.296875 L 0.207031 95.296875 Z M 0.207031 0.804688 " fill-opacity="1" fill-rule="nonzero"/></g></g></g></g></g><g clip-path="url(#6ad810b187)"><g clip-path="url(#5f82246be6)"><path stroke-linecap="butt" transform="matrix(0.748782, 0, 0, 0.748782, 14.213623, 43.80378)" fill="none" stroke-linejoin="miter" d="M 124.990997 0.00121186 C 55.962269 0.00121186 0.00163007 28.250196 0.00163007 63.093219 C 0.00163007 97.941459 55.962269 126.185226 124.990997 126.185226 C 194.024942 126.185226 249.98558 97.941459 249.98558 63.093219 C 249.98558 28.250196 194.024942 0.00121186 124.990997 0.00121186 Z M 124.990997 0.00121186 " stroke="#545454" stroke-width="4" stroke-opacity="1" stroke-miterlimit="4"/></g></g><g clip-path="url(#37d672ae54)"><g clip-path="url(#fdd5acd25e)"><path stroke-linecap="butt" transform="matrix(0.748782, 0, 0, 0.748782, 140.032743, 43.80378)" fill="none" stroke-linejoin="miter" d="M 124.992589 0.00121186 C 55.958644 0.00121186 -0.00199433 28.250196 -0.00199433 63.093219 C -0.00199433 97.941459 55.958644 126.185226 124.992589 126.185226 C 194.026534 126.185226 249.987173 97.941459 249.987173 63.093219 C 249.987173 28.250196 194.026534 0.00121186 124.992589 0.00121186 Z M 124.992589 0.00121186 " stroke="#545454" stroke-width="4" stroke-opacity="1" stroke-miterlimit="4"/></g></g><g clip-path="url(#a901b22b02)"><g clip-path="url(#8e851609ce)"><g clip-path="url(#dc46938112)"><g clip-path="url(#5b4747c67f)"><path fill="#000000" d="M 174.121094 88.597656 C 174.078125 87.699219 173.921875 86.816406 173.65625 85.953125 C 173.390625 85.089844 173.023438 84.273438 172.554688 83.503906 C 172.085938 82.730469 171.527344 82.027344 170.882812 81.394531 C 170.238281 80.761719 169.527344 80.21875 168.746094 79.761719 C 167.542969 79.054688 168.742188 77.269531 169.9375 77.96875 C 171.902344 79.132812 173.441406 80.710938 174.554688 82.703125 C 174.636719 79.683594 174.453125 76.679688 174.003906 73.695312 C 173.355469 69.390625 172.183594 65.234375 170.484375 61.222656 C 168.789062 57.210938 166.621094 53.46875 163.984375 50 C 161.078125 46.207031 157.71875 42.871094 153.90625 39.992188 C 150.09375 37.109375 145.964844 34.789062 141.523438 33.03125 C 140.238281 32.527344 140.90625 30.476562 142.199219 30.984375 C 145.71875 32.363281 149.054688 34.089844 152.214844 36.164062 C 155.375 38.238281 158.289062 40.617188 160.953125 43.292969 C 163.617188 45.972656 165.980469 48.894531 168.035156 52.066406 C 170.09375 55.234375 171.800781 58.578125 173.160156 62.097656 C 175.632812 68.621094 176.820312 75.363281 176.730469 82.328125 C 177.792969 80.183594 178.992188 78.121094 180.324219 76.136719 C 181.09375 74.984375 182.902344 76.1875 182.125 77.335938 C 179.664062 80.976562 177.695312 84.863281 176.222656 89.003906 C 175.792969 90.210938 174.164062 89.777344 174.121094 88.597656 Z M 174.121094 88.597656 " fill-opacity="1" fill-rule="nonzero"/></g></g></g></g><g fill="#000000" fill-opacity="1"><g transform="translate(100.765071, 23.058532)"><g><path d="M 5.21875 -8.359375 C 4.226562 -8.359375 3.445312 -8.023438 2.875 -7.359375 C 2.300781 -6.691406 2.015625 -5.78125 2.015625 -4.625 C 2.015625 -3.4375 2.289062 -2.515625 2.84375 -1.859375 C 3.394531 -1.210938 4.1875 -0.890625 5.21875 -0.890625 C 5.875 -0.890625 6.613281 -1.015625 7.4375 -1.265625 L 7.4375 -0.25 C 7.039062 -0.101562 6.660156 -0.00390625 6.296875 0.046875 C 5.929688 0.0976562 5.515625 0.125 5.046875 0.125 C 3.679688 0.125 2.628906 -0.285156 1.890625 -1.109375 C 1.160156 -1.941406 0.796875 -3.117188 0.796875 -4.640625 C 0.796875 -5.597656 0.96875 -6.429688 1.3125 -7.140625 C 1.664062 -7.859375 2.179688 -8.410156 2.859375 -8.796875 C 3.535156 -9.191406 4.328125 -9.390625 5.234375 -9.390625 C 6.210938 -9.390625 7.066406 -9.207031 7.796875 -8.84375 L 7.328125 -7.859375 C 6.585938 -8.191406 5.882812 -8.359375 5.21875 -8.359375 Z M 5.21875 -8.359375 "/></g></g></g><g fill="#000000" fill-opacity="1"><g transform="translate(108.96314, 23.058532)"><g><path d="M 7.140625 -3.484375 C 7.140625 -2.347656 6.851562 -1.460938 6.28125 -0.828125 C 5.707031 -0.191406 4.914062 0.125 3.90625 0.125 C 3.269531 0.125 2.707031 -0.0195312 2.21875 -0.3125 C 1.738281 -0.601562 1.367188 -1.023438 1.109375 -1.578125 C 0.847656 -2.128906 0.71875 -2.765625 0.71875 -3.484375 C 0.71875 -4.617188 1 -5.5 1.5625 -6.125 C 2.125 -6.757812 2.914062 -7.078125 3.9375 -7.078125 C 4.925781 -7.078125 5.707031 -6.753906 6.28125 -6.109375 C 6.851562 -5.460938 7.140625 -4.585938 7.140625 -3.484375 Z M 1.890625 -3.484375 C 1.890625 -2.609375 2.0625 -1.941406 2.40625 -1.484375 C 2.75 -1.035156 3.257812 -0.8125 3.9375 -0.8125 C 4.59375 -0.8125 5.09375 -1.035156 5.4375 -1.484375 C 5.789062 -1.941406 5.96875 -2.609375 5.96875 -3.484375 C 5.96875 -4.359375 5.789062 -5.015625 5.4375 -5.453125 C 5.09375 -5.898438 4.582031 -6.125 3.90625 -6.125 C 2.5625 -6.125 1.890625 -5.242188 1.890625 -3.484375 Z M 1.890625 -3.484375 "/></g></g></g><g fill="#000000" fill-opacity="1"><g transform="translate(116.686044, 23.058532)"><g><path d="M 2.640625 0 L 0 -6.953125 L 1.21875 -6.953125 L 2.703125 -2.859375 C 2.992188 -2.035156 3.175781 -1.421875 3.25 -1.015625 L 3.3125 -1.015625 C 3.320312 -1.066406 3.332031 -1.125 3.34375 -1.1875 C 3.363281 -1.257812 3.382812 -1.335938 3.40625 -1.421875 C 3.4375 -1.503906 3.597656 -1.984375 3.890625 -2.859375 L 5.375 -6.953125 L 6.578125 -6.953125 L 3.9375 0 Z M 2.640625 0 "/></g></g></g><g fill="#000000" fill-opacity="1"><g transform="translate(123.274909, 23.058532)"><g><path d="M 4.0625 0.125 C 3.019531 0.125 2.203125 -0.1875 1.609375 -0.8125 C 1.015625 -1.445312 0.71875 -2.316406 0.71875 -3.421875 C 0.71875 -4.535156 0.992188 -5.421875 1.546875 -6.078125 C 2.097656 -6.742188 2.84375 -7.078125 3.78125 -7.078125 C 4.65625 -7.078125 5.351562 -6.796875 5.875 -6.234375 C 6.394531 -5.671875 6.65625 -4.90625 6.65625 -3.9375 L 6.65625 -3.25 L 1.890625 -3.25 C 1.910156 -2.46875 2.109375 -1.867188 2.484375 -1.453125 C 2.867188 -1.046875 3.410156 -0.84375 4.109375 -0.84375 C 4.484375 -0.84375 4.835938 -0.875 5.171875 -0.9375 C 5.503906 -1 5.894531 -1.128906 6.34375 -1.328125 L 6.34375 -0.328125 C 5.957031 -0.160156 5.59375 -0.046875 5.25 0.015625 C 4.914062 0.0859375 4.519531 0.125 4.0625 0.125 Z M 3.78125 -6.15625 C 3.226562 -6.15625 2.789062 -5.976562 2.46875 -5.625 C 2.15625 -5.269531 1.972656 -4.78125 1.921875 -4.15625 L 5.453125 -4.15625 C 5.453125 -4.8125 5.304688 -5.304688 5.015625 -5.640625 C 4.722656 -5.984375 4.3125 -6.15625 3.78125 -6.15625 Z M 3.78125 -6.15625 "/></g></g></g><g fill="#000000" fill-opacity="1"><g transform="translate(130.592357, 23.058532)"><g><path d="M 4.34375 -7.078125 C 4.65625 -7.078125 4.925781 -7.050781 5.15625 -7 L 5.015625 -5.953125 C 4.765625 -6.015625 4.515625 -6.046875 4.265625 -6.046875 C 3.898438 -6.046875 3.5625 -5.941406 3.25 -5.734375 C 2.9375 -5.535156 2.6875 -5.253906 2.5 -4.890625 C 2.320312 -4.535156 2.234375 -4.140625 2.234375 -3.703125 L 2.234375 0 L 1.109375 0 L 1.109375 -6.953125 L 2.03125 -6.953125 L 2.171875 -5.6875 L 2.21875 -5.6875 C 2.476562 -6.144531 2.789062 -6.488281 3.15625 -6.71875 C 3.519531 -6.957031 3.914062 -7.078125 4.34375 -7.078125 Z M 4.34375 -7.078125 "/></g></g></g><g fill="#000000" fill-opacity="1"><g transform="translate(135.825424, 23.058532)"><g><path d="M 5.390625 0 L 5.171875 -0.984375 L 5.125 -0.984375 C 4.78125 -0.546875 4.4375 -0.25 4.09375 -0.09375 C 3.75 0.0507812 3.3125 0.125 2.78125 0.125 C 2.101562 0.125 1.566406 -0.0507812 1.171875 -0.40625 C 0.785156 -0.769531 0.59375 -1.28125 0.59375 -1.9375 C 0.59375 -3.34375 1.707031 -4.078125 3.9375 -4.140625 L 5.109375 -4.1875 L 5.109375 -4.609375 C 5.109375 -5.128906 4.992188 -5.515625 4.765625 -5.765625 C 4.535156 -6.023438 4.171875 -6.15625 3.671875 -6.15625 C 3.304688 -6.15625 2.957031 -6.097656 2.625 -5.984375 C 2.300781 -5.867188 1.992188 -5.742188 1.703125 -5.609375 L 1.359375 -6.46875 C 1.710938 -6.65625 2.09375 -6.800781 2.5 -6.90625 C 2.914062 -7.007812 3.328125 -7.0625 3.734375 -7.0625 C 4.578125 -7.0625 5.203125 -6.875 5.609375 -6.5 C 6.015625 -6.132812 6.21875 -5.546875 6.21875 -4.734375 L 6.21875 0 Z M 3.046875 -0.796875 C 3.679688 -0.796875 4.179688 -0.96875 4.546875 -1.3125 C 4.910156 -1.65625 5.09375 -2.144531 5.09375 -2.78125 L 5.09375 -3.40625 L 4.078125 -3.359375 C 3.273438 -3.328125 2.691406 -3.195312 2.328125 -2.96875 C 1.960938 -2.75 1.78125 -2.398438 1.78125 -1.921875 C 1.78125 -1.554688 1.890625 -1.273438 2.109375 -1.078125 C 2.328125 -0.890625 2.640625 -0.796875 3.046875 -0.796875 Z M 3.046875 -0.796875 "/></g></g></g><g fill="#000000" fill-opacity="1"><g transform="translate(143.104859, 23.058532)"><g><path d="M 3.75 -0.796875 C 4.445312 -0.796875 4.953125 -0.984375 5.265625 -1.359375 C 5.585938 -1.742188 5.75 -2.351562 5.75 -3.1875 L 5.75 -3.46875 C 5.75 -4.394531 5.585938 -5.066406 5.265625 -5.484375 C 4.953125 -5.910156 4.4375 -6.125 3.71875 -6.125 C 3.132812 -6.125 2.679688 -5.890625 2.359375 -5.421875 C 2.046875 -4.960938 1.890625 -4.304688 1.890625 -3.453125 C 1.890625 -2.585938 2.046875 -1.925781 2.359375 -1.46875 C 2.671875 -1.019531 3.132812 -0.796875 3.75 -0.796875 Z M 5.75 -0.0625 L 5.78125 -0.921875 L 5.734375 -0.921875 C 5.265625 -0.222656 4.546875 0.125 3.578125 0.125 C 2.679688 0.125 1.976562 -0.1875 1.46875 -0.8125 C 0.96875 -1.4375 0.71875 -2.320312 0.71875 -3.46875 C 0.71875 -4.582031 0.96875 -5.460938 1.46875 -6.109375 C 1.976562 -6.753906 2.675781 -7.078125 3.5625 -7.078125 C 4.507812 -7.078125 5.238281 -6.726562 5.75 -6.03125 L 5.8125 -6.03125 L 5.96875 -6.953125 L 6.875 -6.953125 L 6.875 0.109375 C 6.875 1.109375 6.617188 1.859375 6.109375 2.359375 C 5.609375 2.859375 4.828125 3.109375 3.765625 3.109375 C 2.742188 3.109375 1.910156 2.960938 1.265625 2.671875 L 1.265625 1.625 C 1.929688 1.988281 2.785156 2.171875 3.828125 2.171875 C 4.421875 2.171875 4.890625 1.992188 5.234375 1.640625 C 5.578125 1.296875 5.75 0.816406 5.75 0.203125 Z M 5.75 -0.0625 "/></g></g></g><g fill="#000000" fill-opacity="1"><g transform="translate(151.087522, 23.058532)"><g><path d="M 4.0625 0.125 C 3.019531 0.125 2.203125 -0.1875 1.609375 -0.8125 C 1.015625 -1.445312 0.71875 -2.316406 0.71875 -3.421875 C 0.71875 -4.535156 0.992188 -5.421875 1.546875 -6.078125 C 2.097656 -6.742188 2.84375 -7.078125 3.78125 -7.078125 C 4.65625 -7.078125 5.351562 -6.796875 5.875 -6.234375 C 6.394531 -5.671875 6.65625 -4.90625 6.65625 -3.9375 L 6.65625 -3.25 L 1.890625 -3.25 C 1.910156 -2.46875 2.109375 -1.867188 2.484375 -1.453125 C 2.867188 -1.046875 3.410156 -0.84375 4.109375 -0.84375 C 4.484375 -0.84375 4.835938 -0.875 5.171875 -0.9375 C 5.503906 -1 5.894531 -1.128906 6.34375 -1.328125 L 6.34375 -0.328125 C 5.957031 -0.160156 5.59375 -0.046875 5.25 0.015625 C 4.914062 0.0859375 4.519531 0.125 4.0625 0.125 Z M 3.78125 -6.15625 C 3.226562 -6.15625 2.789062 -5.976562 2.46875 -5.625 C 2.15625 -5.269531 1.972656 -4.78125 1.921875 -4.15625 L 5.453125 -4.15625 C 5.453125 -4.8125 5.304688 -5.304688 5.015625 -5.640625 C 4.722656 -5.984375 4.3125 -6.15625 3.78125 -6.15625 Z M 3.78125 -6.15625 "/></g></g></g><g fill="#000000" fill-opacity="1"><g transform="translate(38.471541, 95.542776)"><g><path d="M 4.1875 0 L 3.015625 0 L 3.015625 -8.234375 L 0.125 -8.234375 L 0.125 -9.265625 L 7.0625 -9.265625 L 7.0625 -8.234375 L 4.1875 -8.234375 Z M 4.1875 0 "/></g></g></g><g fill="#000000" fill-opacity="1"><g transform="translate(45.687621, 95.542776)"><g><path d="M 5.84375 0 L 5.84375 -4.453125 C 5.84375 -5.015625 5.710938 -5.429688 5.453125 -5.703125 C 5.203125 -5.984375 4.8125 -6.125 4.28125 -6.125 C 3.570312 -6.125 3.050781 -5.925781 2.71875 -5.53125 C 2.394531 -5.144531 2.234375 -4.5 2.234375 -3.59375 L 2.234375 0 L 1.109375 0 L 1.109375 -9.859375 L 2.234375 -9.859375 L 2.234375 -6.96875 C 2.234375 -6.582031 2.210938 -6.253906 2.171875 -5.984375 L 2.25 -5.984375 C 2.457031 -6.328125 2.75 -6.59375 3.125 -6.78125 C 3.507812 -6.96875 3.941406 -7.0625 4.421875 -7.0625 C 5.265625 -7.0625 5.898438 -6.859375 6.328125 -6.453125 C 6.753906 -6.054688 6.96875 -5.414062 6.96875 -4.53125 L 6.96875 0 Z M 5.84375 0 "/></g></g></g><g fill="#000000" fill-opacity="1"><g transform="translate(53.708297, 95.542776)"><g><path d="M 4.34375 -7.078125 C 4.65625 -7.078125 4.925781 -7.050781 5.15625 -7 L 5.015625 -5.953125 C 4.765625 -6.015625 4.515625 -6.046875 4.265625 -6.046875 C 3.898438 -6.046875 3.5625 -5.941406 3.25 -5.734375 C 2.9375 -5.535156 2.6875 -5.253906 2.5 -4.890625 C 2.320312 -4.535156 2.234375 -4.140625 2.234375 -3.703125 L 2.234375 0 L 1.109375 0 L 1.109375 -6.953125 L 2.03125 -6.953125 L 2.171875 -5.6875 L 2.21875 -5.6875 C 2.476562 -6.144531 2.789062 -6.488281 3.15625 -6.71875 C 3.519531 -6.957031 3.914062 -7.078125 4.34375 -7.078125 Z M 4.34375 -7.078125 "/></g></g></g><g fill="#000000" fill-opacity="1"><g transform="translate(58.941365, 95.542776)"><g><path d="M 4.0625 0.125 C 3.019531 0.125 2.203125 -0.1875 1.609375 -0.8125 C 1.015625 -1.445312 0.71875 -2.316406 0.71875 -3.421875 C 0.71875 -4.535156 0.992188 -5.421875 1.546875 -6.078125 C 2.097656 -6.742188 2.84375 -7.078125 3.78125 -7.078125 C 4.65625 -7.078125 5.351562 -6.796875 5.875 -6.234375 C 6.394531 -5.671875 6.65625 -4.90625 6.65625 -3.9375 L 6.65625 -3.25 L 1.890625 -3.25 C 1.910156 -2.46875 2.109375 -1.867188 2.484375 -1.453125 C 2.867188 -1.046875 3.410156 -0.84375 4.109375 -0.84375 C 4.484375 -0.84375 4.835938 -0.875 5.171875 -0.9375 C 5.503906 -1 5.894531 -1.128906 6.34375 -1.328125 L 6.34375 -0.328125 C 5.957031 -0.160156 5.59375 -0.046875 5.25 0.015625 C 4.914062 0.0859375 4.519531 0.125 4.0625 0.125 Z M 3.78125 -6.15625 C 3.226562 -6.15625 2.789062 -5.976562 2.46875 -5.625 C 2.15625 -5.269531 1.972656 -4.78125 1.921875 -4.15625 L 5.453125 -4.15625 C 5.453125 -4.8125 5.304688 -5.304688 5.015625 -5.640625 C 4.722656 -5.984375 4.3125 -6.15625 3.78125 -6.15625 Z M 3.78125 -6.15625 "/></g></g></g><g fill="#000000" fill-opacity="1"><g transform="translate(66.258812, 95.542776)"><g><path d="M 5.390625 0 L 5.171875 -0.984375 L 5.125 -0.984375 C 4.78125 -0.546875 4.4375 -0.25 4.09375 -0.09375 C 3.75 0.0507812 3.3125 0.125 2.78125 0.125 C 2.101562 0.125 1.566406 -0.0507812 1.171875 -0.40625 C 0.785156 -0.769531 0.59375 -1.28125 0.59375 -1.9375 C 0.59375 -3.34375 1.707031 -4.078125 3.9375 -4.140625 L 5.109375 -4.1875 L 5.109375 -4.609375 C 5.109375 -5.128906 4.992188 -5.515625 4.765625 -5.765625 C 4.535156 -6.023438 4.171875 -6.15625 3.671875 -6.15625 C 3.304688 -6.15625 2.957031 -6.097656 2.625 -5.984375 C 2.300781 -5.867188 1.992188 -5.742188 1.703125 -5.609375 L 1.359375 -6.46875 C 1.710938 -6.65625 2.09375 -6.800781 2.5 -6.90625 C 2.914062 -7.007812 3.328125 -7.0625 3.734375 -7.0625 C 4.578125 -7.0625 5.203125 -6.875 5.609375 -6.5 C 6.015625 -6.132812 6.21875 -5.546875 6.21875 -4.734375 L 6.21875 0 Z M 3.046875 -0.796875 C 3.679688 -0.796875 4.179688 -0.96875 4.546875 -1.3125 C 4.910156 -1.65625 5.09375 -2.144531 5.09375 -2.78125 L 5.09375 -3.40625 L 4.078125 -3.359375 C 3.273438 -3.328125 2.691406 -3.195312 2.328125 -2.96875 C 1.960938 -2.75 1.78125 -2.398438 1.78125 -1.921875 C 1.78125 -1.554688 1.890625 -1.273438 2.109375 -1.078125 C 2.328125 -0.890625 2.640625 -0.796875 3.046875 -0.796875 Z M 3.046875 -0.796875 "/></g></g></g><g fill="#000000" fill-opacity="1"><g transform="translate(73.538247, 95.542776)"><g><path d="M 3.421875 -0.796875 C 3.566406 -0.796875 3.738281 -0.8125 3.9375 -0.84375 C 4.144531 -0.875 4.296875 -0.910156 4.390625 -0.953125 L 4.390625 -0.078125 C 4.285156 -0.0234375 4.125 0.0195312 3.90625 0.0625 C 3.6875 0.101562 3.460938 0.125 3.234375 0.125 C 1.867188 0.125 1.1875 -0.585938 1.1875 -2.015625 L 1.1875 -6.0625 L 0.203125 -6.0625 L 0.203125 -6.609375 L 1.203125 -7.0625 L 1.65625 -8.546875 L 2.34375 -8.546875 L 2.34375 -6.953125 L 4.34375 -6.953125 L 4.34375 -6.0625 L 2.34375 -6.0625 L 2.34375 -2.046875 C 2.34375 -1.648438 2.4375 -1.34375 2.625 -1.125 C 2.8125 -0.90625 3.078125 -0.796875 3.421875 -0.796875 Z M 3.421875 -0.796875 "/></g></g></g><g fill="#000000" fill-opacity="1"><g transform="translate(78.220148, 95.542776)"><g/></g></g><g fill="#000000" fill-opacity="1"><g transform="translate(81.590606, 95.542776)"><g><path d="M 7.1875 -6.53125 C 7.1875 -5.582031 6.863281 -4.859375 6.21875 -4.359375 C 5.570312 -3.859375 4.660156 -3.609375 3.484375 -3.609375 L 2.421875 -3.609375 L 2.421875 0 L 1.265625 0 L 1.265625 -9.265625 L 3.703125 -9.265625 C 6.023438 -9.265625 7.1875 -8.351562 7.1875 -6.53125 Z M 2.421875 -4.609375 L 3.359375 -4.609375 C 4.273438 -4.609375 4.941406 -4.753906 5.359375 -5.046875 C 5.773438 -5.347656 5.984375 -5.828125 5.984375 -6.484375 C 5.984375 -7.078125 5.789062 -7.519531 5.40625 -7.8125 C 5.019531 -8.113281 4.421875 -8.265625 3.609375 -8.265625 L 2.421875 -8.265625 Z M 2.421875 -4.609375 "/></g></g></g><g fill="#000000" fill-opacity="1"><g transform="translate(89.440231, 95.542776)"><g><path d="M 4.34375 -7.078125 C 4.65625 -7.078125 4.925781 -7.050781 5.15625 -7 L 5.015625 -5.953125 C 4.765625 -6.015625 4.515625 -6.046875 4.265625 -6.046875 C 3.898438 -6.046875 3.5625 -5.941406 3.25 -5.734375 C 2.9375 -5.535156 2.6875 -5.253906 2.5 -4.890625 C 2.320312 -4.535156 2.234375 -4.140625 2.234375 -3.703125 L 2.234375 0 L 1.109375 0 L 1.109375 -6.953125 L 2.03125 -6.953125 L 2.171875 -5.6875 L 2.21875 -5.6875 C 2.476562 -6.144531 2.789062 -6.488281 3.15625 -6.71875 C 3.519531 -6.957031 3.914062 -7.078125 4.34375 -7.078125 Z M 4.34375 -7.078125 "/></g></g></g><g fill="#000000" fill-opacity="1"><g transform="translate(94.673299, 95.542776)"><g><path d="M 7.140625 -3.484375 C 7.140625 -2.347656 6.851562 -1.460938 6.28125 -0.828125 C 5.707031 -0.191406 4.914062 0.125 3.90625 0.125 C 3.269531 0.125 2.707031 -0.0195312 2.21875 -0.3125 C 1.738281 -0.601562 1.367188 -1.023438 1.109375 -1.578125 C 0.847656 -2.128906 0.71875 -2.765625 0.71875 -3.484375 C 0.71875 -4.617188 1 -5.5 1.5625 -6.125 C 2.125 -6.757812 2.914062 -7.078125 3.9375 -7.078125 C 4.925781 -7.078125 5.707031 -6.753906 6.28125 -6.109375 C 6.851562 -5.460938 7.140625 -4.585938 7.140625 -3.484375 Z M 1.890625 -3.484375 C 1.890625 -2.609375 2.0625 -1.941406 2.40625 -1.484375 C 2.75 -1.035156 3.257812 -0.8125 3.9375 -0.8125 C 4.59375 -0.8125 5.09375 -1.035156 5.4375 -1.484375 C 5.789062 -1.941406 5.96875 -2.609375 5.96875 -3.484375 C 5.96875 -4.359375 5.789062 -5.015625 5.4375 -5.453125 C 5.09375 -5.898438 4.582031 -6.125 3.90625 -6.125 C 2.5625 -6.125 1.890625 -5.242188 1.890625 -3.484375 Z M 1.890625 -3.484375 "/></g></g></g><g fill="#000000" fill-opacity="1"><g transform="translate(102.522923, 95.542776)"><g><path d="M 4.3125 -6.0625 L 2.546875 -6.0625 L 2.546875 0 L 1.40625 0 L 1.40625 -6.0625 L 0.203125 -6.0625 L 0.203125 -6.59375 L 1.40625 -6.984375 L 1.40625 -7.390625 C 1.40625 -8.234375 1.585938 -8.863281 1.953125 -9.28125 C 2.328125 -9.707031 2.898438 -9.921875 3.671875 -9.921875 C 4.117188 -9.921875 4.566406 -9.84375 5.015625 -9.6875 L 4.71875 -8.796875 C 4.320312 -8.921875 3.976562 -8.984375 3.6875 -8.984375 C 3.300781 -8.984375 3.015625 -8.851562 2.828125 -8.59375 C 2.640625 -8.34375 2.546875 -7.945312 2.546875 -7.40625 L 2.546875 -6.953125 L 4.3125 -6.953125 Z M 4.3125 -6.0625 "/></g></g></g><g fill="#000000" fill-opacity="1"><g transform="translate(106.989419, 95.542776)"><g><path d="M 2.234375 0 L 1.109375 0 L 1.109375 -6.953125 L 2.234375 -6.953125 Z M 1.015625 -8.828125 C 1.015625 -9.085938 1.078125 -9.273438 1.203125 -9.390625 C 1.335938 -9.503906 1.5 -9.5625 1.6875 -9.5625 C 1.863281 -9.5625 2.015625 -9.503906 2.140625 -9.390625 C 2.273438 -9.273438 2.34375 -9.085938 2.34375 -8.828125 C 2.34375 -8.578125 2.273438 -8.394531 2.140625 -8.28125 C 2.015625 -8.164062 1.863281 -8.109375 1.6875 -8.109375 C 1.5 -8.109375 1.335938 -8.164062 1.203125 -8.28125 C 1.078125 -8.394531 1.015625 -8.578125 1.015625 -8.828125 Z M 1.015625 -8.828125 "/></g></g></g><g fill="#000000" fill-opacity="1"><g transform="translate(110.334535, 95.542776)"><g><path d="M 2.234375 0 L 1.109375 0 L 1.109375 -9.859375 L 2.234375 -9.859375 Z M 2.234375 0 "/></g></g></g><g fill="#000000" fill-opacity="1"><g transform="translate(113.679652, 95.542776)"><g><path d="M 4.0625 0.125 C 3.019531 0.125 2.203125 -0.1875 1.609375 -0.8125 C 1.015625 -1.445312 0.71875 -2.316406 0.71875 -3.421875 C 0.71875 -4.535156 0.992188 -5.421875 1.546875 -6.078125 C 2.097656 -6.742188 2.84375 -7.078125 3.78125 -7.078125 C 4.65625 -7.078125 5.351562 -6.796875 5.875 -6.234375 C 6.394531 -5.671875 6.65625 -4.90625 6.65625 -3.9375 L 6.65625 -3.25 L 1.890625 -3.25 C 1.910156 -2.46875 2.109375 -1.867188 2.484375 -1.453125 C 2.867188 -1.046875 3.410156 -0.84375 4.109375 -0.84375 C 4.484375 -0.84375 4.835938 -0.875 5.171875 -0.9375 C 5.503906 -1 5.894531 -1.128906 6.34375 -1.328125 L 6.34375 -0.328125 C 5.957031 -0.160156 5.59375 -0.046875 5.25 0.015625 C 4.914062 0.0859375 4.519531 0.125 4.0625 0.125 Z M 3.78125 -6.15625 C 3.226562 -6.15625 2.789062 -5.976562 2.46875 -5.625 C 2.15625 -5.269531 1.972656 -4.78125 1.921875 -4.15625 L 5.453125 -4.15625 C 5.453125 -4.8125 5.304688 -5.304688 5.015625 -5.640625 C 4.722656 -5.984375 4.3125 -6.15625 3.78125 -6.15625 Z M 3.78125 -6.15625 "/></g></g></g><g fill="#000000" fill-opacity="1"><g transform="translate(236.105349, 95.542776)"><g><path d="M 2.421875 -4.8125 L 3.8125 -4.8125 C 4.5625 -4.8125 5.109375 -4.957031 5.453125 -5.25 C 5.804688 -5.550781 5.984375 -5.992188 5.984375 -6.578125 C 5.984375 -7.160156 5.804688 -7.582031 5.453125 -7.84375 C 5.097656 -8.113281 4.53125 -8.25 3.75 -8.25 L 2.421875 -8.25 Z M 2.421875 -3.828125 L 2.421875 0 L 1.265625 0 L 1.265625 -9.265625 L 3.8125 -9.265625 C 4.957031 -9.265625 5.804688 -9.046875 6.359375 -8.609375 C 6.910156 -8.171875 7.1875 -7.507812 7.1875 -6.625 C 7.1875 -5.394531 6.566406 -4.566406 5.328125 -4.140625 L 7.875 0 L 6.515625 0 L 4.265625 -3.828125 Z M 2.421875 -3.828125 "/></g></g></g><g fill="#000000" fill-opacity="1"><g transform="translate(244.176708, 95.542776)"><g><path d="M 2.171875 -6.953125 L 2.171875 -2.46875 C 2.171875 -1.914062 2.296875 -1.5 2.546875 -1.21875 C 2.804688 -0.945312 3.195312 -0.8125 3.71875 -0.8125 C 4.4375 -0.8125 4.957031 -1.007812 5.28125 -1.40625 C 5.601562 -1.800781 5.765625 -2.441406 5.765625 -3.328125 L 5.765625 -6.953125 L 6.921875 -6.953125 L 6.921875 0 L 5.984375 0 L 5.8125 -0.921875 L 5.75 -0.921875 C 5.550781 -0.585938 5.257812 -0.328125 4.875 -0.140625 C 4.5 0.0351562 4.054688 0.125 3.546875 0.125 C 2.710938 0.125 2.082031 -0.0703125 1.65625 -0.46875 C 1.238281 -0.875 1.03125 -1.519531 1.03125 -2.40625 L 1.03125 -6.953125 Z M 2.171875 -6.953125 "/></g></g></g><g fill="#000000" fill-opacity="1"><g transform="translate(252.197385, 95.542776)"><g><path d="M 2.234375 0 L 1.109375 0 L 1.109375 -9.859375 L 2.234375 -9.859375 Z M 2.234375 0 "/></g></g></g><g fill="#000000" fill-opacity="1"><g transform="translate(255.542501, 95.542776)"><g><path d="M 4.0625 0.125 C 3.019531 0.125 2.203125 -0.1875 1.609375 -0.8125 C 1.015625 -1.445312 0.71875 -2.316406 0.71875 -3.421875 C 0.71875 -4.535156 0.992188 -5.421875 1.546875 -6.078125 C 2.097656 -6.742188 2.84375 -7.078125 3.78125 -7.078125 C 4.65625 -7.078125 5.351562 -6.796875 5.875 -6.234375 C 6.394531 -5.671875 6.65625 -4.90625 6.65625 -3.9375 L 6.65625 -3.25 L 1.890625 -3.25 C 1.910156 -2.46875 2.109375 -1.867188 2.484375 -1.453125 C 2.867188 -1.046875 3.410156 -0.84375 4.109375 -0.84375 C 4.484375 -0.84375 4.835938 -0.875 5.171875 -0.9375 C 5.503906 -1 5.894531 -1.128906 6.34375 -1.328125 L 6.34375 -0.328125 C 5.957031 -0.160156 5.59375 -0.046875 5.25 0.015625 C 4.914062 0.0859375 4.519531 0.125 4.0625 0.125 Z M 3.78125 -6.15625 C 3.226562 -6.15625 2.789062 -5.976562 2.46875 -5.625 C 2.15625 -5.269531 1.972656 -4.78125 1.921875 -4.15625 L 5.453125 -4.15625 C 5.453125 -4.8125 5.304688 -5.304688 5.015625 -5.640625 C 4.722656 -5.984375 4.3125 -6.15625 3.78125 -6.15625 Z M 3.78125 -6.15625 "/></g></g></g><g fill="#000000" fill-opacity="1"><g transform="translate(262.859948, 95.542776)"><g/></g></g><g fill="#000000" fill-opacity="1"><g transform="translate(266.230406, 95.542776)"><g><path d="M 6.515625 -2.46875 C 6.515625 -1.664062 6.222656 -1.03125 5.640625 -0.5625 C 5.054688 -0.101562 4.242188 0.125 3.203125 0.125 C 2.109375 0.125 1.257812 -0.0195312 0.65625 -0.3125 L 0.65625 -1.421875 C 1.050781 -1.253906 1.476562 -1.117188 1.9375 -1.015625 C 2.40625 -0.921875 2.84375 -0.875 3.25 -0.875 C 3.945312 -0.875 4.46875 -1.003906 4.8125 -1.265625 C 5.164062 -1.535156 5.34375 -1.90625 5.34375 -2.375 C 5.34375 -2.6875 5.28125 -2.941406 5.15625 -3.140625 C 5.03125 -3.335938 4.816406 -3.519531 4.515625 -3.6875 C 4.222656 -3.863281 3.773438 -4.0625 3.171875 -4.28125 C 2.304688 -4.59375 1.691406 -4.957031 1.328125 -5.375 C 0.960938 -5.800781 0.78125 -6.351562 0.78125 -7.03125 C 0.78125 -7.75 1.050781 -8.320312 1.59375 -8.75 C 2.132812 -9.175781 2.847656 -9.390625 3.734375 -9.390625 C 4.660156 -9.390625 5.507812 -9.21875 6.28125 -8.875 L 5.921875 -7.875 C 5.128906 -8.195312 4.390625 -8.359375 3.703125 -8.359375 C 3.160156 -8.359375 2.734375 -8.238281 2.421875 -8 C 2.109375 -7.769531 1.953125 -7.441406 1.953125 -7.015625 C 1.953125 -6.710938 2.007812 -6.457031 2.125 -6.25 C 2.25 -6.050781 2.445312 -5.867188 2.71875 -5.703125 C 2.988281 -5.546875 3.410156 -5.359375 3.984375 -5.140625 C 4.671875 -4.890625 5.179688 -4.644531 5.515625 -4.40625 C 5.859375 -4.164062 6.109375 -3.890625 6.265625 -3.578125 C 6.429688 -3.273438 6.515625 -2.90625 6.515625 -2.46875 Z M 6.515625 -2.46875 "/></g></g></g><g fill="#000000" fill-opacity="1"><g transform="translate(273.351448, 95.542776)"><g><path d="M 4.0625 0.125 C 3.019531 0.125 2.203125 -0.1875 1.609375 -0.8125 C 1.015625 -1.445312 0.71875 -2.316406 0.71875 -3.421875 C 0.71875 -4.535156 0.992188 -5.421875 1.546875 -6.078125 C 2.097656 -6.742188 2.84375 -7.078125 3.78125 -7.078125 C 4.65625 -7.078125 5.351562 -6.796875 5.875 -6.234375 C 6.394531 -5.671875 6.65625 -4.90625 6.65625 -3.9375 L 6.65625 -3.25 L 1.890625 -3.25 C 1.910156 -2.46875 2.109375 -1.867188 2.484375 -1.453125 C 2.867188 -1.046875 3.410156 -0.84375 4.109375 -0.84375 C 4.484375 -0.84375 4.835938 -0.875 5.171875 -0.9375 C 5.503906 -1 5.894531 -1.128906 6.34375 -1.328125 L 6.34375 -0.328125 C 5.957031 -0.160156 5.59375 -0.046875 5.25 0.015625 C 4.914062 0.0859375 4.519531 0.125 4.0625 0.125 Z M 3.78125 -6.15625 C 3.226562 -6.15625 2.789062 -5.976562 2.46875 -5.625 C 2.15625 -5.269531 1.972656 -4.78125 1.921875 -4.15625 L 5.453125 -4.15625 C 5.453125 -4.8125 5.304688 -5.304688 5.015625 -5.640625 C 4.722656 -5.984375 4.3125 -6.15625 3.78125 -6.15625 Z M 3.78125 -6.15625 "/></g></g></g><g fill="#000000" fill-opacity="1"><g transform="translate(280.668896, 95.542776)"><g><path d="M 3.421875 -0.796875 C 3.566406 -0.796875 3.738281 -0.8125 3.9375 -0.84375 C 4.144531 -0.875 4.296875 -0.910156 4.390625 -0.953125 L 4.390625 -0.078125 C 4.285156 -0.0234375 4.125 0.0195312 3.90625 0.0625 C 3.6875 0.101562 3.460938 0.125 3.234375 0.125 C 1.867188 0.125 1.1875 -0.585938 1.1875 -2.015625 L 1.1875 -6.0625 L 0.203125 -6.0625 L 0.203125 -6.609375 L 1.203125 -7.0625 L 1.65625 -8.546875 L 2.34375 -8.546875 L 2.34375 -6.953125 L 4.34375 -6.953125 L 4.34375 -6.0625 L 2.34375 -6.0625 L 2.34375 -2.046875 C 2.34375 -1.648438 2.4375 -1.34375 2.625 -1.125 C 2.8125 -0.90625 3.078125 -0.796875 3.421875 -0.796875 Z M 3.421875 -0.796875 "/></g></g></g></svg>