<svg xmlns="http://www.w3.org/2000/svg" xmlns:xlink="http://www.w3.org/1999/xlink" width="762" zoomAndPan="magnify" viewBox="0 0 571.5 193.499995" height="258" preserveAspectRatio="xMidYMid meet" version="1.0"><defs><filter x="0%" y="0%" width="100%" height="100%" id="41bba26bbd"><feColorMatrix values="0 0 0 0 1 0 0 0 0 1 0 0 0 0 1 0 0 0 1 0" color-interpolation-filters="sRGB"/></filter><g/><clipPath id="544c0f6970"><path d="M 0.488281 0 L 570 0 L 570 192.527344 L 0.488281 192.527344 Z M 0.488281 0 " clip-rule="nonzero"/></clipPath><clipPath id="d88bb97e38"><path d="M 8.714844 0 L 561.722656 0 C 566.265625 0 569.953125 3.683594 569.953125 8.230469 L 569.953125 184.296875 C 569.953125 188.84375 566.265625 192.527344 561.722656 192.527344 L 8.714844 192.527344 C 4.171875 192.527344 0.488281 188.84375 0.488281 184.296875 L 0.488281 8.230469 C 0.488281 3.683594 4.171875 0 8.714844 0 Z M 8.714844 0 " clip-rule="nonzero"/></clipPath><mask id="d3f6595210"><g filter="url(#41bba26bbd)"><rect x="-57.15" width="685.8" fill="#000000" y="-19.349999" height="232.199994" fill-opacity="0.5"/></g></mask><clipPath id="fedae2f9f8"><path d="M 0.648438 1 L 144.445312 1 L 144.445312 53.664062 L 0.648438 53.664062 Z M 0.648438 1 " clip-rule="nonzero"/></clipPath><clipPath id="1852a359e2"><path d="M 108.371094 1 C 128.203125 1 144.277344 12.789062 144.277344 27.332031 C 144.277344 41.875 128.203125 53.664062 108.371094 53.664062 L 36.554688 53.664062 C 16.726562 53.664062 0.648438 41.875 0.648438 27.332031 C 0.648438 12.789062 16.726562 1 36.554688 1 Z M 108.371094 1 " clip-rule="nonzero"/></clipPath><clipPath id="b6d89668d6"><rect x="0" width="145" y="0" height="54"/></clipPath><mask id="7821f48cf8"><g filter="url(#41bba26bbd)"><rect x="-57.15" width="685.8" fill="#000000" y="-19.349999" height="232.199994" fill-opacity="0.5"/></g></mask><clipPath id="8441c6e3fa"><path d="M 1.023438 1 L 144.820312 1 L 144.820312 53.664062 L 1.023438 53.664062 Z M 1.023438 1 " clip-rule="nonzero"/></clipPath><clipPath id="bd16b20bd7"><path d="M 108.746094 1 C 128.574219 1 144.652344 12.789062 144.652344 27.332031 C 144.652344 41.875 128.574219 53.664062 108.746094 53.664062 L 36.929688 53.664062 C 17.101562 53.664062 1.023438 41.875 1.023438 27.332031 C 1.023438 12.789062 17.101562 1 36.929688 1 Z M 108.746094 1 " clip-rule="nonzero"/></clipPath><clipPath id="0687093679"><rect x="0" width="145" y="0" height="54"/></clipPath><mask id="7df98a0047"><g filter="url(#41bba26bbd)"><rect x="-57.15" width="685.8" fill="#000000" y="-19.349999" height="232.199994" fill-opacity="0.5"/></g></mask><clipPath id="7e3043fbe6"><path d="M 0.398438 1 L 144 1 L 144 53.664062 L 0.398438 53.664062 Z M 0.398438 1 " clip-rule="nonzero"/></clipPath><clipPath id="2825df02da"><path d="M 108.121094 1 C 127.949219 1 144.027344 12.789062 144.027344 27.332031 C 144.027344 41.875 127.949219 53.664062 108.121094 53.664062 L 36.304688 53.664062 C 16.472656 53.664062 0.398438 41.875 0.398438 27.332031 C 0.398438 12.789062 16.472656 1 36.304688 1 Z M 108.121094 1 " clip-rule="nonzero"/></clipPath><clipPath id="58aecd1f3f"><rect x="0" width="145" y="0" height="54"/></clipPath><clipPath id="0534ec7925"><path d="M 18.535156 17 L 162.144531 17 L 162.144531 69.363281 L 18.535156 69.363281 Z M 18.535156 17 " clip-rule="nonzero"/></clipPath><clipPath id="91b90e9f09"><path d="M 126.242188 17 C 146.070312 17 162.144531 28.785156 162.144531 43.328125 C 162.144531 57.867188 146.070312 69.65625 126.242188 69.65625 L 54.4375 69.65625 C 34.609375 69.65625 18.535156 57.867188 18.535156 43.328125 C 18.535156 28.785156 34.609375 17 54.4375 17 Z M 126.242188 17 " clip-rule="nonzero"/></clipPath><mask id="5c9ad9f8c6"><g filter="url(#41bba26bbd)"><rect x="-57.15" width="685.8" fill="#000000" y="-19.349999" height="232.199994" fill-opacity="0.5"/></g></mask><clipPath id="5ee717538f"><path d="M 1.03125 0.878906 L 533.550781 0.878906 L 533.550781 55.757812 L 1.03125 55.757812 Z M 1.03125 0.878906 " clip-rule="nonzero"/></clipPath><clipPath id="ac62da35f2"><path d="M 8.511719 0.878906 L 525.925781 0.878906 C 527.910156 0.878906 529.8125 1.664062 531.21875 3.070312 C 532.621094 4.472656 533.40625 6.375 533.40625 8.359375 L 533.40625 48.277344 C 533.40625 50.261719 532.621094 52.164062 531.21875 53.566406 C 529.8125 54.972656 527.910156 55.757812 525.925781 55.757812 L 8.511719 55.757812 C 6.527344 55.757812 4.625 54.972656 3.222656 53.566406 C 1.820312 52.164062 1.03125 50.261719 1.03125 48.277344 L 1.03125 8.359375 C 1.03125 6.375 1.820312 4.472656 3.222656 3.070312 C 4.625 1.664062 6.527344 0.878906 8.511719 0.878906 Z M 8.511719 0.878906 " clip-rule="nonzero"/></clipPath><clipPath id="22930d6c23"><rect x="0" width="534" y="0" height="56"/></clipPath><clipPath id="b73b70158a"><path d="M 19.042969 120.878906 L 551.652344 120.878906 L 551.652344 175.488281 L 19.042969 175.488281 Z M 19.042969 120.878906 " clip-rule="nonzero"/></clipPath><clipPath id="ca59522de5"><path d="M 26.523438 120.878906 L 543.90625 120.878906 C 545.890625 120.878906 547.792969 121.664062 549.195312 123.070312 C 550.597656 124.472656 551.386719 126.375 551.386719 128.359375 L 551.386719 168.273438 C 551.386719 170.257812 550.597656 172.160156 549.195312 173.5625 C 547.792969 174.96875 545.890625 175.753906 543.90625 175.753906 L 26.523438 175.753906 C 24.539062 175.753906 22.636719 174.96875 21.234375 173.5625 C 19.832031 172.160156 19.042969 170.257812 19.042969 168.273438 L 19.042969 128.359375 C 19.042969 126.375 19.832031 124.472656 21.234375 123.070312 C 22.636719 121.664062 24.539062 120.878906 26.523438 120.878906 Z M 26.523438 120.878906 " clip-rule="nonzero"/></clipPath><clipPath id="7b7ed75278"><path d="M 213.03125 17 L 356.644531 17 L 356.644531 69.363281 L 213.03125 69.363281 Z M 213.03125 17 " clip-rule="nonzero"/></clipPath><clipPath id="1ae84034d5"><path d="M 320.742188 17 C 340.570312 17 356.644531 28.785156 356.644531 43.328125 C 356.644531 57.867188 340.570312 69.65625 320.742188 69.65625 L 248.933594 69.65625 C 229.105469 69.65625 213.03125 57.867188 213.03125 43.328125 C 213.03125 28.785156 229.105469 17 248.933594 17 Z M 320.742188 17 " clip-rule="nonzero"/></clipPath><clipPath id="f25cbab6c8"><path d="M 407.40625 17 L 551.015625 17 L 551.015625 69.363281 L 407.40625 69.363281 Z M 407.40625 17 " clip-rule="nonzero"/></clipPath><clipPath id="95335400bd"><path d="M 515.113281 17 C 534.941406 17 551.015625 28.785156 551.015625 43.328125 C 551.015625 57.867188 534.941406 69.65625 515.113281 69.65625 L 443.308594 69.65625 C 423.480469 69.65625 407.40625 57.867188 407.40625 43.328125 C 407.40625 28.785156 423.480469 17 443.308594 17 Z M 515.113281 17 " clip-rule="nonzero"/></clipPath><clipPath id="851eda666d"><path d="M 85.082031 70.003906 L 95.554688 70.003906 L 95.554688 120.875 L 85.082031 120.875 Z M 85.082031 70.003906 " clip-rule="nonzero"/></clipPath><clipPath id="2a3f12f041"><path d="M 280 70.003906 L 290.3125 70.003906 L 290.3125 120.875 L 280 120.875 Z M 280 70.003906 " clip-rule="nonzero"/></clipPath><clipPath id="7185649ce4"><path d="M 474.617188 70.003906 L 485.089844 70.003906 L 485.089844 120.875 L 474.617188 120.875 Z M 474.617188 70.003906 " clip-rule="nonzero"/></clipPath></defs><g clip-path="url(#544c0f6970)"><g clip-path="url(#d88bb97e38)"><path fill="#dddddd" d="M 0.488281 0 L 569.796875 0 L 569.796875 192.527344 L 0.488281 192.527344 Z M 0.488281 0 " fill-opacity="1" fill-rule="nonzero"/></g></g><g mask="url(#d3f6595210)"><g transform="matrix(1, 0, 0, 1, 18, 16)"><g clip-path="url(#b6d89668d6)"><g clip-path="url(#fedae2f9f8)"><g clip-path="url(#1852a359e2)"><path fill="#6aab4e" d="M 0.648438 1 L 144.242188 1 L 144.242188 53.664062 L 0.648438 53.664062 Z M 0.648438 1 " fill-opacity="1" fill-rule="nonzero"/></g></g></g></g></g><g mask="url(#7821f48cf8)"><g transform="matrix(1, 0, 0, 1, 212, 16)"><g clip-path="url(#0687093679)"><g clip-path="url(#8441c6e3fa)"><g clip-path="url(#bd16b20bd7)"><path fill="#6aab4e" d="M 1.023438 1 L 144.613281 1 L 144.613281 53.664062 L 1.023438 53.664062 Z M 1.023438 1 " fill-opacity="1" fill-rule="nonzero"/></g></g></g></g></g><g mask="url(#7df98a0047)"><g transform="matrix(1, 0, 0, 1, 407, 16)"><g clip-path="url(#58aecd1f3f)"><g clip-path="url(#7e3043fbe6)"><g clip-path="url(#2825df02da)"><path fill="#6aab4e" d="M 0.398438 1 L 143.988281 1 L 143.988281 53.664062 L 0.398438 53.664062 Z M 0.398438 1 " fill-opacity="1" fill-rule="nonzero"/></g></g></g></g></g><g clip-path="url(#0534ec7925)"><g clip-path="url(#91b90e9f09)"><path stroke-linecap="butt" transform="matrix(0.748067, 0, 0, 0.748067, 18.535632, 16.999)" fill="none" stroke-linejoin="miter" d="M 143.979823 0.00133699 C 170.485638 0.00133699 191.97331 15.755482 191.97331 35.196212 C 191.97331 54.631721 170.485638 70.391088 143.979823 70.391088 L 47.992851 70.391088 C 21.487036 70.391088 -0.000635902 54.631721 -0.000635902 35.196212 C -0.000635902 15.755482 21.487036 0.00133699 47.992851 0.00133699 Z M 143.979823 0.00133699 " stroke="#545454" stroke-width="4" stroke-opacity="1" stroke-miterlimit="4"/></g></g><g fill="#000000" fill-opacity="1"><g transform="translate(61.539918, 47.669745)"><g><path d="M 5.21875 -8.359375 C 4.226562 -8.359375 3.445312 -8.023438 2.875 -7.359375 C 2.300781 -6.691406 2.015625 -5.78125 2.015625 -4.625 C 2.015625 -3.4375 2.289062 -2.515625 2.84375 -1.859375 C 3.394531 -1.210938 4.1875 -0.890625 5.21875 -0.890625 C 5.875 -0.890625 6.613281 -1.015625 7.4375 -1.265625 L 7.4375 -0.25 C 7.039062 -0.101562 6.660156 -0.00390625 6.296875 0.046875 C 5.929688 0.0976562 5.515625 0.125 5.046875 0.125 C 3.679688 0.125 2.628906 -0.285156 1.890625 -1.109375 C 1.160156 -1.941406 0.796875 -3.117188 0.796875 -4.640625 C 0.796875 -5.597656 0.96875 -6.429688 1.3125 -7.140625 C 1.664062 -7.859375 2.179688 -8.410156 2.859375 -8.796875 C 3.535156 -9.191406 4.328125 -9.390625 5.234375 -9.390625 C 6.210938 -9.390625 7.066406 -9.207031 7.796875 -8.84375 L 7.328125 -7.859375 C 6.585938 -8.191406 5.882812 -8.359375 5.21875 -8.359375 Z M 5.21875 -8.359375 "/></g></g></g><g fill="#000000" fill-opacity="1"><g transform="translate(69.730153, 47.669745)"><g><path d="M 7.140625 -3.484375 C 7.140625 -2.347656 6.851562 -1.460938 6.28125 -0.828125 C 5.707031 -0.191406 4.914062 0.125 3.90625 0.125 C 3.269531 0.125 2.707031 -0.0195312 2.21875 -0.3125 C 1.738281 -0.601562 1.367188 -1.023438 1.109375 -1.578125 C 0.847656 -2.128906 0.71875 -2.765625 0.71875 -3.484375 C 0.71875 -4.617188 1 -5.5 1.5625 -6.125 C 2.125 -6.757812 2.914062 -7.078125 3.9375 -7.078125 C 4.925781 -7.078125 5.707031 -6.753906 6.28125 -6.109375 C 6.851562 -5.460938 7.140625 -4.585938 7.140625 -3.484375 Z M 1.890625 -3.484375 C 1.890625 -2.609375 2.0625 -1.941406 2.40625 -1.484375 C 2.75 -1.035156 3.257812 -0.8125 3.9375 -0.8125 C 4.59375 -0.8125 5.09375 -1.035156 5.4375 -1.484375 C 5.789062 -1.941406 5.96875 -2.609375 5.96875 -3.484375 C 5.96875 -4.359375 5.789062 -5.015625 5.4375 -5.453125 C 5.09375 -5.898438 4.582031 -6.125 3.90625 -6.125 C 2.5625 -6.125 1.890625 -5.242188 1.890625 -3.484375 Z M 1.890625 -3.484375 "/></g></g></g><g fill="#000000" fill-opacity="1"><g transform="translate(77.445678, 47.669745)"><g><path d="M 2.640625 0 L 0 -6.953125 L 1.21875 -6.953125 L 2.703125 -2.859375 C 2.992188 -2.035156 3.175781 -1.421875 3.25 -1.015625 L 3.3125 -1.015625 C 3.320312 -1.066406 3.332031 -1.125 3.34375 -1.1875 C 3.363281 -1.257812 3.382812 -1.335938 3.40625 -1.421875 C 3.4375 -1.503906 3.597656 -1.984375 3.890625 -2.859375 L 5.375 -6.953125 L 6.578125 -6.953125 L 3.9375 0 Z M 2.640625 0 "/></g></g></g><g fill="#000000" fill-opacity="1"><g transform="translate(84.028247, 47.669745)"><g><path d="M 4.0625 0.125 C 3.019531 0.125 2.203125 -0.1875 1.609375 -0.8125 C 1.015625 -1.445312 0.71875 -2.316406 0.71875 -3.421875 C 0.71875 -4.535156 0.992188 -5.421875 1.546875 -6.078125 C 2.097656 -6.742188 2.84375 -7.078125 3.78125 -7.078125 C 4.65625 -7.078125 5.351562 -6.796875 5.875 -6.234375 C 6.394531 -5.671875 6.65625 -4.90625 6.65625 -3.9375 L 6.65625 -3.25 L 1.890625 -3.25 C 1.910156 -2.46875 2.109375 -1.867188 2.484375 -1.453125 C 2.867188 -1.046875 3.410156 -0.84375 4.109375 -0.84375 C 4.484375 -0.84375 4.835938 -0.875 5.171875 -0.9375 C 5.503906 -1 5.894531 -1.128906 6.34375 -1.328125 L 6.34375 -0.328125 C 5.957031 -0.160156 5.59375 -0.046875 5.25 0.015625 C 4.914062 0.0859375 4.519531 0.125 4.0625 0.125 Z M 3.78125 -6.15625 C 3.226562 -6.15625 2.789062 -5.976562 2.46875 -5.625 C 2.15625 -5.269531 1.972656 -4.78125 1.921875 -4.15625 L 5.453125 -4.15625 C 5.453125 -4.8125 5.304688 -5.304688 5.015625 -5.640625 C 4.722656 -5.984375 4.3125 -6.15625 3.78125 -6.15625 Z M 3.78125 -6.15625 "/></g></g></g><g fill="#000000" fill-opacity="1"><g transform="translate(91.338702, 47.669745)"><g><path d="M 4.34375 -7.078125 C 4.65625 -7.078125 4.925781 -7.050781 5.15625 -7 L 5.015625 -5.953125 C 4.765625 -6.015625 4.515625 -6.046875 4.265625 -6.046875 C 3.898438 -6.046875 3.5625 -5.941406 3.25 -5.734375 C 2.9375 -5.535156 2.6875 -5.253906 2.5 -4.890625 C 2.320312 -4.535156 2.234375 -4.140625 2.234375 -3.703125 L 2.234375 0 L 1.109375 0 L 1.109375 -6.953125 L 2.03125 -6.953125 L 2.171875 -5.6875 L 2.21875 -5.6875 C 2.476562 -6.144531 2.789062 -6.488281 3.15625 -6.71875 C 3.519531 -6.957031 3.914062 -7.078125 4.34375 -7.078125 Z M 4.34375 -7.078125 "/></g></g></g><g fill="#000000" fill-opacity="1"><g transform="translate(96.566769, 47.669745)"><g><path d="M 5.390625 0 L 5.171875 -0.984375 L 5.125 -0.984375 C 4.78125 -0.546875 4.4375 -0.25 4.09375 -0.09375 C 3.75 0.0507812 3.3125 0.125 2.78125 0.125 C 2.101562 0.125 1.566406 -0.0507812 1.171875 -0.40625 C 0.785156 -0.769531 0.59375 -1.28125 0.59375 -1.9375 C 0.59375 -3.34375 1.707031 -4.078125 3.9375 -4.140625 L 5.109375 -4.1875 L 5.109375 -4.609375 C 5.109375 -5.128906 4.992188 -5.515625 4.765625 -5.765625 C 4.535156 -6.023438 4.171875 -6.15625 3.671875 -6.15625 C 3.304688 -6.15625 2.957031 -6.097656 2.625 -5.984375 C 2.300781 -5.867188 1.992188 -5.742188 1.703125 -5.609375 L 1.359375 -6.46875 C 1.710938 -6.65625 2.09375 -6.800781 2.5 -6.90625 C 2.914062 -7.007812 3.328125 -7.0625 3.734375 -7.0625 C 4.578125 -7.0625 5.203125 -6.875 5.609375 -6.5 C 6.015625 -6.132812 6.21875 -5.546875 6.21875 -4.734375 L 6.21875 0 Z M 3.046875 -0.796875 C 3.679688 -0.796875 4.179688 -0.96875 4.546875 -1.3125 C 4.910156 -1.65625 5.09375 -2.144531 5.09375 -2.78125 L 5.09375 -3.40625 L 4.078125 -3.359375 C 3.273438 -3.328125 2.691406 -3.195312 2.328125 -2.96875 C 1.960938 -2.75 1.78125 -2.398438 1.78125 -1.921875 C 1.78125 -1.554688 1.890625 -1.273438 2.109375 -1.078125 C 2.328125 -0.890625 2.640625 -0.796875 3.046875 -0.796875 Z M 3.046875 -0.796875 "/></g></g></g><g fill="#000000" fill-opacity="1"><g transform="translate(103.839248, 47.669745)"><g><path d="M 3.75 -0.796875 C 4.445312 -0.796875 4.953125 -0.984375 5.265625 -1.359375 C 5.585938 -1.742188 5.75 -2.351562 5.75 -3.1875 L 5.75 -3.46875 C 5.75 -4.394531 5.585938 -5.066406 5.265625 -5.484375 C 4.953125 -5.910156 4.4375 -6.125 3.71875 -6.125 C 3.132812 -6.125 2.679688 -5.890625 2.359375 -5.421875 C 2.046875 -4.960938 1.890625 -4.304688 1.890625 -3.453125 C 1.890625 -2.585938 2.046875 -1.925781 2.359375 -1.46875 C 2.671875 -1.019531 3.132812 -0.796875 3.75 -0.796875 Z M 5.75 -0.0625 L 5.78125 -0.921875 L 5.734375 -0.921875 C 5.265625 -0.222656 4.546875 0.125 3.578125 0.125 C 2.679688 0.125 1.976562 -0.1875 1.46875 -0.8125 C 0.96875 -1.4375 0.71875 -2.320312 0.71875 -3.46875 C 0.71875 -4.582031 0.96875 -5.460938 1.46875 -6.109375 C 1.976562 -6.753906 2.675781 -7.078125 3.5625 -7.078125 C 4.507812 -7.078125 5.238281 -6.726562 5.75 -6.03125 L 5.8125 -6.03125 L 5.96875 -6.953125 L 6.875 -6.953125 L 6.875 0.109375 C 6.875 1.109375 6.617188 1.859375 6.109375 2.359375 C 5.609375 2.859375 4.828125 3.109375 3.765625 3.109375 C 2.742188 3.109375 1.910156 2.960938 1.265625 2.671875 L 1.265625 1.625 C 1.929688 1.988281 2.785156 2.171875 3.828125 2.171875 C 4.421875 2.171875 4.890625 1.992188 5.234375 1.640625 C 5.578125 1.296875 5.75 0.816406 5.75 0.203125 Z M 5.75 -0.0625 "/></g></g></g><g fill="#000000" fill-opacity="1"><g transform="translate(111.814284, 47.669745)"><g><path d="M 4.0625 0.125 C 3.019531 0.125 2.203125 -0.1875 1.609375 -0.8125 C 1.015625 -1.445312 0.71875 -2.316406 0.71875 -3.421875 C 0.71875 -4.535156 0.992188 -5.421875 1.546875 -6.078125 C 2.097656 -6.742188 2.84375 -7.078125 3.78125 -7.078125 C 4.65625 -7.078125 5.351562 -6.796875 5.875 -6.234375 C 6.394531 -5.671875 6.65625 -4.90625 6.65625 -3.9375 L 6.65625 -3.25 L 1.890625 -3.25 C 1.910156 -2.46875 2.109375 -1.867188 2.484375 -1.453125 C 2.867188 -1.046875 3.410156 -0.84375 4.109375 -0.84375 C 4.484375 -0.84375 4.835938 -0.875 5.171875 -0.9375 C 5.503906 -1 5.894531 -1.128906 6.34375 -1.328125 L 6.34375 -0.328125 C 5.957031 -0.160156 5.59375 -0.046875 5.25 0.015625 C 4.914062 0.0859375 4.519531 0.125 4.0625 0.125 Z M 3.78125 -6.15625 C 3.226562 -6.15625 2.789062 -5.976562 2.46875 -5.625 C 2.15625 -5.269531 1.972656 -4.78125 1.921875 -4.15625 L 5.453125 -4.15625 C 5.453125 -4.8125 5.304688 -5.304688 5.015625 -5.640625 C 4.722656 -5.984375 4.3125 -6.15625 3.78125 -6.15625 Z M 3.78125 -6.15625 "/></g></g></g><g mask="url(#5c9ad9f8c6)"><g transform="matrix(1, 0, 0, 1, 18, 120)"><g clip-path="url(#22930d6c23)"><g clip-path="url(#5ee717538f)"><g clip-path="url(#ac62da35f2)"><path fill="#ffffff" d="M 1.03125 0.878906 L 533.335938 0.878906 L 533.335938 55.757812 L 1.03125 55.757812 Z M 1.03125 0.878906 " fill-opacity="1" fill-rule="nonzero"/></g></g></g></g></g><g clip-path="url(#b73b70158a)"><g clip-path="url(#ca59522de5)"><path stroke-linecap="butt" transform="matrix(0.748067, 0, 0, 0.748067, 19.042438, 120.87759)" fill="none" stroke-linejoin="miter" d="M 10.00044 0.00175895 L 701.626736 0.00175895 C 704.279406 0.00175895 706.822418 1.051339 708.697042 2.931184 C 710.571665 4.805807 711.626467 7.34882 711.626467 10.00149 L 711.626467 63.357756 C 711.626467 66.010426 710.571665 68.553439 708.697042 70.428062 C 706.822418 72.307907 704.279406 73.357487 701.626736 73.357487 L 10.00044 73.357487 C 7.34777 73.357487 4.804758 72.307907 2.930134 70.428062 C 1.055511 68.553439 0.000709368 66.010426 0.000709368 63.357756 L 0.000709368 10.00149 C 0.000709368 7.34882 1.055511 4.805807 2.930134 2.931184 C 4.804758 1.051339 7.34777 0.00175895 10.00044 0.00175895 Z M 10.00044 0.00175895 " stroke="#545454" stroke-width="4" stroke-opacity="1" stroke-miterlimit="4"/></g></g><g fill="#000000" fill-opacity="1"><g transform="translate(259.77953, 153.04447)"><g><path d="M 6.515625 -2.46875 C 6.515625 -1.664062 6.222656 -1.03125 5.640625 -0.5625 C 5.054688 -0.101562 4.242188 0.125 3.203125 0.125 C 2.109375 0.125 1.257812 -0.0195312 0.65625 -0.3125 L 0.65625 -1.421875 C 1.050781 -1.253906 1.476562 -1.117188 1.9375 -1.015625 C 2.40625 -0.921875 2.84375 -0.875 3.25 -0.875 C 3.945312 -0.875 4.46875 -1.003906 4.8125 -1.265625 C 5.164062 -1.535156 5.34375 -1.90625 5.34375 -2.375 C 5.34375 -2.6875 5.28125 -2.941406 5.15625 -3.140625 C 5.03125 -3.335938 4.816406 -3.519531 4.515625 -3.6875 C 4.222656 -3.863281 3.773438 -4.0625 3.171875 -4.28125 C 2.304688 -4.59375 1.691406 -4.957031 1.328125 -5.375 C 0.960938 -5.800781 0.78125 -6.351562 0.78125 -7.03125 C 0.78125 -7.75 1.050781 -8.320312 1.59375 -8.75 C 2.132812 -9.175781 2.847656 -9.390625 3.734375 -9.390625 C 4.660156 -9.390625 5.507812 -9.21875 6.28125 -8.875 L 5.921875 -7.875 C 5.128906 -8.195312 4.390625 -8.359375 3.703125 -8.359375 C 3.160156 -8.359375 2.734375 -8.238281 2.421875 -8 C 2.109375 -7.769531 1.953125 -7.441406 1.953125 -7.015625 C 1.953125 -6.710938 2.007812 -6.457031 2.125 -6.25 C 2.25 -6.050781 2.445312 -5.867188 2.71875 -5.703125 C 2.988281 -5.546875 3.410156 -5.359375 3.984375 -5.140625 C 4.671875 -4.890625 5.179688 -4.644531 5.515625 -4.40625 C 5.859375 -4.164062 6.109375 -3.890625 6.265625 -3.578125 C 6.429688 -3.273438 6.515625 -2.90625 6.515625 -2.46875 Z M 6.515625 -2.46875 "/></g></g></g><g fill="#000000" fill-opacity="1"><g transform="translate(266.893768, 153.04447)"><g><path d="M 3.421875 -0.796875 C 3.566406 -0.796875 3.738281 -0.8125 3.9375 -0.84375 C 4.144531 -0.875 4.296875 -0.910156 4.390625 -0.953125 L 4.390625 -0.078125 C 4.285156 -0.0234375 4.125 0.0195312 3.90625 0.0625 C 3.6875 0.101562 3.460938 0.125 3.234375 0.125 C 1.867188 0.125 1.1875 -0.585938 1.1875 -2.015625 L 1.1875 -6.0625 L 0.203125 -6.0625 L 0.203125 -6.609375 L 1.203125 -7.0625 L 1.65625 -8.546875 L 2.34375 -8.546875 L 2.34375 -6.953125 L 4.34375 -6.953125 L 4.34375 -6.0625 L 2.34375 -6.0625 L 2.34375 -2.046875 C 2.34375 -1.648438 2.4375 -1.34375 2.625 -1.125 C 2.8125 -0.90625 3.078125 -0.796875 3.421875 -0.796875 Z M 3.421875 -0.796875 "/></g></g></g><g fill="#000000" fill-opacity="1"><g transform="translate(271.571196, 153.04447)"><g><path d="M 4.34375 -7.078125 C 4.65625 -7.078125 4.925781 -7.050781 5.15625 -7 L 5.015625 -5.953125 C 4.765625 -6.015625 4.515625 -6.046875 4.265625 -6.046875 C 3.898438 -6.046875 3.5625 -5.941406 3.25 -5.734375 C 2.9375 -5.535156 2.6875 -5.253906 2.5 -4.890625 C 2.320312 -4.535156 2.234375 -4.140625 2.234375 -3.703125 L 2.234375 0 L 1.109375 0 L 1.109375 -6.953125 L 2.03125 -6.953125 L 2.171875 -5.6875 L 2.21875 -5.6875 C 2.476562 -6.144531 2.789062 -6.488281 3.15625 -6.71875 C 3.519531 -6.957031 3.914062 -7.078125 4.34375 -7.078125 Z M 4.34375 -7.078125 "/></g></g></g><g fill="#000000" fill-opacity="1"><g transform="translate(276.799263, 153.04447)"><g><path d="M 5.390625 0 L 5.171875 -0.984375 L 5.125 -0.984375 C 4.78125 -0.546875 4.4375 -0.25 4.09375 -0.09375 C 3.75 0.0507812 3.3125 0.125 2.78125 0.125 C 2.101562 0.125 1.566406 -0.0507812 1.171875 -0.40625 C 0.785156 -0.769531 0.59375 -1.28125 0.59375 -1.9375 C 0.59375 -3.34375 1.707031 -4.078125 3.9375 -4.140625 L 5.109375 -4.1875 L 5.109375 -4.609375 C 5.109375 -5.128906 4.992188 -5.515625 4.765625 -5.765625 C 4.535156 -6.023438 4.171875 -6.15625 3.671875 -6.15625 C 3.304688 -6.15625 2.957031 -6.097656 2.625 -5.984375 C 2.300781 -5.867188 1.992188 -5.742188 1.703125 -5.609375 L 1.359375 -6.46875 C 1.710938 -6.65625 2.09375 -6.800781 2.5 -6.90625 C 2.914062 -7.007812 3.328125 -7.0625 3.734375 -7.0625 C 4.578125 -7.0625 5.203125 -6.875 5.609375 -6.5 C 6.015625 -6.132812 6.21875 -5.546875 6.21875 -4.734375 L 6.21875 0 Z M 3.046875 -0.796875 C 3.679688 -0.796875 4.179688 -0.96875 4.546875 -1.3125 C 4.910156 -1.65625 5.09375 -2.144531 5.09375 -2.78125 L 5.09375 -3.40625 L 4.078125 -3.359375 C 3.273438 -3.328125 2.691406 -3.195312 2.328125 -2.96875 C 1.960938 -2.75 1.78125 -2.398438 1.78125 -1.921875 C 1.78125 -1.554688 1.890625 -1.273438 2.109375 -1.078125 C 2.328125 -0.890625 2.640625 -0.796875 3.046875 -0.796875 Z M 3.046875 -0.796875 "/></g></g></g><g fill="#000000" fill-opacity="1"><g transform="translate(284.071742, 153.04447)"><g><path d="M 3.421875 -0.796875 C 3.566406 -0.796875 3.738281 -0.8125 3.9375 -0.84375 C 4.144531 -0.875 4.296875 -0.910156 4.390625 -0.953125 L 4.390625 -0.078125 C 4.285156 -0.0234375 4.125 0.0195312 3.90625 0.0625 C 3.6875 0.101562 3.460938 0.125 3.234375 0.125 C 1.867188 0.125 1.1875 -0.585938 1.1875 -2.015625 L 1.1875 -6.0625 L 0.203125 -6.0625 L 0.203125 -6.609375 L 1.203125 -7.0625 L 1.65625 -8.546875 L 2.34375 -8.546875 L 2.34375 -6.953125 L 4.34375 -6.953125 L 4.34375 -6.0625 L 2.34375 -6.0625 L 2.34375 -2.046875 C 2.34375 -1.648438 2.4375 -1.34375 2.625 -1.125 C 2.8125 -0.90625 3.078125 -0.796875 3.421875 -0.796875 Z M 3.421875 -0.796875 "/></g></g></g><g fill="#000000" fill-opacity="1"><g transform="translate(288.749169, 153.04447)"><g><path d="M 4.0625 0.125 C 3.019531 0.125 2.203125 -0.1875 1.609375 -0.8125 C 1.015625 -1.445312 0.71875 -2.316406 0.71875 -3.421875 C 0.71875 -4.535156 0.992188 -5.421875 1.546875 -6.078125 C 2.097656 -6.742188 2.84375 -7.078125 3.78125 -7.078125 C 4.65625 -7.078125 5.351562 -6.796875 5.875 -6.234375 C 6.394531 -5.671875 6.65625 -4.90625 6.65625 -3.9375 L 6.65625 -3.25 L 1.890625 -3.25 C 1.910156 -2.46875 2.109375 -1.867188 2.484375 -1.453125 C 2.867188 -1.046875 3.410156 -0.84375 4.109375 -0.84375 C 4.484375 -0.84375 4.835938 -0.875 5.171875 -0.9375 C 5.503906 -1 5.894531 -1.128906 6.34375 -1.328125 L 6.34375 -0.328125 C 5.957031 -0.160156 5.59375 -0.046875 5.25 0.015625 C 4.914062 0.0859375 4.519531 0.125 4.0625 0.125 Z M 3.78125 -6.15625 C 3.226562 -6.15625 2.789062 -5.976562 2.46875 -5.625 C 2.15625 -5.269531 1.972656 -4.78125 1.921875 -4.15625 L 5.453125 -4.15625 C 5.453125 -4.8125 5.304688 -5.304688 5.015625 -5.640625 C 4.722656 -5.984375 4.3125 -6.15625 3.78125 -6.15625 Z M 3.78125 -6.15625 "/></g></g></g><g fill="#000000" fill-opacity="1"><g transform="translate(296.059625, 153.04447)"><g><path d="M 3.75 -0.796875 C 4.445312 -0.796875 4.953125 -0.984375 5.265625 -1.359375 C 5.585938 -1.742188 5.75 -2.351562 5.75 -3.1875 L 5.75 -3.46875 C 5.75 -4.394531 5.585938 -5.066406 5.265625 -5.484375 C 4.953125 -5.910156 4.4375 -6.125 3.71875 -6.125 C 3.132812 -6.125 2.679688 -5.890625 2.359375 -5.421875 C 2.046875 -4.960938 1.890625 -4.304688 1.890625 -3.453125 C 1.890625 -2.585938 2.046875 -1.925781 2.359375 -1.46875 C 2.671875 -1.019531 3.132812 -0.796875 3.75 -0.796875 Z M 5.75 -0.0625 L 5.78125 -0.921875 L 5.734375 -0.921875 C 5.265625 -0.222656 4.546875 0.125 3.578125 0.125 C 2.679688 0.125 1.976562 -0.1875 1.46875 -0.8125 C 0.96875 -1.4375 0.71875 -2.320312 0.71875 -3.46875 C 0.71875 -4.582031 0.96875 -5.460938 1.46875 -6.109375 C 1.976562 -6.753906 2.675781 -7.078125 3.5625 -7.078125 C 4.507812 -7.078125 5.238281 -6.726562 5.75 -6.03125 L 5.8125 -6.03125 L 5.96875 -6.953125 L 6.875 -6.953125 L 6.875 0.109375 C 6.875 1.109375 6.617188 1.859375 6.109375 2.359375 C 5.609375 2.859375 4.828125 3.109375 3.765625 3.109375 C 2.742188 3.109375 1.910156 2.960938 1.265625 2.671875 L 1.265625 1.625 C 1.929688 1.988281 2.785156 2.171875 3.828125 2.171875 C 4.421875 2.171875 4.890625 1.992188 5.234375 1.640625 C 5.578125 1.296875 5.75 0.816406 5.75 0.203125 Z M 5.75 -0.0625 "/></g></g></g><g fill="#000000" fill-opacity="1"><g transform="translate(304.03466, 153.04447)"><g><path d="M 0.015625 -6.953125 L 1.234375 -6.953125 L 2.734375 -3 C 3.046875 -2.132812 3.238281 -1.503906 3.3125 -1.109375 L 3.375 -1.109375 C 3.40625 -1.265625 3.488281 -1.554688 3.625 -1.984375 C 3.757812 -2.410156 3.875 -2.753906 3.96875 -3.015625 L 5.375 -6.953125 L 6.609375 -6.953125 L 3.609375 0.96875 C 3.316406 1.726562 2.96875 2.273438 2.5625 2.609375 C 2.164062 2.941406 1.675781 3.109375 1.09375 3.109375 C 0.769531 3.109375 0.453125 3.078125 0.140625 3.015625 L 0.140625 2.109375 C 0.359375 2.148438 0.613281 2.171875 0.90625 2.171875 C 1.269531 2.171875 1.578125 2.070312 1.828125 1.875 C 2.078125 1.675781 2.285156 1.367188 2.453125 0.953125 L 2.8125 0.03125 Z M 0.015625 -6.953125 "/></g></g></g><g clip-path="url(#7b7ed75278)"><g clip-path="url(#1ae84034d5)"><path stroke-linecap="butt" transform="matrix(0.748067, 0, 0, 0.748067, 213.033047, 16.999)" fill="none" stroke-linejoin="miter" d="M 143.983278 0.00133699 C 170.489093 0.00133699 191.976765 15.755482 191.976765 35.196212 C 191.976765 54.631721 170.489093 70.391088 143.983278 70.391088 L 47.991084 70.391088 C 21.48527 70.391088 -0.00240275 54.631721 -0.00240275 35.196212 C -0.00240275 15.755482 21.48527 0.00133699 47.991084 0.00133699 Z M 143.983278 0.00133699 " stroke="#545454" stroke-width="4" stroke-opacity="1" stroke-miterlimit="4"/></g></g><g fill="#000000" fill-opacity="1"><g transform="translate(263.143966, 47.669745)"><g><path d="M 9.34375 -4.640625 C 9.34375 -3.472656 9.109375 -2.5 8.640625 -1.71875 C 8.171875 -0.9375 7.503906 -0.394531 6.640625 -0.09375 L 8.859375 2.203125 L 7.1875 2.203125 L 5.390625 0.109375 L 5.078125 0.125 C 3.710938 0.125 2.65625 -0.289062 1.90625 -1.125 C 1.164062 -1.957031 0.796875 -3.132812 0.796875 -4.65625 C 0.796875 -6.164062 1.164062 -7.332031 1.90625 -8.15625 C 2.644531 -8.988281 3.703125 -9.40625 5.078125 -9.40625 C 6.421875 -9.40625 7.46875 -8.984375 8.21875 -8.140625 C 8.96875 -7.296875 9.34375 -6.128906 9.34375 -4.640625 Z M 2.015625 -4.640625 C 2.015625 -3.421875 2.273438 -2.488281 2.796875 -1.84375 C 3.316406 -1.195312 4.078125 -0.875 5.078125 -0.875 C 6.066406 -0.875 6.816406 -1.191406 7.328125 -1.828125 C 7.847656 -2.460938 8.109375 -3.398438 8.109375 -4.640625 C 8.109375 -5.878906 7.851562 -6.8125 7.34375 -7.4375 C 6.832031 -8.0625 6.078125 -8.375 5.078125 -8.375 C 4.078125 -8.375 3.316406 -8.054688 2.796875 -7.421875 C 2.273438 -6.785156 2.015625 -5.859375 2.015625 -4.640625 Z M 2.015625 -4.640625 "/></g></g></g><g fill="#000000" fill-opacity="1"><g transform="translate(273.264671, 47.669745)"><g><path d="M 2.171875 -6.953125 L 2.171875 -2.46875 C 2.171875 -1.914062 2.296875 -1.5 2.546875 -1.21875 C 2.804688 -0.945312 3.195312 -0.8125 3.71875 -0.8125 C 4.4375 -0.8125 4.957031 -1.007812 5.28125 -1.40625 C 5.601562 -1.800781 5.765625 -2.441406 5.765625 -3.328125 L 5.765625 -6.953125 L 6.921875 -6.953125 L 6.921875 0 L 5.984375 0 L 5.8125 -0.921875 L 5.75 -0.921875 C 5.550781 -0.585938 5.257812 -0.328125 4.875 -0.140625 C 4.5 0.0351562 4.054688 0.125 3.546875 0.125 C 2.710938 0.125 2.082031 -0.0703125 1.65625 -0.46875 C 1.238281 -0.875 1.03125 -1.519531 1.03125 -2.40625 L 1.03125 -6.953125 Z M 2.171875 -6.953125 "/></g></g></g><g fill="#000000" fill-opacity="1"><g transform="translate(281.277683, 47.669745)"><g><path d="M 5.390625 0 L 5.171875 -0.984375 L 5.125 -0.984375 C 4.78125 -0.546875 4.4375 -0.25 4.09375 -0.09375 C 3.75 0.0507812 3.3125 0.125 2.78125 0.125 C 2.101562 0.125 1.566406 -0.0507812 1.171875 -0.40625 C 0.785156 -0.769531 0.59375 -1.28125 0.59375 -1.9375 C 0.59375 -3.34375 1.707031 -4.078125 3.9375 -4.140625 L 5.109375 -4.1875 L 5.109375 -4.609375 C 5.109375 -5.128906 4.992188 -5.515625 4.765625 -5.765625 C 4.535156 -6.023438 4.171875 -6.15625 3.671875 -6.15625 C 3.304688 -6.15625 2.957031 -6.097656 2.625 -5.984375 C 2.300781 -5.867188 1.992188 -5.742188 1.703125 -5.609375 L 1.359375 -6.46875 C 1.710938 -6.65625 2.09375 -6.800781 2.5 -6.90625 C 2.914062 -7.007812 3.328125 -7.0625 3.734375 -7.0625 C 4.578125 -7.0625 5.203125 -6.875 5.609375 -6.5 C 6.015625 -6.132812 6.21875 -5.546875 6.21875 -4.734375 L 6.21875 0 Z M 3.046875 -0.796875 C 3.679688 -0.796875 4.179688 -0.96875 4.546875 -1.3125 C 4.910156 -1.65625 5.09375 -2.144531 5.09375 -2.78125 L 5.09375 -3.40625 L 4.078125 -3.359375 C 3.273438 -3.328125 2.691406 -3.195312 2.328125 -2.96875 C 1.960938 -2.75 1.78125 -2.398438 1.78125 -1.921875 C 1.78125 -1.554688 1.890625 -1.273438 2.109375 -1.078125 C 2.328125 -0.890625 2.640625 -0.796875 3.046875 -0.796875 Z M 3.046875 -0.796875 "/></g></g></g><g fill="#000000" fill-opacity="1"><g transform="translate(288.550162, 47.669745)"><g><path d="M 2.234375 0 L 1.109375 0 L 1.109375 -9.859375 L 2.234375 -9.859375 Z M 2.234375 0 "/></g></g></g><g fill="#000000" fill-opacity="1"><g transform="translate(291.892082, 47.669745)"><g><path d="M 2.234375 0 L 1.109375 0 L 1.109375 -6.953125 L 2.234375 -6.953125 Z M 1.015625 -8.828125 C 1.015625 -9.085938 1.078125 -9.273438 1.203125 -9.390625 C 1.335938 -9.503906 1.5 -9.5625 1.6875 -9.5625 C 1.863281 -9.5625 2.015625 -9.503906 2.140625 -9.390625 C 2.273438 -9.273438 2.34375 -9.085938 2.34375 -8.828125 C 2.34375 -8.578125 2.273438 -8.394531 2.140625 -8.28125 C 2.015625 -8.164062 1.863281 -8.109375 1.6875 -8.109375 C 1.5 -8.109375 1.335938 -8.164062 1.203125 -8.28125 C 1.078125 -8.394531 1.015625 -8.578125 1.015625 -8.828125 Z M 1.015625 -8.828125 "/></g></g></g><g fill="#000000" fill-opacity="1"><g transform="translate(295.234002, 47.669745)"><g><path d="M 3.421875 -0.796875 C 3.566406 -0.796875 3.738281 -0.8125 3.9375 -0.84375 C 4.144531 -0.875 4.296875 -0.910156 4.390625 -0.953125 L 4.390625 -0.078125 C 4.285156 -0.0234375 4.125 0.0195312 3.90625 0.0625 C 3.6875 0.101562 3.460938 0.125 3.234375 0.125 C 1.867188 0.125 1.1875 -0.585938 1.1875 -2.015625 L 1.1875 -6.0625 L 0.203125 -6.0625 L 0.203125 -6.609375 L 1.203125 -7.0625 L 1.65625 -8.546875 L 2.34375 -8.546875 L 2.34375 -6.953125 L 4.34375 -6.953125 L 4.34375 -6.0625 L 2.34375 -6.0625 L 2.34375 -2.046875 C 2.34375 -1.648438 2.4375 -1.34375 2.625 -1.125 C 2.8125 -0.90625 3.078125 -0.796875 3.421875 -0.796875 Z M 3.421875 -0.796875 "/></g></g></g><g fill="#000000" fill-opacity="1"><g transform="translate(299.911429, 47.669745)"><g><path d="M 0.015625 -6.953125 L 1.234375 -6.953125 L 2.734375 -3 C 3.046875 -2.132812 3.238281 -1.503906 3.3125 -1.109375 L 3.375 -1.109375 C 3.40625 -1.265625 3.488281 -1.554688 3.625 -1.984375 C 3.757812 -2.410156 3.875 -2.753906 3.96875 -3.015625 L 5.375 -6.953125 L 6.609375 -6.953125 L 3.609375 0.96875 C 3.316406 1.726562 2.96875 2.273438 2.5625 2.609375 C 2.164062 2.941406 1.675781 3.109375 1.09375 3.109375 C 0.769531 3.109375 0.453125 3.078125 0.140625 3.015625 L 0.140625 2.109375 C 0.359375 2.148438 0.613281 2.171875 0.90625 2.171875 C 1.269531 2.171875 1.578125 2.070312 1.828125 1.875 C 2.078125 1.675781 2.285156 1.367188 2.453125 0.953125 L 2.8125 0.03125 Z M 0.015625 -6.953125 "/></g></g></g><g clip-path="url(#f25cbab6c8)"><g clip-path="url(#95335400bd)"><path stroke-linecap="butt" transform="matrix(0.748067, 0, 0, 0.748067, 407.407348, 16.999)" fill="none" stroke-linejoin="miter" d="M 143.978992 0.00133699 C 170.484806 0.00133699 191.972479 15.755482 191.972479 35.196212 C 191.972479 54.631721 170.484806 70.391088 143.978992 70.391088 L 47.992019 70.391088 C 21.486205 70.391088 -0.00146723 54.631721 -0.00146723 35.196212 C -0.00146723 15.755482 21.486205 0.00133699 47.992019 0.00133699 Z M 143.978992 0.00133699 " stroke="#545454" stroke-width="4" stroke-opacity="1" stroke-miterlimit="4"/></g></g><g fill="#000000" fill-opacity="1"><g transform="translate(453.427291, 47.669745)"><g><path d="M 5.21875 -8.359375 C 4.226562 -8.359375 3.445312 -8.023438 2.875 -7.359375 C 2.300781 -6.691406 2.015625 -5.78125 2.015625 -4.625 C 2.015625 -3.4375 2.289062 -2.515625 2.84375 -1.859375 C 3.394531 -1.210938 4.1875 -0.890625 5.21875 -0.890625 C 5.875 -0.890625 6.613281 -1.015625 7.4375 -1.265625 L 7.4375 -0.25 C 7.039062 -0.101562 6.660156 -0.00390625 6.296875 0.046875 C 5.929688 0.0976562 5.515625 0.125 5.046875 0.125 C 3.679688 0.125 2.628906 -0.285156 1.890625 -1.109375 C 1.160156 -1.941406 0.796875 -3.117188 0.796875 -4.640625 C 0.796875 -5.597656 0.96875 -6.429688 1.3125 -7.140625 C 1.664062 -7.859375 2.179688 -8.410156 2.859375 -8.796875 C 3.535156 -9.191406 4.328125 -9.390625 5.234375 -9.390625 C 6.210938 -9.390625 7.066406 -9.207031 7.796875 -8.84375 L 7.328125 -7.859375 C 6.585938 -8.191406 5.882812 -8.359375 5.21875 -8.359375 Z M 5.21875 -8.359375 "/></g></g></g><g fill="#000000" fill-opacity="1"><g transform="translate(461.617526, 47.669745)"><g><path d="M 5.390625 0 L 5.171875 -0.984375 L 5.125 -0.984375 C 4.78125 -0.546875 4.4375 -0.25 4.09375 -0.09375 C 3.75 0.0507812 3.3125 0.125 2.78125 0.125 C 2.101562 0.125 1.566406 -0.0507812 1.171875 -0.40625 C 0.785156 -0.769531 0.59375 -1.28125 0.59375 -1.9375 C 0.59375 -3.34375 1.707031 -4.078125 3.9375 -4.140625 L 5.109375 -4.1875 L 5.109375 -4.609375 C 5.109375 -5.128906 4.992188 -5.515625 4.765625 -5.765625 C 4.535156 -6.023438 4.171875 -6.15625 3.671875 -6.15625 C 3.304688 -6.15625 2.957031 -6.097656 2.625 -5.984375 C 2.300781 -5.867188 1.992188 -5.742188 1.703125 -5.609375 L 1.359375 -6.46875 C 1.710938 -6.65625 2.09375 -6.800781 2.5 -6.90625 C 2.914062 -7.007812 3.328125 -7.0625 3.734375 -7.0625 C 4.578125 -7.0625 5.203125 -6.875 5.609375 -6.5 C 6.015625 -6.132812 6.21875 -5.546875 6.21875 -4.734375 L 6.21875 0 Z M 3.046875 -0.796875 C 3.679688 -0.796875 4.179688 -0.96875 4.546875 -1.3125 C 4.910156 -1.65625 5.09375 -2.144531 5.09375 -2.78125 L 5.09375 -3.40625 L 4.078125 -3.359375 C 3.273438 -3.328125 2.691406 -3.195312 2.328125 -2.96875 C 1.960938 -2.75 1.78125 -2.398438 1.78125 -1.921875 C 1.78125 -1.554688 1.890625 -1.273438 2.109375 -1.078125 C 2.328125 -0.890625 2.640625 -0.796875 3.046875 -0.796875 Z M 3.046875 -0.796875 "/></g></g></g><g fill="#000000" fill-opacity="1"><g transform="translate(468.890005, 47.669745)"><g><path d="M 4.390625 0.125 C 3.460938 0.125 2.742188 -0.207031 2.234375 -0.875 L 2.171875 -0.875 L 2.1875 -0.625 C 2.21875 -0.289062 2.234375 0.00390625 2.234375 0.265625 L 2.234375 3.109375 L 1.109375 3.109375 L 1.109375 -6.953125 L 2.03125 -6.953125 L 2.1875 -6 L 2.234375 -6 C 2.503906 -6.382812 2.816406 -6.660156 3.171875 -6.828125 C 3.523438 -6.992188 3.9375 -7.078125 4.40625 -7.078125 C 5.3125 -7.078125 6.015625 -6.765625 6.515625 -6.140625 C 7.015625 -5.515625 7.265625 -4.628906 7.265625 -3.484375 C 7.265625 -2.347656 7.007812 -1.460938 6.5 -0.828125 C 6 -0.191406 5.296875 0.125 4.390625 0.125 Z M 4.203125 -6.125 C 3.515625 -6.125 3.015625 -5.925781 2.703125 -5.53125 C 2.398438 -5.144531 2.242188 -4.535156 2.234375 -3.703125 L 2.234375 -3.484375 C 2.234375 -2.546875 2.390625 -1.863281 2.703125 -1.4375 C 3.015625 -1.019531 3.523438 -0.8125 4.234375 -0.8125 C 4.816406 -0.8125 5.269531 -1.046875 5.59375 -1.515625 C 5.914062 -1.992188 6.078125 -2.65625 6.078125 -3.5 C 6.078125 -4.351562 5.914062 -5.003906 5.59375 -5.453125 C 5.269531 -5.898438 4.804688 -6.125 4.203125 -6.125 Z M 4.203125 -6.125 "/></g></g></g><g fill="#000000" fill-opacity="1"><g transform="translate(476.865041, 47.669745)"><g><path d="M 5.390625 0 L 5.171875 -0.984375 L 5.125 -0.984375 C 4.78125 -0.546875 4.4375 -0.25 4.09375 -0.09375 C 3.75 0.0507812 3.3125 0.125 2.78125 0.125 C 2.101562 0.125 1.566406 -0.0507812 1.171875 -0.40625 C 0.785156 -0.769531 0.59375 -1.28125 0.59375 -1.9375 C 0.59375 -3.34375 1.707031 -4.078125 3.9375 -4.140625 L 5.109375 -4.1875 L 5.109375 -4.609375 C 5.109375 -5.128906 4.992188 -5.515625 4.765625 -5.765625 C 4.535156 -6.023438 4.171875 -6.15625 3.671875 -6.15625 C 3.304688 -6.15625 2.957031 -6.097656 2.625 -5.984375 C 2.300781 -5.867188 1.992188 -5.742188 1.703125 -5.609375 L 1.359375 -6.46875 C 1.710938 -6.65625 2.09375 -6.800781 2.5 -6.90625 C 2.914062 -7.007812 3.328125 -7.0625 3.734375 -7.0625 C 4.578125 -7.0625 5.203125 -6.875 5.609375 -6.5 C 6.015625 -6.132812 6.21875 -5.546875 6.21875 -4.734375 L 6.21875 0 Z M 3.046875 -0.796875 C 3.679688 -0.796875 4.179688 -0.96875 4.546875 -1.3125 C 4.910156 -1.65625 5.09375 -2.144531 5.09375 -2.78125 L 5.09375 -3.40625 L 4.078125 -3.359375 C 3.273438 -3.328125 2.691406 -3.195312 2.328125 -2.96875 C 1.960938 -2.75 1.78125 -2.398438 1.78125 -1.921875 C 1.78125 -1.554688 1.890625 -1.273438 2.109375 -1.078125 C 2.328125 -0.890625 2.640625 -0.796875 3.046875 -0.796875 Z M 3.046875 -0.796875 "/></g></g></g><g fill="#000000" fill-opacity="1"><g transform="translate(484.13752, 47.669745)"><g><path d="M 3.890625 0.125 C 2.890625 0.125 2.109375 -0.179688 1.546875 -0.796875 C 0.992188 -1.410156 0.71875 -2.289062 0.71875 -3.4375 C 0.71875 -4.601562 1 -5.5 1.5625 -6.125 C 2.125 -6.757812 2.925781 -7.078125 3.96875 -7.078125 C 4.3125 -7.078125 4.644531 -7.039062 4.96875 -6.96875 C 5.300781 -6.90625 5.578125 -6.816406 5.796875 -6.703125 L 5.453125 -5.75 C 4.859375 -5.96875 4.351562 -6.078125 3.9375 -6.078125 C 3.238281 -6.078125 2.722656 -5.859375 2.390625 -5.421875 C 2.054688 -4.984375 1.890625 -4.328125 1.890625 -3.453125 C 1.890625 -2.609375 2.054688 -1.960938 2.390625 -1.515625 C 2.722656 -1.078125 3.21875 -0.859375 3.875 -0.859375 C 4.488281 -0.859375 5.09375 -0.992188 5.6875 -1.265625 L 5.6875 -0.25 C 5.195312 0 4.597656 0.125 3.890625 0.125 Z M 3.890625 0.125 "/></g></g></g><g fill="#000000" fill-opacity="1"><g transform="translate(490.359319, 47.669745)"><g><path d="M 2.234375 0 L 1.109375 0 L 1.109375 -6.953125 L 2.234375 -6.953125 Z M 1.015625 -8.828125 C 1.015625 -9.085938 1.078125 -9.273438 1.203125 -9.390625 C 1.335938 -9.503906 1.5 -9.5625 1.6875 -9.5625 C 1.863281 -9.5625 2.015625 -9.503906 2.140625 -9.390625 C 2.273438 -9.273438 2.34375 -9.085938 2.34375 -8.828125 C 2.34375 -8.578125 2.273438 -8.394531 2.140625 -8.28125 C 2.015625 -8.164062 1.863281 -8.109375 1.6875 -8.109375 C 1.5 -8.109375 1.335938 -8.164062 1.203125 -8.28125 C 1.078125 -8.394531 1.015625 -8.578125 1.015625 -8.828125 Z M 1.015625 -8.828125 "/></g></g></g><g fill="#000000" fill-opacity="1"><g transform="translate(493.701239, 47.669745)"><g><path d="M 3.421875 -0.796875 C 3.566406 -0.796875 3.738281 -0.8125 3.9375 -0.84375 C 4.144531 -0.875 4.296875 -0.910156 4.390625 -0.953125 L 4.390625 -0.078125 C 4.285156 -0.0234375 4.125 0.0195312 3.90625 0.0625 C 3.6875 0.101562 3.460938 0.125 3.234375 0.125 C 1.867188 0.125 1.1875 -0.585938 1.1875 -2.015625 L 1.1875 -6.0625 L 0.203125 -6.0625 L 0.203125 -6.609375 L 1.203125 -7.0625 L 1.65625 -8.546875 L 2.34375 -8.546875 L 2.34375 -6.953125 L 4.34375 -6.953125 L 4.34375 -6.0625 L 2.34375 -6.0625 L 2.34375 -2.046875 C 2.34375 -1.648438 2.4375 -1.34375 2.625 -1.125 C 2.8125 -0.90625 3.078125 -0.796875 3.421875 -0.796875 Z M 3.421875 -0.796875 "/></g></g></g><g fill="#000000" fill-opacity="1"><g transform="translate(498.378666, 47.669745)"><g><path d="M 0.015625 -6.953125 L 1.234375 -6.953125 L 2.734375 -3 C 3.046875 -2.132812 3.238281 -1.503906 3.3125 -1.109375 L 3.375 -1.109375 C 3.40625 -1.265625 3.488281 -1.554688 3.625 -1.984375 C 3.757812 -2.410156 3.875 -2.753906 3.96875 -3.015625 L 5.375 -6.953125 L 6.609375 -6.953125 L 3.609375 0.96875 C 3.316406 1.726562 2.96875 2.273438 2.5625 2.609375 C 2.164062 2.941406 1.675781 3.109375 1.09375 3.109375 C 0.769531 3.109375 0.453125 3.078125 0.140625 3.015625 L 0.140625 2.109375 C 0.359375 2.148438 0.613281 2.171875 0.90625 2.171875 C 1.269531 2.171875 1.578125 2.070312 1.828125 1.875 C 2.078125 1.675781 2.285156 1.367188 2.453125 0.953125 L 2.8125 0.03125 Z M 0.015625 -6.953125 "/></g></g></g><g clip-path="url(#851eda666d)"><path fill="#000000" d="M 89.378906 70.640625 C 88.085938 72.167969 86.867188 73.765625 85.640625 75.359375 C 85.324219 75.769531 85.082031 76.230469 85.542969 76.777344 C 86.078125 77.40625 86.578125 77.074219 87 76.726562 C 87.785156 76.09375 88.507812 75.375 89.3125 74.636719 C 89.40625 74.726562 89.480469 74.972656 89.460938 75.296875 C 88.902344 85.175781 89.269531 95.074219 88.9375 104.960938 C 88.792969 109.25 89.023438 113.550781 88.910156 117.84375 C 88.875 119.238281 89.027344 120.648438 90.285156 120.722656 C 91.585938 120.796875 91.753906 119.222656 91.738281 118.027344 C 91.703125 115.441406 91.738281 112.859375 91.753906 110.273438 C 91.824219 99.316406 91.761719 88.355469 91.8125 77.398438 C 91.816406 76.367188 91.386719 75.253906 91.953125 74.171875 C 92.546875 74.882812 93.089844 75.46875 93.558594 76.121094 C 94.140625 76.929688 94.753906 76.441406 95.242188 76.121094 C 95.835938 75.738281 95.671875 75.105469 95.308594 74.582031 C 94.261719 73.070312 93.121094 71.640625 91.742188 70.453125 C 90.910156 69.738281 90.046875 69.851562 89.378906 70.640625 " fill-opacity="1" fill-rule="nonzero"/></g><g clip-path="url(#2a3f12f041)"><path fill="#000000" d="M 284.136719 70.640625 C 282.84375 72.167969 281.621094 73.765625 280.398438 75.359375 C 280.082031 75.769531 279.839844 76.230469 280.300781 76.777344 C 280.832031 77.40625 281.332031 77.074219 281.757812 76.726562 C 282.539062 76.09375 283.261719 75.375 284.066406 74.636719 C 284.160156 74.726562 284.238281 74.972656 284.21875 75.296875 C 283.65625 85.175781 284.023438 95.074219 283.691406 104.960938 C 283.546875 109.25 283.78125 113.550781 283.667969 117.84375 C 283.628906 119.238281 283.78125 120.648438 285.039062 120.722656 C 286.339844 120.796875 286.507812 119.222656 286.492188 118.027344 C 286.457031 115.441406 286.492188 112.859375 286.507812 110.273438 C 286.582031 99.316406 286.515625 88.355469 286.570312 77.398438 C 286.574219 76.367188 286.140625 75.253906 286.710938 74.171875 C 287.300781 74.882812 287.847656 75.46875 288.3125 76.121094 C 288.898438 76.929688 289.507812 76.441406 290 76.121094 C 290.589844 75.738281 290.425781 75.105469 290.066406 74.582031 C 289.019531 73.070312 287.878906 71.640625 286.5 70.453125 C 285.667969 69.738281 284.804688 69.851562 284.136719 70.640625 " fill-opacity="1" fill-rule="nonzero"/></g><g clip-path="url(#7185649ce4)"><path fill="#000000" d="M 478.914062 70.640625 C 477.621094 72.167969 476.402344 73.765625 475.175781 75.359375 C 474.859375 75.769531 474.617188 76.230469 475.078125 76.777344 C 475.613281 77.40625 476.113281 77.074219 476.535156 76.726562 C 477.320312 76.09375 478.042969 75.375 478.847656 74.636719 C 478.941406 74.726562 479.015625 74.972656 479 75.296875 C 478.4375 85.175781 478.804688 95.074219 478.472656 104.960938 C 478.328125 109.25 478.558594 113.550781 478.445312 117.84375 C 478.410156 119.238281 478.5625 120.648438 479.820312 120.722656 C 481.121094 120.796875 481.289062 119.222656 481.273438 118.027344 C 481.238281 115.441406 481.273438 112.859375 481.289062 110.273438 C 481.359375 99.316406 481.296875 88.355469 481.347656 77.398438 C 481.351562 76.367188 480.921875 75.253906 481.488281 74.171875 C 482.082031 74.882812 482.625 75.46875 483.09375 76.121094 C 483.675781 76.929688 484.289062 76.441406 484.777344 76.121094 C 485.371094 75.738281 485.207031 75.105469 484.84375 74.582031 C 483.800781 73.070312 482.65625 71.640625 481.277344 70.453125 C 480.445312 69.738281 479.582031 69.851562 478.914062 70.640625 " fill-opacity="1" fill-rule="nonzero"/></g></svg>