<svg xmlns="http://www.w3.org/2000/svg" xmlns:xlink="http://www.w3.org/1999/xlink" width="709" zoomAndPan="magnify" viewBox="0 0 531.75 278.999983" height="372" preserveAspectRatio="xMidYMid meet" version="1.0"><defs><filter x="0%" y="0%" width="100%" height="100%" id="dd7147cd87"><feColorMatrix values="0 0 0 0 1 0 0 0 0 1 0 0 0 0 1 0 0 0 1 0" color-interpolation-filters="sRGB"/></filter><g/><clipPath id="79f82b7fea"><path d="M 0 0.0664062 L 531 0.0664062 L 531 278.605469 L 0 278.605469 Z M 0 0.0664062 " clip-rule="nonzero"/></clipPath><clipPath id="e63a506a7d"><path d="M 8.246094 0.0664062 L 522.726562 0.0664062 C 527.28125 0.0664062 530.972656 3.757812 530.972656 8.3125 L 530.972656 270.359375 C 530.972656 274.914062 527.28125 278.605469 522.726562 278.605469 L 8.246094 278.605469 C 3.691406 278.605469 0 274.914062 0 270.359375 L 0 8.3125 C 0 3.757812 3.691406 0.0664062 8.246094 0.0664062 Z M 8.246094 0.0664062 " clip-rule="nonzero"/></clipPath><mask id="fcbb55a068"><g filter="url(#dd7147cd87)"><rect x="-53.175" width="638.1" fill="#000000" y="-27.899998" height="334.79998" fill-opacity="0.5"/></g></mask><clipPath id="651e0f29fc"><path d="M 0.191406 0.425781 L 503 0.425781 L 503 251.347656 L 0.191406 251.347656 Z M 0.191406 0.425781 " clip-rule="nonzero"/></clipPath><clipPath id="25c810677c"><path d="M 8.4375 0.425781 L 494.539062 0.425781 C 499.09375 0.425781 502.785156 4.117188 502.785156 8.671875 L 502.785156 243.101562 C 502.785156 247.65625 499.09375 251.347656 494.539062 251.347656 L 8.4375 251.347656 C 3.882812 251.347656 0.191406 247.65625 0.191406 243.101562 L 0.191406 8.671875 C 0.191406 4.117188 3.882812 0.425781 8.4375 0.425781 Z M 8.4375 0.425781 " clip-rule="nonzero"/></clipPath><clipPath id="2c1825ac89"><rect x="0" width="504" y="0" height="252"/></clipPath><clipPath id="c0e02e9a73"><path d="M 14.191406 14.425781 L 516.453125 14.425781 L 516.453125 265.558594 L 14.191406 265.558594 Z M 14.191406 14.425781 " clip-rule="nonzero"/></clipPath><clipPath id="f956f166fe"><path d="M 22.4375 14.425781 L 508.535156 14.425781 C 513.089844 14.425781 516.78125 18.117188 516.78125 22.671875 L 516.78125 257.101562 C 516.78125 261.652344 513.089844 265.347656 508.535156 265.347656 L 22.4375 265.347656 C 17.882812 265.347656 14.191406 261.652344 14.191406 257.101562 L 14.191406 22.671875 C 14.191406 18.117188 17.882812 14.425781 22.4375 14.425781 Z M 22.4375 14.425781 " clip-rule="nonzero"/></clipPath></defs><g clip-path="url(#79f82b7fea)"><g clip-path="url(#e63a506a7d)"><path fill="#dddddd" d="M 0 0.0664062 L 530.964844 0.0664062 L 530.964844 278.605469 L 0 278.605469 Z M 0 0.0664062 " fill-opacity="1" fill-rule="nonzero"/></g></g><g mask="url(#fcbb55a068)"><g transform="matrix(1, 0, 0, 1, 14, 14)"><g clip-path="url(#2c1825ac89)"><g clip-path="url(#651e0f29fc)"><g clip-path="url(#25c810677c)"><path fill="#ffffff" d="M 0.191406 0.425781 L 503.015625 0.425781 L 503.015625 251.347656 L 0.191406 251.347656 Z M 0.191406 0.425781 " fill-opacity="1" fill-rule="nonzero"/></g></g></g></g></g><g fill="#000000" fill-opacity="1"><g transform="translate(240.212162, 254.241758)"><g><path d="M 7.078125 0 L 5.953125 -2.875 L 2.28125 -2.875 L 1.171875 0 L 0 0 L 3.625 -9.3125 L 4.671875 -9.3125 L 8.28125 0 Z M 5.609375 -3.90625 L 4.578125 -6.71875 L 4.125 -8.109375 C 4 -7.597656 3.867188 -7.132812 3.734375 -6.71875 L 2.671875 -3.90625 Z M 5.609375 -3.90625 "/></g></g></g><g fill="#000000" fill-opacity="1"><g transform="translate(248.514849, 254.241758)"><g><path d="M 2.25 0 L 1.109375 0 L 1.109375 -9.859375 L 2.25 -9.859375 Z M 2.25 0 "/></g></g></g><g fill="#000000" fill-opacity="1"><g transform="translate(251.86383, 254.241758)"><g><path d="M 4.0625 0.125 C 3.019531 0.125 2.203125 -0.1875 1.609375 -0.8125 C 1.015625 -1.445312 0.71875 -2.320312 0.71875 -3.4375 C 0.71875 -4.550781 0.992188 -5.4375 1.546875 -6.09375 C 2.097656 -6.757812 2.847656 -7.09375 3.796875 -7.09375 C 4.671875 -7.09375 5.363281 -6.804688 5.875 -6.234375 C 6.394531 -5.671875 6.65625 -4.910156 6.65625 -3.953125 L 6.65625 -3.265625 L 1.890625 -3.265625 C 1.910156 -2.472656 2.109375 -1.867188 2.484375 -1.453125 C 2.867188 -1.046875 3.410156 -0.84375 4.109375 -0.84375 C 4.484375 -0.84375 4.835938 -0.875 5.171875 -0.9375 C 5.503906 -1.007812 5.894531 -1.140625 6.34375 -1.328125 L 6.34375 -0.328125 C 5.957031 -0.160156 5.59375 -0.046875 5.25 0.015625 C 4.914062 0.0859375 4.519531 0.125 4.0625 0.125 Z M 3.78125 -6.15625 C 3.226562 -6.15625 2.796875 -5.976562 2.484375 -5.625 C 2.171875 -5.28125 1.984375 -4.796875 1.921875 -4.171875 L 5.46875 -4.171875 C 5.457031 -4.816406 5.304688 -5.304688 5.015625 -5.640625 C 4.722656 -5.984375 4.3125 -6.15625 3.78125 -6.15625 Z M 3.78125 -6.15625 "/></g></g></g><g fill="#000000" fill-opacity="1"><g transform="translate(259.189731, 254.241758)"><g><path d="M 4.34375 -7.09375 C 4.65625 -7.09375 4.929688 -7.066406 5.171875 -7.015625 L 5.03125 -5.953125 C 4.769531 -6.015625 4.515625 -6.046875 4.265625 -6.046875 C 3.898438 -6.046875 3.5625 -5.941406 3.25 -5.734375 C 2.9375 -5.535156 2.691406 -5.257812 2.515625 -4.90625 C 2.335938 -4.550781 2.25 -4.15625 2.25 -3.71875 L 2.25 0 L 1.109375 0 L 1.109375 -6.96875 L 2.046875 -6.96875 L 2.171875 -5.6875 L 2.21875 -5.6875 C 2.488281 -6.144531 2.800781 -6.492188 3.15625 -6.734375 C 3.519531 -6.972656 3.914062 -7.09375 4.34375 -7.09375 Z M 4.34375 -7.09375 "/></g></g></g><g fill="#000000" fill-opacity="1"><g transform="translate(264.555711, 254.241758)"><g><path d="M 3.4375 -0.8125 C 3.582031 -0.8125 3.753906 -0.820312 3.953125 -0.84375 C 4.148438 -0.875 4.300781 -0.910156 4.40625 -0.953125 L 4.40625 -0.078125 C 4.289062 -0.0234375 4.125 0.0195312 3.90625 0.0625 C 3.6875 0.101562 3.460938 0.125 3.234375 0.125 C 1.867188 0.125 1.1875 -0.585938 1.1875 -2.015625 L 1.1875 -6.078125 L 0.203125 -6.078125 L 0.203125 -6.625 L 1.203125 -7.078125 L 1.65625 -8.5625 L 2.34375 -8.5625 L 2.34375 -6.96875 L 4.34375 -6.96875 L 4.34375 -6.078125 L 2.34375 -6.078125 L 2.34375 -2.046875 C 2.34375 -1.648438 2.4375 -1.34375 2.625 -1.125 C 2.820312 -0.914062 3.09375 -0.8125 3.4375 -0.8125 Z M 3.4375 -0.8125 "/></g></g></g><g fill="#000000" fill-opacity="1"><g transform="translate(269.243022, 254.241758)"><g/></g></g><g fill="#000000" fill-opacity="1"><g transform="translate(272.617374, 254.241758)"><g><path d="M 2.421875 -4.8125 L 3.8125 -4.8125 C 4.5625 -4.8125 5.109375 -4.957031 5.453125 -5.25 C 5.804688 -5.550781 5.984375 -5.992188 5.984375 -6.578125 C 5.984375 -7.160156 5.804688 -7.585938 5.453125 -7.859375 C 5.109375 -8.128906 4.539062 -8.265625 3.75 -8.265625 L 2.421875 -8.265625 Z M 2.421875 -3.828125 L 2.421875 0 L 1.265625 0 L 1.265625 -9.265625 L 3.8125 -9.265625 C 4.96875 -9.265625 5.820312 -9.046875 6.375 -8.609375 C 6.925781 -8.171875 7.203125 -7.515625 7.203125 -6.640625 C 7.203125 -5.410156 6.582031 -4.582031 5.34375 -4.15625 L 7.875 0 L 6.515625 0 L 4.265625 -3.828125 Z M 2.421875 -3.828125 "/></g></g></g><g fill="#000000" fill-opacity="1"><g transform="translate(280.698058, 254.241758)"><g><path d="M 5.40625 0 L 5.1875 -0.984375 L 5.125 -0.984375 C 4.78125 -0.554688 4.4375 -0.265625 4.09375 -0.109375 C 3.75 0.046875 3.316406 0.125 2.796875 0.125 C 2.109375 0.125 1.566406 -0.0507812 1.171875 -0.40625 C 0.785156 -0.769531 0.59375 -1.28125 0.59375 -1.9375 C 0.59375 -3.34375 1.707031 -4.082031 3.9375 -4.15625 L 5.109375 -4.203125 L 5.109375 -4.609375 C 5.109375 -5.140625 4.992188 -5.53125 4.765625 -5.78125 C 4.546875 -6.03125 4.179688 -6.15625 3.671875 -6.15625 C 3.304688 -6.15625 2.957031 -6.097656 2.625 -5.984375 C 2.300781 -5.878906 2 -5.757812 1.71875 -5.625 L 1.359375 -6.484375 C 1.710938 -6.671875 2.09375 -6.816406 2.5 -6.921875 C 2.914062 -7.023438 3.328125 -7.078125 3.734375 -7.078125 C 4.578125 -7.078125 5.203125 -6.890625 5.609375 -6.515625 C 6.023438 -6.140625 6.234375 -5.550781 6.234375 -4.75 L 6.234375 0 Z M 3.046875 -0.796875 C 3.679688 -0.796875 4.179688 -0.96875 4.546875 -1.3125 C 4.921875 -1.65625 5.109375 -2.144531 5.109375 -2.78125 L 5.109375 -3.40625 L 4.078125 -3.359375 C 3.273438 -3.328125 2.691406 -3.195312 2.328125 -2.96875 C 1.960938 -2.75 1.78125 -2.398438 1.78125 -1.921875 C 1.78125 -1.554688 1.890625 -1.273438 2.109375 -1.078125 C 2.335938 -0.890625 2.648438 -0.796875 3.046875 -0.796875 Z M 3.046875 -0.796875 "/></g></g></g><g fill="#000000" fill-opacity="1"><g transform="translate(287.985903, 254.241758)"><g><path d="M 3.4375 -0.8125 C 3.582031 -0.8125 3.753906 -0.820312 3.953125 -0.84375 C 4.148438 -0.875 4.300781 -0.910156 4.40625 -0.953125 L 4.40625 -0.078125 C 4.289062 -0.0234375 4.125 0.0195312 3.90625 0.0625 C 3.6875 0.101562 3.460938 0.125 3.234375 0.125 C 1.867188 0.125 1.1875 -0.585938 1.1875 -2.015625 L 1.1875 -6.078125 L 0.203125 -6.078125 L 0.203125 -6.625 L 1.203125 -7.078125 L 1.65625 -8.5625 L 2.34375 -8.5625 L 2.34375 -6.96875 L 4.34375 -6.96875 L 4.34375 -6.078125 L 2.34375 -6.078125 L 2.34375 -2.046875 C 2.34375 -1.648438 2.4375 -1.34375 2.625 -1.125 C 2.820312 -0.914062 3.09375 -0.8125 3.4375 -0.8125 Z M 3.4375 -0.8125 "/></g></g></g><g fill="#000000" fill-opacity="1"><g transform="translate(292.673213, 254.241758)"><g><path d="M 4.0625 0.125 C 3.019531 0.125 2.203125 -0.1875 1.609375 -0.8125 C 1.015625 -1.445312 0.71875 -2.320312 0.71875 -3.4375 C 0.71875 -4.550781 0.992188 -5.4375 1.546875 -6.09375 C 2.097656 -6.757812 2.847656 -7.09375 3.796875 -7.09375 C 4.671875 -7.09375 5.363281 -6.804688 5.875 -6.234375 C 6.394531 -5.671875 6.65625 -4.910156 6.65625 -3.953125 L 6.65625 -3.265625 L 1.890625 -3.265625 C 1.910156 -2.472656 2.109375 -1.867188 2.484375 -1.453125 C 2.867188 -1.046875 3.410156 -0.84375 4.109375 -0.84375 C 4.484375 -0.84375 4.835938 -0.875 5.171875 -0.9375 C 5.503906 -1.007812 5.894531 -1.140625 6.34375 -1.328125 L 6.34375 -0.328125 C 5.957031 -0.160156 5.59375 -0.046875 5.25 0.015625 C 4.914062 0.0859375 4.519531 0.125 4.0625 0.125 Z M 3.78125 -6.15625 C 3.226562 -6.15625 2.796875 -5.976562 2.484375 -5.625 C 2.171875 -5.28125 1.984375 -4.796875 1.921875 -4.171875 L 5.46875 -4.171875 C 5.457031 -4.816406 5.304688 -5.304688 5.015625 -5.640625 C 4.722656 -5.984375 4.3125 -6.15625 3.78125 -6.15625 Z M 3.78125 -6.15625 "/></g></g></g><path stroke-linecap="butt" transform="matrix(0.749648, 0.000000000000004256, -0.000000000000004256, 0.749648, 47.763134, 234.543671)" fill="none" stroke-linejoin="miter" d="M -0.00188732 1.499768 L 599.191172 1.499768 " stroke="#000000" stroke-width="3" stroke-opacity="1" stroke-miterlimit="4"/><path stroke-linecap="round" transform="matrix(0.749648, 0.000000000000004256, -0.000000000000004256, 0.749648, 47.763134, 234.543671)" fill="none" stroke-linejoin="round" d="M 593.188351 -3.002348 L 599.191172 1.499768 L 593.188351 6.001884 " stroke="#000000" stroke-width="3" stroke-opacity="1" stroke-miterlimit="4"/><path stroke-linecap="butt" transform="matrix(0, -0.749648, 0.749648, 0, 46.637556, 235.66703)" fill="none" stroke-linejoin="miter" d="M -0.00125285 1.499588 L 267.692262 1.499588 " stroke="#000000" stroke-width="3" stroke-opacity="1" stroke-miterlimit="4"/><path stroke-linecap="round" transform="matrix(0, -0.749648, 0.749648, 0, 46.637556, 235.66703)" fill="none" stroke-linejoin="round" d="M 261.689441 -3.002528 L 267.692262 1.499588 L 261.689441 6.001704 " stroke="#000000" stroke-width="3" stroke-opacity="1" stroke-miterlimit="4"/><g fill="#000000" fill-opacity="1"><g transform="translate(34.512249, 161.423168)"><g><path d="M 0 -2.421875 L 0 -1.265625 L -9.265625 -1.265625 L -9.265625 -6.4375 L -8.234375 -6.4375 L -8.234375 -2.421875 L -4.953125 -2.421875 L -4.953125 -6.1875 L -3.9375 -6.1875 L -3.9375 -2.421875 Z M 0 -2.421875 "/></g></g></g><g fill="#000000" fill-opacity="1"><g transform="translate(34.512249, 154.680801)"><g><path d="M 0 -5.40625 L -0.984375 -5.1875 L -0.984375 -5.125 C -0.554688 -4.78125 -0.265625 -4.4375 -0.109375 -4.09375 C 0.046875 -3.75 0.125 -3.316406 0.125 -2.796875 C 0.125 -2.109375 -0.0507812 -1.566406 -0.40625 -1.171875 C -0.769531 -0.785156 -1.28125 -0.59375 -1.9375 -0.59375 C -3.34375 -0.59375 -4.082031 -1.707031 -4.15625 -3.9375 L -4.203125 -5.109375 L -4.609375 -5.109375 C -5.140625 -5.109375 -5.53125 -4.992188 -5.78125 -4.765625 C -6.03125 -4.546875 -6.15625 -4.179688 -6.15625 -3.671875 C -6.15625 -3.304688 -6.097656 -2.957031 -5.984375 -2.625 C -5.878906 -2.300781 -5.757812 -2 -5.625 -1.71875 L -6.484375 -1.359375 C -6.671875 -1.710938 -6.816406 -2.09375 -6.921875 -2.5 C -7.023438 -2.914062 -7.078125 -3.328125 -7.078125 -3.734375 C -7.078125 -4.578125 -6.890625 -5.203125 -6.515625 -5.609375 C -6.140625 -6.023438 -5.550781 -6.234375 -4.75 -6.234375 L 0 -6.234375 Z M -0.796875 -3.046875 C -0.796875 -3.679688 -0.96875 -4.179688 -1.3125 -4.546875 C -1.65625 -4.921875 -2.144531 -5.109375 -2.78125 -5.109375 L -3.40625 -5.109375 L -3.359375 -4.078125 C -3.328125 -3.273438 -3.195312 -2.691406 -2.96875 -2.328125 C -2.75 -1.960938 -2.398438 -1.78125 -1.921875 -1.78125 C -1.554688 -1.78125 -1.273438 -1.890625 -1.078125 -2.109375 C -0.890625 -2.335938 -0.796875 -2.648438 -0.796875 -3.046875 Z M -0.796875 -3.046875 "/></g></g></g><g fill="#000000" fill-opacity="1"><g transform="translate(34.512249, 147.392956)"><g><path d="M -0.8125 -3.4375 C -0.8125 -3.582031 -0.820312 -3.753906 -0.84375 -3.953125 C -0.875 -4.148438 -0.910156 -4.300781 -0.953125 -4.40625 L -0.078125 -4.40625 C -0.0234375 -4.289062 0.0195312 -4.125 0.0625 -3.90625 C 0.101562 -3.6875 0.125 -3.460938 0.125 -3.234375 C 0.125 -1.867188 -0.585938 -1.1875 -2.015625 -1.1875 L -6.078125 -1.1875 L -6.078125 -0.203125 L -6.625 -0.203125 L -7.078125 -1.203125 L -8.5625 -1.65625 L -8.5625 -2.34375 L -6.96875 -2.34375 L -6.96875 -4.34375 L -6.078125 -4.34375 L -6.078125 -2.34375 L -2.046875 -2.34375 C -1.648438 -2.34375 -1.34375 -2.4375 -1.125 -2.625 C -0.914062 -2.820312 -0.8125 -3.09375 -0.8125 -3.4375 Z M -0.8125 -3.4375 "/></g></g></g><g fill="#000000" fill-opacity="1"><g transform="translate(34.512249, 142.705646)"><g><path d="M 0 -2.25 L 0 -1.109375 L -6.96875 -1.109375 L -6.96875 -2.25 Z M -8.84375 -1.015625 C -9.09375 -1.015625 -9.273438 -1.078125 -9.390625 -1.203125 C -9.503906 -1.335938 -9.5625 -1.5 -9.5625 -1.6875 C -9.5625 -1.863281 -9.503906 -2.019531 -9.390625 -2.15625 C -9.273438 -2.289062 -9.09375 -2.359375 -8.84375 -2.359375 C -8.59375 -2.359375 -8.40625 -2.289062 -8.28125 -2.15625 C -8.164062 -2.019531 -8.109375 -1.863281 -8.109375 -1.6875 C -8.109375 -1.5 -8.164062 -1.335938 -8.28125 -1.203125 C -8.40625 -1.078125 -8.59375 -1.015625 -8.84375 -1.015625 Z M -8.84375 -1.015625 "/></g></g></g><g fill="#000000" fill-opacity="1"><g transform="translate(34.512249, 139.356666)"><g><path d="M -0.8125 -3.75 C -0.8125 -4.457031 -1 -4.96875 -1.375 -5.28125 C -1.75 -5.601562 -2.359375 -5.765625 -3.203125 -5.765625 L -3.46875 -5.765625 C -4.394531 -5.765625 -5.066406 -5.601562 -5.484375 -5.28125 C -5.910156 -4.957031 -6.125 -4.441406 -6.125 -3.734375 C -6.125 -3.148438 -5.894531 -2.695312 -5.4375 -2.375 C -4.976562 -2.050781 -4.316406 -1.890625 -3.453125 -1.890625 C -2.585938 -1.890625 -1.929688 -2.046875 -1.484375 -2.359375 C -1.035156 -2.671875 -0.8125 -3.132812 -0.8125 -3.75 Z M -0.0625 -5.75 L -0.921875 -5.78125 L -0.921875 -5.734375 C -0.222656 -5.265625 0.125 -4.546875 0.125 -3.578125 C 0.125 -2.679688 -0.1875 -1.976562 -0.8125 -1.46875 C -1.4375 -0.96875 -2.320312 -0.71875 -3.46875 -0.71875 C -4.582031 -0.71875 -5.460938 -0.972656 -6.109375 -1.484375 C -6.765625 -1.992188 -7.09375 -2.6875 -7.09375 -3.5625 C -7.09375 -4.507812 -6.738281 -5.238281 -6.03125 -5.75 L -6.03125 -5.8125 L -6.96875 -5.96875 L -6.96875 -6.875 L 0.109375 -6.875 C 1.109375 -6.875 1.859375 -6.617188 2.359375 -6.109375 C 2.867188 -5.609375 3.125 -4.828125 3.125 -3.765625 C 3.125 -2.753906 2.972656 -1.921875 2.671875 -1.265625 L 1.625 -1.265625 C 1.988281 -1.941406 2.171875 -2.796875 2.171875 -3.828125 C 2.171875 -4.421875 1.992188 -4.890625 1.640625 -5.234375 C 1.296875 -5.578125 0.816406 -5.75 0.203125 -5.75 Z M -0.0625 -5.75 "/></g></g></g><g fill="#000000" fill-opacity="1"><g transform="translate(34.512249, 131.36478)"><g><path d="M -6.96875 -2.1875 L -2.484375 -2.1875 C -1.921875 -2.1875 -1.5 -2.3125 -1.21875 -2.5625 C -0.945312 -2.8125 -0.8125 -3.203125 -0.8125 -3.734375 C -0.8125 -4.441406 -1.007812 -4.957031 -1.40625 -5.28125 C -1.8125 -5.613281 -2.453125 -5.78125 -3.328125 -5.78125 L -6.96875 -5.78125 L -6.96875 -6.921875 L 0 -6.921875 L 0 -5.984375 L -0.921875 -5.8125 L -0.921875 -5.765625 C -0.585938 -5.554688 -0.328125 -5.257812 -0.140625 -4.875 C 0.0351562 -4.5 0.125 -4.0625 0.125 -3.5625 C 0.125 -2.71875 -0.0703125 -2.082031 -0.46875 -1.65625 C -0.875 -1.238281 -1.519531 -1.03125 -2.40625 -1.03125 L -6.96875 -1.03125 Z M -6.96875 -2.1875 "/></g></g></g><g fill="#000000" fill-opacity="1"><g transform="translate(34.512249, 123.334837)"><g><path d="M 0.125 -4.0625 C 0.125 -3.019531 -0.1875 -2.203125 -0.8125 -1.609375 C -1.445312 -1.015625 -2.320312 -0.71875 -3.4375 -0.71875 C -4.550781 -0.71875 -5.4375 -0.992188 -6.09375 -1.546875 C -6.757812 -2.097656 -7.09375 -2.847656 -7.09375 -3.796875 C -7.09375 -4.671875 -6.804688 -5.363281 -6.234375 -5.875 C -5.671875 -6.394531 -4.910156 -6.65625 -3.953125 -6.65625 L -3.265625 -6.65625 L -3.265625 -1.890625 C -2.472656 -1.910156 -1.867188 -2.109375 -1.453125 -2.484375 C -1.046875 -2.867188 -0.84375 -3.410156 -0.84375 -4.109375 C -0.84375 -4.484375 -0.875 -4.835938 -0.9375 -5.171875 C -1.007812 -5.503906 -1.140625 -5.894531 -1.328125 -6.34375 L -0.328125 -6.34375 C -0.160156 -5.957031 -0.046875 -5.59375 0.015625 -5.25 C 0.0859375 -4.914062 0.125 -4.519531 0.125 -4.0625 Z M -6.15625 -3.78125 C -6.15625 -3.226562 -5.976562 -2.796875 -5.625 -2.484375 C -5.28125 -2.171875 -4.796875 -1.984375 -4.171875 -1.921875 L -4.171875 -5.46875 C -4.816406 -5.457031 -5.304688 -5.304688 -5.640625 -5.015625 C -5.984375 -4.722656 -6.15625 -4.3125 -6.15625 -3.78125 Z M -6.15625 -3.78125 "/></g></g></g><path stroke-linecap="butt" transform="matrix(0.701223, -0.265062, 0.265062, 0.701223, 52.300137, 228.823362)" fill="none" stroke-linejoin="miter" d="M 0.741402 1.857959 C 120.105131 49.350544 221.095445 49.34939 303.717218 1.85634 " stroke="#6aab4e" stroke-width="4" stroke-opacity="1" stroke-miterlimit="4"/><g clip-path="url(#c0e02e9a73)"><g clip-path="url(#f956f166fe)"><path stroke-linecap="butt" transform="matrix(0.749648, 0, 0, 0.749648, 14.191557, 14.424833)" fill="none" stroke-linejoin="miter" d="M 10.99976 0.0012648 L 659.434669 0.0012648 C 665.510441 0.0012648 670.43463 4.925454 670.43463 11.001225 L 670.43463 323.72109 C 670.43463 329.791651 665.510441 334.72105 659.434669 334.72105 L 10.99976 334.72105 C 4.923988 334.72105 -0.000200972 329.791651 -0.000200972 323.72109 L -0.000200972 11.001225 C -0.000200972 4.925454 4.923988 0.0012648 10.99976 0.0012648 Z M 10.99976 0.0012648 " stroke="#545454" stroke-width="4" stroke-opacity="1" stroke-miterlimit="4"/></g></g><path stroke-linecap="butt" transform="matrix(-0.698306, 0.272653, -0.272653, -0.698306, 478.523884, 68.03785)" fill="none" stroke-linejoin="miter" d="M 0.740316 1.859202 C 120.104341 49.34858 221.096141 49.349372 303.717613 1.856723 " stroke="#6aab4e" stroke-width="4" stroke-opacity="1" stroke-miterlimit="4"/></svg>